<svg width="64" height="64" viewBox="0 0 64 64" fill="none" xmlns="http://www.w3.org/2000/svg">
<path d="M13.3632 5.86965C13.2643 5.86925 13.1653 5.87285 13.0667 5.88032C11.6039 3.67445 8.62973 3.07205 6.42387 4.53498C6.1848 4.69352 5.96053 4.87312 5.7536 5.07178C3.54493 4.25058 1.08867 5.37525 0.267467 7.58392C0.0906667 8.05938 0.000133333 8.56245 0 9.06965C0 11.426 1.91027 13.3363 4.26667 13.3363H13.3333C15.3952 13.3446 17.0733 11.6798 17.0816 9.61792C17.0899 7.55605 15.4251 5.87792 13.3632 5.86965ZM13.8972 11.113C13.7161 11.1766 13.5252 11.207 13.3333 11.203H4.26667C3.0884 11.203 2.13333 10.2479 2.13333 9.06965C2.13333 7.89138 3.0884 6.93632 4.26667 6.93632C4.6808 6.93712 5.08573 7.05912 5.43147 7.28725C5.91307 7.60245 6.55773 7.47872 6.88853 7.00778C7.7356 5.80298 9.39893 5.51312 10.6037 6.36018C11.01 6.64592 11.3285 7.03938 11.5232 7.49632C11.7395 8.00658 12.3107 8.26618 12.8373 8.09365C13.6711 7.80098 14.5843 8.23965 14.8769 9.07338C15.1696 9.90712 14.7309 10.8203 13.8972 11.113Z" fill="#2C3E50"/>
<path d="M58.4835 17.5895C57.8945 15.9232 56.0661 15.05 54.3999 15.6392C52.7338 16.2284 51.8605 18.0567 52.4497 19.7228C52.7718 20.6342 53.4887 21.351 54.3999 21.6731V35.736H51.1999V29.336C51.1999 28.747 50.7223 28.2694 50.1333 28.2694H33.0666V25.9399C34.7329 25.3508 35.6061 23.5224 35.0169 21.8563C34.4277 20.1902 32.5995 19.3167 30.9333 19.9059C29.267 20.4951 28.3938 22.3234 28.983 23.9895C29.3051 24.9008 30.0221 25.6176 30.9333 25.9398V28.2694H13.8666C13.2775 28.2694 12.7999 28.747 12.7999 29.336V35.736H9.59993V20.6066C11.2662 20.0175 12.1394 18.1891 11.5502 16.523C10.961 14.8568 9.13286 13.9834 7.46659 14.5726C5.80033 15.1616 4.92713 16.99 5.51633 18.6562C5.83846 19.5675 6.55539 20.2843 7.46659 20.6064V36.8027C7.46659 37.3918 7.94419 37.8694 8.53326 37.8694H12.7999V49.4704L9.63193 62.1435C9.48873 62.715 9.83593 63.2943 10.4074 63.4374C10.4922 63.4586 10.5793 63.4694 10.6666 63.4694H53.3333C53.9223 63.4694 54.3999 62.9918 54.3999 62.4027C54.3999 62.3154 54.3891 62.2283 54.3679 62.1435L51.1999 49.4706V37.8695H55.4666C56.0557 37.8695 56.5333 37.3919 56.5333 36.8028V21.6732C58.1995 21.084 59.0727 19.2558 58.4835 17.5895ZM8.53326 18.6695C7.94419 18.6695 7.46659 18.1919 7.46659 17.6028C7.46659 17.0138 7.94419 16.5362 8.53326 16.5362C9.12233 16.5362 9.59993 17.0138 9.59993 17.6028C9.59993 18.1919 9.12233 18.6695 8.53326 18.6695ZM31.9999 21.8695C32.589 21.8695 33.0666 22.3471 33.0666 22.9362C33.0666 23.5252 32.589 24.0028 31.9999 24.0028C31.4109 24.0028 30.9333 23.5252 30.9333 22.9362C30.9333 22.3471 31.4109 21.8695 31.9999 21.8695ZM14.9333 30.4028H49.0666V48.5362H14.9333V30.4028ZM51.9669 61.3362H12.033L14.6997 50.6695H49.3002L51.9669 61.3362ZM55.4666 19.7362C54.8775 19.7362 54.3999 19.2586 54.3999 18.6695C54.3999 18.0804 54.8775 17.6028 55.4666 17.6028C56.0557 17.6028 56.5333 18.0804 56.5333 18.6695C56.5333 19.2586 56.0557 19.7362 55.4666 19.7362Z" fill="#2C3E50"/>
<path d="M45.8666 32.5364H42.6666V34.6697H44.8V37.8697H46.9333V33.603C46.9333 33.0138 46.4557 32.5364 45.8666 32.5364Z" fill="#2C3E50"/>
<path d="M19.2 44.2697V41.0697H17.0667V45.3364C17.0667 45.9254 17.5443 46.403 18.1333 46.403H24.5333V44.2697H19.2Z" fill="#2C3E50"/>
<path d="M20.2666 52.803H17.0667V54.9363H20.2666V52.803Z" fill="#2C3E50"/>
<path d="M25.6 52.803H22.4V54.9363H25.6V52.803Z" fill="#2C3E50"/>
<path d="M30.9334 52.803H27.7334V54.9363H30.9334V52.803Z" fill="#2C3E50"/>
<path d="M36.2666 52.803H33.0667V54.9363H36.2666V52.803Z" fill="#2C3E50"/>
<path d="M41.6 52.803H38.4V54.9363H41.6V52.803Z" fill="#2C3E50"/>
<path d="M46.9334 52.803H43.7334V54.9363H46.9334V52.803Z" fill="#2C3E50"/>
<path d="M20.2666 57.0697H17.0667V59.203H20.2666V57.0697Z" fill="#2C3E50"/>
<path d="M25.6 57.0697H22.4V59.203H25.6V57.0697Z" fill="#2C3E50"/>
<path d="M30.9334 57.0697H27.7334V59.203H30.9334V57.0697Z" fill="#2C3E50"/>
<path d="M36.2666 57.0697H33.0667V59.203H36.2666V57.0697Z" fill="#2C3E50"/>
<path d="M41.6 57.0697H38.4V59.203H41.6V57.0697Z" fill="#2C3E50"/>
<path d="M46.9334 57.0697H43.7334V59.203H46.9334V57.0697Z" fill="#2C3E50"/>
<path d="M38.9866 2.66108L38.992 2.65362C34.7604 -0.177183 29.2396 -0.177183 25.008 2.65362V2.66108C24.7105 2.85535 24.5302 3.18575 24.528 3.54108V7.80775C24.528 8.16428 24.706 8.49735 25.0026 8.69522C27.0736 10.08 29.5088 10.8191 32 10.819C34.4894 10.818 36.9226 10.079 38.992 8.69522C39.2886 8.49735 39.4666 8.16428 39.4666 7.80775V3.54108C39.4644 3.18575 39.2841 2.85535 38.9866 2.66108ZM36.1386 3.54108C33.4982 4.68562 30.5017 4.68562 27.8613 3.54108C30.5017 2.39655 33.4982 2.39655 36.1386 3.54108ZM37.3333 7.21895C34.046 9.17202 29.954 9.17202 26.6666 7.21895V5.36295C30.0456 6.94802 33.9544 6.94802 37.3333 5.36295V7.21895Z" fill="#2C3E50"/>
<path d="M38.9035 10.4563C38.5564 10.2705 38.1353 10.2911 37.808 10.5096C34.2932 12.8615 29.7068 12.8615 26.192 10.5096C25.702 10.1827 25.0396 10.3148 24.7127 10.8049C24.5955 10.9805 24.5331 11.1871 24.5333 11.3981V15.6648C24.5333 16.0213 24.7113 16.3544 25.008 16.5523C29.2393 19.3839 34.7607 19.3839 38.992 16.5523C39.2887 16.3544 39.4667 16.0213 39.4667 15.6648V11.3981C39.4672 11.0043 39.2507 10.6421 38.9035 10.4563ZM37.3333 15.076C34.0463 17.03 29.9537 17.03 26.6667 15.076V13.2211C30.0456 14.8061 33.9544 14.8061 37.3333 13.2211V15.076Z" fill="#2C3E50"/>
<path d="M62.9334 3.73633H45.8667C45.2776 3.73633 44.8 4.21393 44.8 4.80299V13.3363C44.8 13.9254 45.2776 14.403 45.8667 14.403H62.9334C63.5224 14.403 64 13.9254 64 13.3363V4.80299C64 4.21379 63.5224 3.73633 62.9334 3.73633ZM61.8667 12.2697H46.9334V5.86966H61.8667V12.2697Z" fill="#2C3E50"/>
<path d="M59.7333 8.00293H57.6V10.1363H59.7333V8.00293Z" fill="#2C3E50"/>
<path d="M55.4667 8.00293H49.0667V10.1363H55.4667V8.00293Z" fill="#2C3E50"/>
</svg>
