<svg width="400" height="400" viewBox="0 0 400 400" fill="none" xmlns="http://www.w3.org/2000/svg">
<path d="M195.992 383.632C300.52 383.632 385.256 334.709 385.256 274.36C385.256 214.011 300.52 165.088 195.992 165.088C91.4644 165.088 6.72803 214.011 6.72803 274.36C6.72803 334.709 91.4644 383.632 195.992 383.632Z" fill="#EAECEF"/>
<path d="M160.488 367.744C158.469 367.772 156.477 367.279 154.704 366.312L62.472 313.056C61.4737 312.62 60.6241 311.902 60.0275 310.991C59.4309 310.079 59.1132 309.013 59.1132 307.924C59.1132 306.835 59.4309 305.769 60.0275 304.857C60.6241 303.946 61.4737 303.228 62.472 302.792L224.872 209.024C226.656 208.084 228.643 207.592 230.66 207.592C232.677 207.592 234.664 208.084 236.448 209.024L328.68 262.28C329.678 262.716 330.528 263.434 331.125 264.345C331.721 265.257 332.039 266.323 332.039 267.412C332.039 268.501 331.721 269.567 331.125 270.479C330.528 271.39 329.678 272.108 328.68 272.544L166.28 366.312C164.504 367.278 162.51 367.771 160.488 367.744Z" fill="white"/>
<path d="M324.912 256.184L315.912 251.384C315.912 251.384 315.224 237.624 316.296 226.72C317.808 211.392 329.2 193.6 341 197.92C352.8 202.24 335.592 217.856 331.76 230.848C327.928 243.84 324.912 256.184 324.912 256.184Z" fill="#7CB333"/>
<path opacity="0.1" d="M324.912 256.184L315.912 251.384C315.912 251.384 315.224 237.624 316.296 226.72C317.808 211.392 329.2 193.6 341 197.92C352.8 202.24 335.592 217.856 331.76 230.848C327.928 243.84 324.912 256.184 324.912 256.184Z" fill="#2C3E50"/>
<path d="M320.512 254.584C320.617 254.58 320.716 254.535 320.787 254.458C320.859 254.382 320.898 254.281 320.896 254.176C319.736 220.128 336.688 202.976 336.856 202.832C336.893 202.795 336.923 202.752 336.943 202.704C336.963 202.656 336.974 202.604 336.974 202.552C336.974 202.5 336.963 202.448 336.943 202.4C336.923 202.352 336.893 202.308 336.856 202.272C336.819 202.234 336.775 202.205 336.726 202.184C336.677 202.164 336.625 202.154 336.572 202.154C336.519 202.154 336.467 202.164 336.418 202.184C336.369 202.205 336.325 202.234 336.288 202.272C336.12 202.448 318.92 219.816 320.088 254.208C320.091 254.26 320.104 254.312 320.127 254.359C320.15 254.407 320.183 254.449 320.222 254.484C320.261 254.519 320.307 254.546 320.357 254.563C320.407 254.58 320.459 254.587 320.512 254.584Z" fill="white"/>
<path d="M329.528 258.904L324.848 256.2C324.128 248.507 325.122 240.75 327.76 233.488C332.096 221.72 343.296 215.304 348.448 217.056C354.744 219.2 354.784 225.224 352.496 229.184C349.792 233.856 332.928 245.672 329.528 258.904Z" fill="#7CB333"/>
<path d="M327.064 257.872C327.17 257.872 327.272 257.83 327.347 257.755C327.422 257.68 327.464 257.578 327.464 257.472C327.368 235.944 347.584 221.4 347.784 221.256C347.865 221.193 347.919 221.102 347.934 221C347.95 220.899 347.926 220.796 347.868 220.711C347.809 220.627 347.72 220.569 347.62 220.548C347.52 220.527 347.415 220.546 347.328 220.6C347.12 220.752 326.528 235.544 326.664 257.48C326.664 257.532 326.675 257.584 326.695 257.632C326.715 257.68 326.744 257.723 326.782 257.76C326.819 257.797 326.863 257.825 326.912 257.844C326.96 257.864 327.012 257.873 327.064 257.872Z" fill="white"/>
<path d="M55.2001 265.52V246.768C55.2001 246.768 54.2401 236.184 46.8321 228.16C39.4241 220.136 32.8001 222.864 30.6321 226.672C28.4641 230.48 33.3841 237.712 36.5281 241.784C40.3121 246.68 55.2001 269.424 55.2001 279.608V265.52Z" fill="#7CB333"/>
<g opacity="0.2">
<path opacity="0.2" d="M55.2001 265.52V246.768C55.2001 246.768 54.2401 236.184 46.8321 228.16C39.4241 220.136 32.8001 222.864 30.6321 226.672C28.4641 230.48 33.3841 237.712 36.5281 241.784C40.3121 246.68 55.2001 269.424 55.2001 279.608V265.52Z" fill="#2C3E50"/>
</g>
<path d="M55.2001 262.56C55.09 262.559 54.9836 262.52 54.9 262.448C54.8165 262.376 54.7612 262.277 54.7441 262.168C51.3681 241.72 35.8001 227.688 35.6481 227.552C35.5569 227.471 35.5014 227.358 35.4939 227.236C35.4864 227.115 35.5275 226.995 35.6081 226.904C35.6887 226.813 35.8023 226.757 35.9238 226.75C36.0454 226.742 36.1649 226.783 36.2561 226.864C36.4161 227.008 52.2561 241.264 55.6561 262.024C55.6746 262.145 55.6446 262.268 55.5727 262.367C55.5008 262.466 55.3928 262.532 55.2721 262.552L55.2001 262.56Z" fill="white"/>
<path d="M55.2961 268C55.2961 268 55.9121 266.136 53.1761 265.664C50.4401 265.192 49.3841 262.92 49.1281 259.096C48.8721 255.272 47.7201 252.536 44.2801 251.976C40.8401 251.416 38.0881 253.136 35.8561 251.416C33.6241 249.696 27.8561 245.544 23.0561 247.416C18.2561 249.288 19.8561 253.416 22.3201 256.072C24.7841 258.728 25.5201 259.632 23.6321 263.952C21.7441 268.272 23.1121 272.32 27.5281 273.328C31.9441 274.336 34.4241 273.824 34.4881 278.672C34.5521 283.52 35.2241 285.68 37.6881 287.584C40.1521 289.488 47.7281 288.624 50.8961 289.36C51.8473 289.602 52.7356 290.045 53.5014 290.659C54.2672 291.273 54.8928 292.044 55.3361 292.92L55.2961 268Z" fill="#7CB333"/>
<path d="M55.2961 287.952C55.217 287.952 55.14 287.927 55.0756 287.881C55.0111 287.835 54.9624 287.77 54.9361 287.696C46.8961 263.808 28.6881 254.16 28.5361 254.096C28.447 254.049 28.38 253.969 28.35 253.873C28.32 253.777 28.3294 253.673 28.3761 253.584C28.4227 253.495 28.5029 253.428 28.5989 253.398C28.6949 253.368 28.799 253.377 28.8881 253.424C29.0721 253.52 47.5441 263.296 55.6881 287.48C55.7043 287.527 55.711 287.577 55.7076 287.627C55.7043 287.677 55.6911 287.726 55.6688 287.77C55.6464 287.815 55.6154 287.855 55.5775 287.887C55.5396 287.92 55.4956 287.945 55.4481 287.96L55.2961 287.952Z" fill="white"/>
<path d="M43.76 267.128H43.672C38.424 265.928 30.016 266.576 29.936 266.584C29.8354 266.593 29.7353 266.562 29.6574 266.497C29.5795 266.433 29.5302 266.34 29.52 266.24C29.5133 266.138 29.5462 266.038 29.6119 265.961C29.6776 265.883 29.7709 265.834 29.872 265.824C30.224 265.824 38.48 265.16 43.84 266.392C43.9313 266.411 44.0122 266.463 44.0671 266.539C44.1219 266.614 44.1467 266.707 44.1368 266.8C44.1268 266.893 44.0827 266.978 44.0131 267.04C43.9435 267.102 43.8533 267.136 43.76 267.136V267.128Z" fill="white"/>
<path d="M48.0401 278.608C45.6401 278.608 43.0961 278.456 42.9361 278.448C42.8349 278.44 42.7409 278.392 42.6737 278.316C42.6066 278.24 42.5716 278.141 42.5761 278.04C42.5791 277.99 42.5921 277.941 42.6144 277.896C42.6367 277.851 42.6677 277.81 42.7058 277.778C42.7438 277.745 42.788 277.72 42.8358 277.705C42.8836 277.689 42.934 277.683 42.9841 277.688C43.0401 277.688 48.9041 278.048 51.1921 277.688C51.2444 277.672 51.2995 277.668 51.3536 277.675C51.4078 277.683 51.4597 277.702 51.5059 277.731C51.5521 277.76 51.5916 277.799 51.6217 277.844C51.6518 277.89 51.6718 277.941 51.6804 277.995C51.689 278.049 51.686 278.104 51.6716 278.157C51.6572 278.21 51.6317 278.259 51.5969 278.301C51.562 278.343 51.5185 278.377 51.4694 278.401C51.4203 278.425 51.3667 278.438 51.3121 278.44C50.2266 278.572 49.1333 278.628 48.0401 278.608Z" fill="white"/>
<path d="M41.2961 264.328C41.1964 264.319 41.1036 264.274 41.0367 264.199C40.9697 264.125 40.9338 264.028 40.9361 263.928C41.1189 261.195 41.6872 258.501 42.6241 255.928C42.6616 255.833 42.7347 255.758 42.8276 255.717C42.9206 255.677 43.0257 255.675 43.1201 255.712C43.2124 255.749 43.2865 255.821 43.3268 255.912C43.3671 256.003 43.3704 256.106 43.3361 256.2C42.4448 258.702 41.9063 261.317 41.7361 263.968C41.7346 264.022 41.7216 264.074 41.6978 264.123C41.674 264.171 41.6401 264.214 41.5984 264.248C41.5567 264.282 41.5081 264.307 41.4559 264.321C41.4038 264.334 41.3493 264.337 41.2961 264.328Z" fill="white"/>
<path d="M59.7841 300.912C59.888 302.335 60.3262 303.713 61.0629 304.935C61.7996 306.157 62.8141 307.188 64.0241 307.944L156.256 361.208C157.569 361.875 159.02 362.222 160.492 362.222C161.964 362.222 163.416 361.875 164.728 361.208L327.128 267.44C328.396 266.754 329.455 265.738 330.193 264.499C330.931 263.261 331.321 261.846 331.321 260.404C331.321 258.962 330.931 257.547 330.193 256.309C329.455 255.07 328.396 254.054 327.128 253.368L234.888 200.104C233.576 199.437 232.124 199.09 230.652 199.09C229.18 199.09 227.729 199.437 226.416 200.104L64.0001 293.872C62.7949 294.633 61.7854 295.667 61.0531 296.89C60.3207 298.112 59.8861 299.49 59.7841 300.912Z" fill="#7CB333"/>
<path opacity="0.5" d="M331.376 260.4C331.273 261.823 330.836 263.202 330.101 264.426C329.366 265.649 328.353 266.681 327.144 267.44L164.744 361.208C163.442 361.899 161.986 362.249 160.512 362.224V353.048C161.986 353.073 163.442 352.723 164.744 352.032L327.144 258.264C329.192 257.08 329.448 255.256 327.944 253.912C328.937 254.695 329.755 255.676 330.346 256.794C330.937 257.911 331.288 259.139 331.376 260.4Z" fill="#2C3E50"/>
<path opacity="0.3" d="M64 298.768L156.256 352C157.569 352.667 159.02 353.014 160.492 353.014C161.964 353.014 163.416 352.667 164.728 352L327.128 258.224C329.464 256.88 329.464 254.688 327.128 253.336L234.888 200.072C233.576 199.405 232.124 199.058 230.652 199.058C229.18 199.058 227.729 199.405 226.416 200.072L64 293.872C61.68 295.2 61.68 297.416 64 298.768Z" fill="#2C3E50"/>
<path opacity="0.7" d="M160.496 353.048V362.216C159.02 362.249 157.56 361.902 156.256 361.208L64.0001 307.944C62.76 307.29 61.7154 306.319 60.9727 305.129C60.2299 303.94 59.8155 302.575 59.7716 301.174C59.7277 299.772 60.0559 298.384 60.7228 297.151C61.3896 295.917 62.3714 294.883 63.5681 294.152C61.6721 295.512 61.8241 297.504 64.0001 298.768L156.256 352C157.557 352.704 159.017 353.065 160.496 353.048Z" fill="#2C3E50"/>
<path d="M55.808 294.024C53.616 292.76 53.736 290.624 53.736 287.92V160.52C53.8158 159.051 54.2405 157.621 54.9757 156.346C55.7109 155.072 56.7361 153.989 57.968 153.184L220.368 59.416C221.628 58.7466 223.028 58.3839 224.454 58.3575C225.88 58.3311 227.292 58.6417 228.576 59.264C230.776 60.528 230.656 62.672 230.656 65.368V192.8C230.577 194.27 230.151 195.701 229.415 196.976C228.678 198.251 227.65 199.333 226.416 200.136L64 293.872C62.7424 294.539 61.3454 294.9 59.9222 294.926C58.499 294.953 57.0895 294.644 55.808 294.024Z" fill="#7CB333"/>
<path opacity="0.3" d="M230.672 65.368C230.672 62.672 228.776 61.576 226.432 62.92L64 156.696C62.7431 157.487 61.7123 158.589 61.008 159.896L54.96 156.376C55.6721 155.072 56.7045 153.971 57.96 153.176L220.36 59.416C221.62 58.7466 223.019 58.3839 224.446 58.3575C225.872 58.3311 227.284 58.6417 228.568 59.264C230.784 60.528 230.672 62.672 230.672 65.368Z" fill="#2C3E50"/>
<path opacity="0.5" d="M59.7841 164V291.432C59.7841 294.128 61.6801 295.224 64.0161 293.832L226.4 200.104C227.634 199.301 228.662 198.218 229.399 196.944C230.135 195.669 230.561 194.238 230.64 192.768V65.368C230.64 62.672 228.744 61.576 226.4 62.968L64.0001 156.696C62.7753 157.499 61.7559 158.578 61.0237 159.847C60.2915 161.115 59.8669 162.538 59.7841 164Z" fill="#2C3E50"/>
<path opacity="0.7" d="M63.52 294.128C62.3053 294.676 60.985 294.951 59.6525 294.933C58.3199 294.915 57.0075 294.605 55.808 294.024C53.616 292.76 53.736 290.624 53.736 287.92V160.52C53.7851 159.047 54.2121 157.612 54.976 156.352L61.024 159.848C60.2692 161.106 59.8428 162.534 59.784 164V291.432C59.784 293.936 61.416 295.064 63.52 294.128Z" fill="#2C3E50"/>
<path d="M66.296 161.6L222.888 71.2C224.288 70.4 225.424 71.048 225.424 72.664V183.864C225.378 184.745 225.124 185.603 224.683 186.368C224.243 187.133 223.628 187.782 222.888 188.264L66.296 278.664C64.896 279.464 63.76 278.816 63.76 277.192V165.992C63.8073 165.112 64.0617 164.256 64.5023 163.492C64.943 162.729 65.5575 162.081 66.296 161.6Z" fill="#F2F1F3"/>
<path d="M99.072 189.552L191.016 136.472C193.744 134.872 195.952 136.016 195.952 138.968C195.952 141.92 193.744 145.6 191.016 147.2L99.072 200.24C96.352 201.84 94.144 200.696 94.144 197.744C94.144 194.792 96.352 191.128 99.072 189.552Z" fill="#6A9626"/>
<path d="M194.4 138.968C194.4 141.368 192.488 144.568 190.224 145.84L171.448 156.688L98.28 198.92C97.8184 199.228 97.2821 199.405 96.728 199.432C96 199.432 95.624 198.864 95.624 197.744C95.624 195.344 97.536 192.144 99.8 190.864L171.448 149.504L191.744 137.784C192.212 137.483 192.749 137.306 193.304 137.272C194.064 137.272 194.4 137.848 194.4 138.968Z" fill="#7CB333"/>
<path d="M194.4 138.968C194.4 141.368 192.488 144.568 190.224 145.84L171.448 156.688L98.28 198.92C97.8184 199.228 97.2821 199.405 96.728 199.432C96 199.432 95.624 198.864 95.624 197.744C95.624 195.344 97.536 192.144 99.8 190.864L171.448 149.504L191.744 137.784C192.212 137.483 192.749 137.306 193.304 137.272C194.064 137.272 194.4 137.848 194.4 138.968Z" fill="#7CB333"/>
<path d="M194.4 138.968C194.4 141.368 192.488 144.568 190.224 145.84L171.448 156.688V149.488L191.744 137.768C192.212 137.467 192.749 137.29 193.304 137.256C194.064 137.272 194.4 137.848 194.4 138.968Z" fill="#2C3E50"/>
<path opacity="0.6" d="M120.856 178.728L99.832 190.864C97.568 192.168 95.656 195.32 95.656 197.744C95.656 198.864 96.032 199.432 96.76 199.432C97.3141 199.405 97.8504 199.228 98.312 198.92L120.856 185.912V178.728Z" fill="white"/>
<path opacity="0.4" d="M120.864 185.904L146.344 171.2V164.016L120.864 178.728V185.904Z" fill="white"/>
<path d="M127.728 202.808C127.757 202.783 127.794 202.77 127.832 202.77C127.87 202.77 127.907 202.783 127.936 202.808C127.968 202.844 127.992 202.886 128.007 202.931C128.022 202.976 128.028 203.024 128.024 203.072V204.24C128.023 204.368 127.992 204.493 127.936 204.608C127.894 204.71 127.821 204.796 127.728 204.856L123.032 207.568C123.005 207.594 122.969 207.608 122.932 207.608C122.895 207.608 122.859 207.594 122.832 207.568C122.801 207.532 122.777 207.49 122.762 207.445C122.746 207.399 122.74 207.352 122.744 207.304V196.64C122.747 196.512 122.777 196.387 122.832 196.272C122.872 196.171 122.942 196.084 123.032 196.024L123.904 195.52C123.932 195.496 123.967 195.482 124.004 195.482C124.041 195.482 124.076 195.496 124.104 195.52C124.136 195.556 124.159 195.598 124.175 195.643C124.19 195.688 124.196 195.736 124.192 195.784V204.832L127.728 202.808Z" fill="#6A9626"/>
<path d="M131.944 193.688C132.263 193.478 132.634 193.362 133.016 193.352C133.309 193.354 133.592 193.459 133.816 193.648C134.068 193.879 134.26 194.167 134.376 194.488C134.522 194.9 134.603 195.331 134.616 195.768C134.616 195.856 134.616 195.984 134.616 196.136V197.056C134.616 197.2 134.616 197.328 134.616 197.432C134.588 197.972 134.505 198.508 134.368 199.032C134.236 199.541 134.051 200.034 133.816 200.504C133.601 200.948 133.332 201.365 133.016 201.744C132.712 202.103 132.349 202.409 131.944 202.648C131.626 202.852 131.258 202.965 130.88 202.976C130.588 202.977 130.305 202.875 130.08 202.688C129.83 202.474 129.639 202.198 129.528 201.888C129.38 201.48 129.296 201.05 129.28 200.616C129.28 200.52 129.28 200.4 129.28 200.248C129.28 200.096 129.28 199.952 129.28 199.8C129.28 199.648 129.28 199.488 129.28 199.336C129.28 199.184 129.28 199.048 129.28 198.944C129.302 198.404 129.383 197.867 129.52 197.344C129.656 196.833 129.844 196.337 130.08 195.864C130.293 195.416 130.562 194.997 130.88 194.616C131.177 194.246 131.537 193.932 131.944 193.688ZM133.248 196.656C133.241 196.382 133.187 196.112 133.088 195.856C133.029 195.706 132.922 195.579 132.784 195.496C132.654 195.452 132.514 195.452 132.384 195.496C132.229 195.535 132.081 195.597 131.944 195.68C131.786 195.771 131.639 195.878 131.504 196C131.351 196.149 131.219 196.319 131.112 196.504C130.982 196.728 130.88 196.967 130.808 197.216C130.717 197.523 130.663 197.84 130.648 198.16C130.648 198.248 130.648 198.368 130.648 198.496C130.648 198.624 130.648 198.768 130.648 198.912C130.648 199.056 130.648 199.2 130.648 199.336C130.648 199.472 130.648 199.576 130.648 199.648C130.655 199.909 130.709 200.166 130.808 200.408C130.867 200.558 130.974 200.685 131.112 200.768C131.234 200.826 131.373 200.84 131.504 200.808C131.659 200.774 131.808 200.714 131.944 200.632C132.101 200.538 132.249 200.428 132.384 200.304C132.539 200.155 132.674 199.985 132.784 199.8C132.915 199.576 133.017 199.337 133.088 199.088C133.176 198.78 133.229 198.464 133.248 198.144C133.248 198.064 133.248 197.96 133.248 197.816V197.016C133.256 196.848 133.248 196.736 133.248 196.656Z" fill="#6A9626"/>
<path d="M136.408 193.392C136.449 193.099 136.516 192.81 136.608 192.528C136.72 192.183 136.868 191.851 137.048 191.536C137.245 191.187 137.479 190.86 137.744 190.56C138.018 190.242 138.342 189.972 138.704 189.76C139.002 189.573 139.338 189.455 139.688 189.416C139.823 189.4 139.959 189.411 140.09 189.448C140.22 189.486 140.342 189.548 140.448 189.632C140.687 189.844 140.857 190.123 140.936 190.432C141.059 190.886 141.116 191.354 141.104 191.824V196.68C141.106 196.805 141.078 196.928 141.024 197.04C140.983 197.145 140.911 197.235 140.816 197.296L140.016 197.76C139.989 197.786 139.953 197.801 139.916 197.801C139.879 197.801 139.843 197.786 139.816 197.76C139.785 197.724 139.761 197.682 139.746 197.637C139.73 197.592 139.724 197.544 139.728 197.496V196.944C139.568 197.369 139.349 197.77 139.08 198.136C138.794 198.533 138.425 198.863 138 199.104C137.758 199.257 137.485 199.356 137.2 199.392C136.981 199.41 136.764 199.344 136.592 199.208C136.409 199.049 136.276 198.841 136.208 198.608C136.112 198.297 136.066 197.973 136.072 197.648C136.065 196.921 136.247 196.204 136.6 195.568C136.959 194.922 137.437 194.349 138.008 193.88L139.752 192.408C139.752 191.952 139.656 191.696 139.464 191.608C139.342 191.575 139.213 191.571 139.089 191.594C138.964 191.618 138.846 191.669 138.744 191.744C138.584 191.834 138.443 191.953 138.328 192.096C138.214 192.247 138.118 192.411 138.04 192.584C137.989 192.684 137.927 192.778 137.856 192.864C137.807 192.925 137.748 192.977 137.68 193.016L136.688 193.592C136.661 193.61 136.629 193.62 136.596 193.62C136.563 193.62 136.531 193.61 136.504 193.592C136.474 193.569 136.449 193.538 136.432 193.503C136.416 193.469 136.407 193.431 136.408 193.392ZM138.2 197.016C138.442 196.872 138.661 196.691 138.848 196.48C139.037 196.269 139.198 196.035 139.328 195.784C139.453 195.543 139.55 195.288 139.616 195.024C139.678 194.784 139.71 194.536 139.712 194.288V194.12L138.256 195.36C138.006 195.556 137.792 195.794 137.624 196.064C137.495 196.282 137.426 196.531 137.424 196.784C137.424 197.016 137.504 197.136 137.656 197.16C137.848 197.172 138.039 197.121 138.2 197.016Z" fill="#6A9626"/>
<path d="M145.216 186.024C145.398 185.911 145.599 185.83 145.808 185.784C145.961 185.753 146.119 185.753 146.272 185.784C146.392 185.802 146.507 185.846 146.608 185.912C146.691 185.966 146.766 186.03 146.832 186.104V182.584C146.834 182.459 146.864 182.336 146.92 182.224C146.963 182.122 147.035 182.036 147.128 181.976L147.928 181.504C147.957 181.479 147.994 181.466 148.032 181.466C148.07 181.466 148.107 181.479 148.136 181.504C148.167 181.54 148.191 181.582 148.207 181.627C148.222 181.672 148.228 181.72 148.224 181.768V192.6C148.222 192.725 148.192 192.848 148.136 192.96C148.095 193.065 148.023 193.155 147.928 193.216L147.128 193.688C147.098 193.711 147.062 193.724 147.024 193.724C146.986 193.724 146.95 193.711 146.92 193.688C146.889 193.652 146.865 193.61 146.849 193.565C146.834 193.52 146.828 193.472 146.832 193.424V193.04C146.767 193.197 146.692 193.349 146.608 193.496C146.508 193.674 146.396 193.846 146.272 194.008C146.131 194.193 145.976 194.367 145.808 194.528C145.629 194.698 145.431 194.846 145.216 194.968C144.931 195.159 144.589 195.244 144.248 195.208C143.955 195.162 143.69 195.008 143.504 194.776C143.275 194.495 143.111 194.167 143.024 193.816C142.899 193.376 142.832 192.921 142.824 192.464C142.824 192.304 142.824 192.12 142.824 191.896C142.824 191.672 142.824 191.48 142.824 191.312C142.839 190.773 142.906 190.238 143.024 189.712C143.132 189.19 143.293 188.681 143.504 188.192C143.694 187.734 143.944 187.304 144.248 186.912C144.507 186.553 144.836 186.251 145.216 186.024ZM144.216 190.6C144.2 190.906 144.2 191.214 144.216 191.52C144.264 192.216 144.4 192.648 144.648 192.816C144.783 192.898 144.94 192.938 145.098 192.931C145.256 192.924 145.409 192.87 145.536 192.776C145.923 192.54 146.232 192.195 146.424 191.784C146.674 191.286 146.813 190.741 146.832 190.184C146.832 190.008 146.832 189.8 146.832 189.544C146.832 189.288 146.832 189.088 146.832 188.928C146.844 188.725 146.814 188.521 146.743 188.33C146.673 188.138 146.565 187.964 146.424 187.816C146.297 187.718 146.141 187.665 145.98 187.665C145.819 187.665 145.663 187.718 145.536 187.816C145.151 188.051 144.843 188.393 144.648 188.8C144.376 189.362 144.229 189.976 144.216 190.6Z" fill="#6A9626"/>
<path d="M151.408 179.48C151.435 179.454 151.471 179.44 151.508 179.44C151.545 179.44 151.581 179.454 151.608 179.48C151.639 179.516 151.663 179.558 151.679 179.603C151.694 179.649 151.7 179.696 151.696 179.744V181.032C151.694 181.157 151.664 181.28 151.608 181.392C151.568 181.493 151.498 181.579 151.408 181.64L150.48 182.176C150.453 182.202 150.417 182.216 150.38 182.216C150.343 182.216 150.307 182.202 150.28 182.176C150.249 182.14 150.225 182.098 150.21 182.053C150.194 182.008 150.188 181.96 150.192 181.912V180.624C150.194 180.499 150.225 180.376 150.28 180.264C150.318 180.162 150.388 180.075 150.48 180.016L151.408 179.48ZM151.64 190.624C151.638 190.749 151.608 190.872 151.552 190.984C151.512 191.087 151.443 191.176 151.352 191.24L150.552 191.704C150.522 191.727 150.486 191.74 150.448 191.74C150.41 191.74 150.374 191.727 150.344 191.704C150.314 191.667 150.291 191.625 150.278 191.58C150.264 191.535 150.259 191.487 150.264 191.44V183.744C150.263 183.617 150.29 183.491 150.344 183.376C150.389 183.276 150.461 183.19 150.552 183.128L151.352 182.656C151.379 182.63 151.415 182.616 151.452 182.616C151.489 182.616 151.525 182.63 151.552 182.656C151.583 182.692 151.607 182.734 151.623 182.779C151.638 182.825 151.644 182.872 151.64 182.92V190.624Z" fill="#6A9626"/>
<path d="M158.888 186.44C158.89 186.565 158.862 186.688 158.808 186.8C158.765 186.902 158.693 186.988 158.6 187.048L157.8 187.52C157.773 187.546 157.737 187.56 157.7 187.56C157.663 187.56 157.627 187.546 157.6 187.52C157.569 187.484 157.545 187.442 157.529 187.397C157.514 187.352 157.508 187.304 157.512 187.256V183.064C157.554 182.573 157.451 182.081 157.216 181.648C157.008 181.368 156.704 181.352 156.288 181.592C155.874 181.853 155.559 182.244 155.392 182.704C155.167 183.266 155.056 183.867 155.064 184.472V188.672C155.066 188.797 155.038 188.92 154.984 189.032C154.941 189.134 154.869 189.22 154.776 189.28L153.976 189.752C153.949 189.778 153.913 189.792 153.876 189.792C153.839 189.792 153.803 189.778 153.776 189.752C153.744 189.716 153.72 189.675 153.705 189.629C153.69 189.584 153.684 189.536 153.688 189.488V181.76C153.69 181.635 153.721 181.512 153.776 181.4C153.814 181.298 153.884 181.211 153.976 181.152L154.776 180.68C154.805 180.655 154.842 180.642 154.88 180.642C154.918 180.642 154.955 180.655 154.984 180.68C155.014 180.717 155.037 180.759 155.05 180.804C155.064 180.849 155.069 180.897 155.064 180.944V181.32C155.249 180.938 155.469 180.574 155.72 180.232C155.961 179.91 156.263 179.638 156.608 179.432C156.929 179.21 157.314 179.098 157.704 179.112C157.846 179.13 157.983 179.178 158.106 179.252C158.229 179.327 158.334 179.426 158.416 179.544C158.614 179.851 158.742 180.198 158.792 180.56C158.873 181.025 158.91 181.496 158.904 181.968L158.888 186.44Z" fill="#6A9626"/>
<path d="M163.288 185.992C163.46 185.893 163.616 185.769 163.752 185.624C163.916 185.444 164.058 185.245 164.176 185.032C164.317 184.78 164.424 184.511 164.496 184.232C164.578 183.938 164.618 183.634 164.616 183.328V182.72C164.549 182.873 164.475 183.023 164.392 183.168C164.29 183.347 164.177 183.521 164.056 183.688C163.915 183.87 163.759 184.041 163.592 184.2C163.414 184.373 163.215 184.524 163 184.648C162.713 184.833 162.372 184.915 162.032 184.88C161.739 184.834 161.474 184.68 161.288 184.448C161.059 184.167 160.895 183.84 160.808 183.488C160.684 183.051 160.616 182.599 160.608 182.144C160.608 181.984 160.608 181.792 160.608 181.576C160.608 181.36 160.608 181.16 160.608 180.992C160.623 180.454 160.69 179.918 160.808 179.392C160.914 178.87 161.074 178.36 161.288 177.872C161.478 177.412 161.728 176.979 162.032 176.584C162.291 176.227 162.62 175.928 163 175.704C163.184 175.593 163.384 175.509 163.592 175.456C163.745 175.429 163.903 175.429 164.056 175.456C164.176 175.475 164.29 175.519 164.392 175.584C164.477 175.635 164.552 175.7 164.616 175.776V175.392C164.618 175.267 164.649 175.144 164.704 175.032C164.745 174.929 164.818 174.842 164.912 174.784L165.712 174.312C165.741 174.287 165.778 174.274 165.816 174.274C165.854 174.274 165.891 174.287 165.92 174.312C165.951 174.348 165.975 174.39 165.991 174.435C166.006 174.481 166.012 174.528 166.008 174.576V182.4C166.037 183.585 165.787 184.761 165.28 185.832C164.843 186.737 164.147 187.492 163.28 188C162.971 188.192 162.625 188.315 162.264 188.36C161.991 188.395 161.714 188.354 161.464 188.24C161.237 188.119 161.048 187.936 160.92 187.712C160.776 187.456 160.699 187.167 160.696 186.872C160.689 186.747 160.717 186.623 160.776 186.512C160.817 186.409 160.89 186.322 160.984 186.264L161.712 185.84C161.748 185.81 161.793 185.794 161.84 185.794C161.887 185.794 161.932 185.81 161.968 185.84L162.152 186.024C162.195 186.09 162.251 186.145 162.317 186.187C162.384 186.228 162.458 186.255 162.536 186.264C162.809 186.257 163.073 186.161 163.288 185.992ZM162 180.328C161.976 180.637 161.976 180.947 162 181.256C162.048 181.944 162.184 182.376 162.432 182.552C162.567 182.634 162.724 182.674 162.882 182.667C163.04 182.66 163.193 182.606 163.32 182.512C163.704 182.272 164.011 181.928 164.208 181.52C164.458 181.023 164.597 180.477 164.616 179.92C164.616 179.744 164.616 179.528 164.616 179.28C164.616 179.032 164.616 178.816 164.616 178.664C164.628 178.459 164.598 178.255 164.528 178.062C164.458 177.869 164.349 177.693 164.208 177.544C164.08 177.449 163.924 177.397 163.764 177.397C163.604 177.397 163.448 177.449 163.32 177.544C162.938 177.782 162.63 178.123 162.432 178.528C162.161 179.09 162.014 179.704 162 180.328Z" fill="#6A9626"/>
<path d="M169.192 178.4C169.22 178.377 169.256 178.365 169.292 178.365C169.328 178.365 169.364 178.377 169.392 178.4C169.423 178.436 169.447 178.478 169.463 178.523C169.478 178.569 169.484 178.616 169.48 178.664V180.264C169.478 180.389 169.448 180.512 169.392 180.624C169.352 180.725 169.282 180.811 169.192 180.872L168.192 181.448C168.163 181.473 168.126 181.486 168.088 181.486C168.05 181.486 168.013 181.473 167.984 181.448C167.954 181.412 167.931 181.37 167.917 181.324C167.903 181.279 167.899 181.231 167.904 181.184V179.584C167.902 179.459 167.93 179.336 167.984 179.224C168.029 179.122 168.101 179.034 168.192 178.968L169.192 178.4Z" fill="#6A9626"/>
<path d="M172.52 176.504C172.549 176.479 172.586 176.466 172.624 176.466C172.662 176.466 172.699 176.479 172.728 176.504C172.761 176.539 172.785 176.581 172.801 176.626C172.816 176.672 172.821 176.72 172.816 176.768V178.368C172.814 178.493 172.784 178.616 172.728 178.728C172.687 178.831 172.614 178.918 172.52 178.976L171.528 179.552C171.499 179.577 171.462 179.59 171.424 179.59C171.386 179.59 171.349 179.577 171.32 179.552C171.29 179.515 171.267 179.473 171.254 179.428C171.24 179.383 171.235 179.335 171.24 179.288V177.688C171.238 177.563 171.266 177.44 171.32 177.328C171.361 177.225 171.434 177.138 171.528 177.08L172.52 176.504Z" fill="#6A9626"/>
<path d="M175.856 174.576C175.885 174.551 175.922 174.538 175.96 174.538C175.998 174.538 176.035 174.551 176.064 174.576C176.096 174.612 176.12 174.654 176.135 174.699C176.15 174.744 176.156 174.792 176.152 174.84V176.44C176.149 176.567 176.119 176.693 176.064 176.808C176.022 176.91 175.949 176.996 175.856 177.056L174.864 177.632C174.834 177.655 174.798 177.668 174.76 177.668C174.722 177.668 174.686 177.655 174.656 177.632C174.626 177.595 174.604 177.553 174.59 177.508C174.576 177.463 174.571 177.415 174.576 177.368V175.768C174.576 175.641 174.603 175.515 174.656 175.4C174.699 175.298 174.771 175.212 174.864 175.152L175.856 174.576Z" fill="#6A9626"/>
<path opacity="0.3" d="M75.744 294.128L226.496 207.088C227.154 206.757 227.88 206.584 228.616 206.584C229.352 206.584 230.078 206.757 230.736 207.088L233.248 208.464C234.416 209.144 234.416 210.24 233.248 210.912L82.464 297.936C81.809 298.271 81.0838 298.446 80.348 298.446C79.6123 298.446 78.8871 298.271 78.232 297.936L75.744 296.568C74.576 295.896 74.576 294.8 75.744 294.128Z" fill="#2C3E50"/>
<path opacity="0.3" d="M87.568 301.16L238.32 214.12C238.904 213.785 239.558 213.592 240.23 213.554C240.903 213.517 241.574 213.636 242.192 213.904L281.432 236.56C282.4 237.12 282.232 238.12 281.064 238.8L130.488 325.72C129.902 326.052 129.246 326.245 128.573 326.282C127.9 326.32 127.228 326.201 126.608 325.936L87.2 303.384C86.232 302.832 86.4 301.832 87.568 301.16Z" fill="#2C3E50"/>
<path d="M218.2 250.68L222.92 247.952C223.12 247.832 223.136 247.656 222.96 247.552L218.44 244.944C218.334 244.894 218.218 244.868 218.1 244.868C217.983 244.868 217.866 244.894 217.76 244.944L213.04 247.672C212.832 247.792 212.816 247.968 213 248.072L217.512 250.672C217.619 250.725 217.736 250.752 217.855 250.754C217.974 250.755 218.092 250.73 218.2 250.68ZM211.304 241.248L206.584 243.968C206.384 244.088 206.368 244.264 206.544 244.368L211.064 246.976C211.17 247.026 211.287 247.052 211.404 247.052C211.522 247.052 211.638 247.026 211.744 246.976L216.464 244.248C216.664 244.136 216.688 243.96 216.504 243.856L212 241.224C211.891 241.172 211.77 241.146 211.649 241.151C211.528 241.155 211.41 241.188 211.304 241.248ZM196.056 250.048L188.056 254.664C187.848 254.776 187.832 254.96 188.008 255.056L192.528 257.664C192.634 257.719 192.752 257.747 192.872 257.747C192.992 257.747 193.11 257.719 193.216 257.664L201.216 253.056C201.416 252.936 201.432 252.76 201.216 252.656L196.704 250.048C196.602 250.003 196.492 249.98 196.38 249.98C196.268 249.98 196.158 250.003 196.056 250.048ZM204.408 245.248L199.688 247.968C199.488 248.088 199.472 248.264 199.648 248.368L204.16 250.976C204.268 251.027 204.385 251.054 204.504 251.054C204.623 251.054 204.741 251.027 204.848 250.976L209.568 248.248C209.768 248.136 209.784 247.96 209.608 247.856L205.096 245.248C204.991 245.191 204.874 245.16 204.754 245.157C204.634 245.154 204.516 245.18 204.408 245.232V245.248ZM185.888 255.92L181.168 258.648C180.968 258.76 180.952 258.936 181.128 259.04L185.648 261.648C185.753 261.703 185.87 261.731 185.988 261.731C186.106 261.731 186.223 261.703 186.328 261.648L191.048 258.928C191.248 258.808 191.272 258.632 191.088 258.528L186.576 255.92C186.469 255.869 186.351 255.842 186.232 255.842C186.113 255.842 185.996 255.869 185.888 255.92ZM178.992 259.92L174.272 262.648C174.072 262.76 174.056 262.936 174.232 263.04L178.744 265.648C178.85 265.703 178.968 265.731 179.088 265.731C179.208 265.731 179.326 265.703 179.432 265.648L184.152 262.92C184.352 262.808 184.368 262.632 184.192 262.528L179.68 259.92C179.575 259.863 179.458 259.832 179.338 259.829C179.218 259.826 179.1 259.852 178.992 259.904V259.92ZM196.688 270.56L201.408 267.832C201.608 267.72 201.632 267.536 201.448 267.44L196.936 264.8C196.83 264.745 196.712 264.717 196.592 264.717C196.472 264.717 196.354 264.745 196.248 264.8L191.528 267.52C191.328 267.64 191.312 267.816 191.528 267.92L196.048 270.528C196.148 270.575 196.256 270.6 196.366 270.603C196.477 270.606 196.586 270.586 196.688 270.544V270.56ZM189.792 274.56L194.512 271.832C194.712 271.712 194.728 271.536 194.552 271.432L190.04 268.8C189.933 268.749 189.815 268.722 189.696 268.722C189.577 268.722 189.46 268.749 189.352 268.8L184.632 271.528C184.432 271.648 184.416 271.824 184.632 271.928L189.144 274.536C189.247 274.58 189.357 274.602 189.469 274.601C189.581 274.599 189.691 274.575 189.792 274.528V274.56ZM182.896 278.56L187.616 275.832C187.816 275.712 187.832 275.536 187.616 275.432L183.136 272.8C183.03 272.75 182.914 272.724 182.796 272.724C182.679 272.724 182.562 272.75 182.456 272.8L177.736 275.528C177.528 275.648 177.512 275.824 177.736 275.92L182.248 278.528C182.351 278.571 182.462 278.591 182.574 278.589C182.685 278.586 182.795 278.56 182.896 278.512V278.56ZM175.992 282.56L180.712 279.84C180.912 279.72 180.936 279.544 180.752 279.44L176.24 276.8C176.133 276.749 176.015 276.722 175.896 276.722C175.777 276.722 175.66 276.749 175.552 276.8L170.832 279.528C170.632 279.64 170.616 279.824 170.832 279.92L175.352 282.528C175.456 282.571 175.568 282.59 175.681 282.583C175.793 282.576 175.902 282.544 176 282.488L175.992 282.56ZM211.296 254.728L216.016 252.008C216.216 251.888 216.24 251.712 216.056 251.608L211.544 249C211.437 248.949 211.319 248.922 211.2 248.922C211.081 248.922 210.964 248.949 210.856 249L206.136 251.728C205.936 251.84 205.92 252.024 206.096 252.12L210.616 254.728C210.727 254.772 210.847 254.788 210.965 254.776C211.083 254.763 211.197 254.722 211.296 254.656V254.728ZM203.592 266.632L214.12 260.552C214.32 260.432 214.336 260.256 214.16 260.152L203.2 253.752C203.093 253.701 202.975 253.674 202.856 253.674C202.737 253.674 202.62 253.701 202.512 253.752L197.072 256.896C196.872 257.016 196.848 257.192 197.032 257.296L202.832 260.648C203.016 260.744 202.992 260.928 202.792 261.04L198.4 263.576C198.2 263.696 198.176 263.872 198.4 263.976L202.912 266.584C203.02 266.63 203.137 266.652 203.255 266.648C203.372 266.644 203.487 266.614 203.592 266.56V266.632ZM172.096 263.96L167.376 266.68C167.168 266.8 167.152 266.976 167.328 267.08L171.848 269.688C171.956 269.739 172.073 269.766 172.192 269.766C172.311 269.766 172.429 269.739 172.536 269.688L177.256 266.96C177.456 266.848 177.472 266.672 177.296 266.568L172.8 263.864C172.69 263.809 172.568 263.782 172.445 263.786C172.322 263.791 172.202 263.826 172.096 263.888V263.96ZM165.192 267.96L160.472 270.68C160.272 270.8 160.256 270.976 160.432 271.08L164.952 273.688C165.058 273.738 165.175 273.764 165.292 273.764C165.41 273.764 165.526 273.738 165.632 273.688L170.352 270.96C170.552 270.848 170.576 270.664 170.392 270.568L165.88 267.96C165.781 267.891 165.667 267.847 165.547 267.832C165.427 267.817 165.305 267.83 165.192 267.872V267.96ZM127.016 310.4C127.122 310.455 127.24 310.483 127.36 310.483C127.48 310.483 127.598 310.455 127.704 310.4L132.424 307.68C132.624 307.56 132.64 307.384 132.464 307.28L127.952 304.672C127.845 304.621 127.727 304.594 127.608 304.594C127.489 304.594 127.372 304.621 127.264 304.672L122.544 307.4C122.344 307.512 122.328 307.696 122.504 307.792L127.016 310.4ZM110.008 299.744L105.288 302.464C105.08 302.584 105.064 302.76 105.248 302.864L109.76 305.472C109.868 305.523 109.985 305.55 110.104 305.55C110.223 305.55 110.341 305.523 110.448 305.472L115.168 302.744C115.368 302.632 115.384 302.448 115.168 302.352L110.648 299.744C110.549 299.695 110.44 299.668 110.329 299.667C110.218 299.666 110.108 299.689 110.008 299.736V299.744ZM118.752 307.744C118.86 307.795 118.977 307.822 119.096 307.822C119.215 307.822 119.333 307.795 119.44 307.744L124.16 305.016C124.36 304.904 124.376 304.728 124.2 304.624L119.68 302.016C119.575 301.961 119.458 301.933 119.34 301.933C119.222 301.933 119.105 301.961 119 302.016L114.28 304.736C114.08 304.856 114.056 305.032 114.28 305.136L118.752 307.744ZM137.784 312L142.504 309.272C142.704 309.16 142.728 308.984 142.544 308.88L138.032 306.272C137.926 306.217 137.808 306.189 137.688 306.189C137.568 306.189 137.45 306.217 137.344 306.272L132.624 308.992C132.424 309.112 132.408 309.288 132.584 309.392L137.104 312C137.21 312.05 137.327 312.076 137.444 312.076C137.562 312.076 137.678 312.05 137.784 312ZM130.2 316C130.308 316.051 130.425 316.078 130.544 316.078C130.663 316.078 130.781 316.051 130.888 316L135.608 313.272C135.808 313.16 135.824 312.984 135.648 312.88L131.136 310.272C131.03 310.217 130.912 310.189 130.792 310.189C130.672 310.189 130.554 310.217 130.448 310.272L125.728 312.992C125.528 313.112 125.512 313.288 125.728 313.392L130.2 316ZM116.904 295.744L112.184 298.464C111.984 298.584 111.968 298.76 112.184 298.864L116.696 301.472C116.804 301.523 116.921 301.55 117.04 301.55C117.159 301.55 117.277 301.523 117.384 301.472L122.104 298.744C122.304 298.632 122.32 298.456 122.104 298.352L117.6 295.728C117.491 295.676 117.37 295.65 117.249 295.655C117.128 295.659 117.01 295.692 116.904 295.752V295.744ZM151.4 275.824L146.68 278.552C146.472 278.672 146.456 278.848 146.632 278.952L151.152 281.552C151.26 281.603 151.377 281.63 151.496 281.63C151.615 281.63 151.733 281.603 151.84 281.552L156.56 278.824C156.76 278.704 156.776 278.528 156.6 278.424L152.08 275.824C151.974 275.772 151.857 275.745 151.739 275.747C151.621 275.748 151.505 275.777 151.4 275.832V275.824ZM123.8 291.76L119.08 294.488C118.88 294.6 118.864 294.776 119.08 294.88L123.6 297.488C123.706 297.538 123.823 297.564 123.94 297.564C124.058 297.564 124.174 297.538 124.28 297.488L129 294.76C129.2 294.648 129.224 294.472 129.04 294.368L124.528 291.76C124.416 291.7 124.29 291.669 124.163 291.67C124.036 291.672 123.911 291.705 123.8 291.768V291.76ZM158.296 271.848L153.576 274.568C153.376 274.688 153.36 274.864 153.536 274.968L158.048 277.576C158.156 277.627 158.273 277.654 158.392 277.654C158.511 277.654 158.629 277.627 158.736 277.576L163.456 274.848C163.656 274.736 163.672 274.552 163.496 274.456L158.984 271.848C158.877 271.795 158.759 271.767 158.639 271.769C158.519 271.77 158.402 271.8 158.296 271.856V271.848ZM144.496 279.808L139.776 282.536C139.576 282.648 139.56 282.832 139.736 282.928L144.256 285.536C144.361 285.591 144.478 285.619 144.596 285.619C144.714 285.619 144.831 285.591 144.936 285.536L149.656 282.816C149.856 282.696 149.88 282.52 149.696 282.416L145.184 279.808C145.076 279.758 144.958 279.733 144.839 279.734C144.72 279.736 144.603 279.764 144.496 279.816V279.808ZM137.6 283.808L132.88 286.536C132.68 286.648 132.664 286.824 132.88 286.928L137.392 289.536C137.498 289.591 137.616 289.619 137.736 289.619C137.856 289.619 137.974 289.591 138.08 289.536L142.8 286.816C143 286.696 143.016 286.52 142.84 286.416L138.328 283.808C138.216 283.749 138.092 283.718 137.965 283.716C137.838 283.715 137.713 283.744 137.6 283.8V283.808ZM130.704 287.808L125.984 290.536C125.776 290.648 125.76 290.824 125.936 290.928L130.456 293.536C130.562 293.591 130.68 293.619 130.8 293.619C130.92 293.619 131.038 293.591 131.144 293.536L135.864 290.808C136.064 290.696 136.08 290.52 135.864 290.416L131.344 287.808C131.245 287.76 131.137 287.733 131.027 287.729C130.916 287.725 130.807 287.744 130.704 287.784V287.808ZM162.2 290.48L166.92 287.752C167.12 287.64 167.136 287.464 166.92 287.36L162.4 284.752C162.294 284.702 162.178 284.676 162.06 284.676C161.943 284.676 161.826 284.702 161.72 284.752L157 287.48C156.792 287.592 156.776 287.768 156.96 287.872L161.472 290.48C161.586 290.538 161.712 290.566 161.839 290.562C161.967 290.558 162.091 290.521 162.2 290.456V290.48ZM226.552 232.464L221.832 235.192C221.632 235.304 221.616 235.488 221.792 235.584L226.312 238.192C226.418 238.247 226.536 238.275 226.656 238.275C226.776 238.275 226.894 238.247 227 238.192L231.72 235.472C231.92 235.352 231.936 235.176 231.76 235.072L227.24 232.464C227.134 232.409 227.018 232.378 226.899 232.374C226.78 232.37 226.661 232.393 226.552 232.44V232.464ZM218.208 237.264L213.488 239.992C213.28 240.104 213.264 240.28 213.44 240.384L217.96 242.992C218.066 243.047 218.184 243.075 218.304 243.075C218.424 243.075 218.542 243.047 218.648 242.992L223.368 240.264C223.568 240.152 223.584 239.976 223.408 239.872L218.888 237.264C218.782 237.214 218.666 237.188 218.548 237.188C218.431 237.188 218.314 237.214 218.208 237.264ZM233.456 228.464L228.736 231.192C228.536 231.312 228.512 231.488 228.696 231.592L233.208 234.192C233.316 234.243 233.433 234.27 233.552 234.27C233.671 234.27 233.789 234.243 233.896 234.192L238.616 231.464C238.816 231.344 238.832 231.168 238.656 231.064L234.136 228.456C234.03 228.406 233.914 228.38 233.796 228.38C233.679 228.38 233.562 228.406 233.456 228.456V228.464ZM195.32 263.888L200.04 261.168C200.24 261.048 200.264 260.872 200.04 260.768L195.528 258.16C195.421 258.109 195.303 258.082 195.184 258.082C195.065 258.082 194.948 258.109 194.84 258.16L190.12 260.888C189.92 261 189.904 261.176 190.12 261.28L194.64 263.888C194.746 263.942 194.863 263.969 194.981 263.967C195.099 263.966 195.216 263.936 195.32 263.88V263.888ZM241.04 224.464C240.934 224.409 240.816 224.381 240.696 224.381C240.576 224.381 240.458 224.409 240.352 224.464L235.632 227.184C235.432 227.304 235.416 227.48 235.592 227.584L240.104 230.192C240.212 230.243 240.329 230.27 240.448 230.27C240.567 230.27 240.685 230.243 240.792 230.192L245.512 227.464C245.712 227.352 245.736 227.168 245.552 227.072L241.04 224.464ZM169.096 286.48L173.816 283.76C174.016 283.64 174.032 283.464 173.816 283.36L169.304 280.752C169.197 280.701 169.079 280.674 168.96 280.674C168.841 280.674 168.724 280.701 168.616 280.752L163.896 283.48C163.696 283.592 163.68 283.768 163.896 283.872L168.408 286.48C168.515 286.534 168.633 286.561 168.753 286.559C168.873 286.558 168.99 286.528 169.096 286.472V286.48ZM253.696 237.68L258.416 234.952C258.616 234.84 258.632 234.656 258.456 234.56L253.944 231.952C253.838 231.897 253.72 231.869 253.6 231.869C253.48 231.869 253.362 231.897 253.256 231.952L248.536 234.672C248.336 234.792 248.312 234.968 248.496 235.072L253.008 237.68C253.121 237.719 253.242 237.732 253.361 237.718C253.48 237.705 253.595 237.664 253.696 237.6V237.68ZM240.344 237.936L245.064 235.208C245.264 235.096 245.288 234.92 245.104 234.816L240.592 232.208C240.485 232.157 240.367 232.13 240.248 232.13C240.129 232.13 240.012 232.157 239.904 232.208L235.184 234.936C234.984 235.048 234.968 235.224 235.144 235.328L239.664 237.936C239.773 237.984 239.892 238.004 240.01 237.996C240.128 237.987 240.243 237.95 240.344 237.888V237.936ZM247.488 228.224C247.381 228.173 247.263 228.146 247.144 228.146C247.025 228.146 246.908 228.173 246.8 228.224L242.08 230.952C241.88 231.064 241.864 231.24 242.04 231.344L246.56 233.952C246.666 234.007 246.784 234.035 246.904 234.035C247.024 234.035 247.142 234.007 247.248 233.952L252 231.2C252.2 231.08 252.216 230.904 252.04 230.8L247.488 228.224ZM248.944 227.384L259.912 233.72C260.018 233.77 260.135 233.796 260.252 233.796C260.37 233.796 260.486 233.77 260.592 233.72L265.312 230.992C265.512 230.88 265.536 230.704 265.352 230.6L254.4 224.192C254.294 224.142 254.178 224.116 254.06 224.116C253.943 224.116 253.826 224.142 253.72 224.192L249 226.92C248.8 227.056 248.8 227.24 248.944 227.336V227.384ZM233.008 236.184L228.288 238.912C228.088 239.024 228.064 239.2 228.248 239.304L232.76 241.912C232.868 241.963 232.985 241.99 233.104 241.99C233.223 241.99 233.341 241.963 233.448 241.912L238.168 239.184C238.368 239.072 238.384 238.896 238.208 238.792L233.696 236.184C233.591 236.127 233.474 236.096 233.354 236.093C233.234 236.09 233.116 236.116 233.008 236.168V236.184ZM181.088 266.16L176.368 268.888C176.168 269 176.144 269.176 176.328 269.28L180.84 271.888C180.946 271.943 181.064 271.971 181.184 271.971C181.304 271.971 181.422 271.943 181.528 271.888L186.248 269.16C186.448 269.048 186.464 268.872 186.288 268.768L181.768 266.16C181.664 266.103 181.548 266.072 181.43 266.069C181.312 266.066 181.194 266.092 181.088 266.144V266.16ZM246.112 241.656C246.22 241.707 246.337 241.734 246.456 241.734C246.575 241.734 246.693 241.707 246.8 241.656L251.52 238.928C251.72 238.816 251.736 238.632 251.56 238.536L247.04 235.928C246.935 235.873 246.818 235.845 246.7 235.845C246.582 235.845 246.465 235.873 246.36 235.928L241.64 238.648C241.432 238.768 241.416 238.944 241.592 239.048L246.112 241.656ZM188 262.16L183.28 264.888C183.08 265 183.064 265.176 183.24 265.28L187.752 267.888C187.858 267.943 187.976 267.971 188.096 267.971C188.216 267.971 188.334 267.943 188.44 267.888L193.16 265.168C193.36 265.048 193.376 264.872 193.16 264.768L188.648 262.16C188.546 262.115 188.436 262.092 188.324 262.092C188.212 262.092 188.102 262.115 188 262.16ZM133.92 306.4C134.025 306.454 134.142 306.481 134.26 306.481C134.378 306.481 134.495 306.454 134.6 306.4L139.32 303.672C139.52 303.552 139.544 303.376 139.32 303.272L134.808 300.672C134.701 300.621 134.583 300.594 134.464 300.594C134.345 300.594 134.228 300.621 134.12 300.672L129.4 303.4C129.2 303.52 129.184 303.696 129.36 303.8L133.92 306.4ZM125.92 298L121.2 300.728C121 300.84 120.984 301.016 121.16 301.12L125.672 303.728C125.78 303.779 125.897 303.806 126.016 303.806C126.135 303.806 126.253 303.779 126.36 303.728L131.08 301C131.28 300.888 131.296 300.712 131.12 300.608L126.608 298C126.498 297.942 126.375 297.913 126.251 297.914C126.127 297.916 126.005 297.948 125.896 298.008L125.92 298ZM141.528 302.4L146.248 299.672C146.448 299.56 146.464 299.376 146.288 299.28L141.768 296.672C141.663 296.617 141.546 296.589 141.428 296.589C141.31 296.589 141.193 296.617 141.088 296.672L136.368 299.392C136.168 299.512 136.144 299.688 136.328 299.792L140.8 302.4C140.91 302.454 141.03 302.482 141.152 302.482C141.274 302.482 141.395 302.454 141.504 302.4H141.528ZM148.424 298.4L153.144 295.672C153.344 295.56 153.36 295.384 153.144 295.28L148.632 292.672C148.526 292.617 148.408 292.589 148.288 292.589C148.168 292.589 148.05 292.617 147.944 292.672L143.224 295.392C143.024 295.512 143.008 295.688 143.184 295.792L147.696 298.4C147.806 298.454 147.926 298.482 148.048 298.482C148.17 298.482 148.291 298.454 148.4 298.4H148.424ZM155.32 294.4L160.04 291.672C160.24 291.56 160.264 291.384 160.04 291.28L155.528 288.672C155.422 288.617 155.304 288.589 155.184 288.589C155.064 288.589 154.946 288.617 154.84 288.672L150.12 291.392C149.92 291.512 149.904 291.688 150.12 291.792L154.64 294.4C154.74 294.453 154.851 294.484 154.964 294.491C155.077 294.497 155.19 294.48 155.296 294.44L155.32 294.4ZM132.8 294.024L128.08 296.752C127.88 296.864 127.864 297.04 128.04 297.144L132.56 299.752C132.665 299.807 132.782 299.835 132.9 299.835C133.018 299.835 133.135 299.807 133.24 299.752L137.96 297.024C138.16 296.912 138.184 296.736 138 296.632L133.488 294.024C133.381 293.973 133.263 293.946 133.144 293.946C133.025 293.946 132.908 293.973 132.8 294.024ZM139.704 290.024L134.984 292.752C134.784 292.864 134.76 293.04 134.944 293.144L139.456 295.752C139.562 295.807 139.68 295.835 139.8 295.835C139.92 295.835 140.038 295.807 140.144 295.752L144.864 293.032C145.064 292.912 145.08 292.736 144.904 292.632L140.384 290.024C140.275 289.975 140.157 289.952 140.038 289.954C139.919 289.957 139.802 289.986 139.696 290.04L139.704 290.024ZM167.296 274.096L162.576 276.816C162.376 276.936 162.36 277.112 162.536 277.216L167.048 279.824C167.156 279.875 167.273 279.902 167.392 279.902C167.511 279.902 167.629 279.875 167.736 279.824L172.456 277.096C172.656 276.984 172.672 276.8 172.496 276.704L168 274.088C167.889 274.033 167.765 274.006 167.641 274.01C167.517 274.015 167.396 274.05 167.288 274.112L167.296 274.096ZM160.4 278.096L155.68 280.816C155.48 280.936 155.456 281.112 155.64 281.216L160.152 283.824C160.26 283.875 160.377 283.902 160.496 283.902C160.615 283.902 160.733 283.875 160.84 283.824L165.56 281.096C165.76 280.984 165.776 280.8 165.6 280.704L161.08 278.096C160.974 278.04 160.856 278.011 160.736 278.011C160.616 278.011 160.498 278.04 160.392 278.096H160.4ZM174.192 270.096L169.472 272.816C169.272 272.936 169.256 273.112 169.432 273.216L173.952 275.824C174.058 275.874 174.175 275.9 174.292 275.9C174.41 275.9 174.526 275.874 174.632 275.824L179.352 273.096C179.552 272.984 179.576 272.808 179.352 272.704L174.84 270.096C174.735 270.051 174.622 270.031 174.508 270.037C174.395 270.042 174.284 270.073 174.184 270.128L174.192 270.096ZM146.6 286.024L141.88 288.752C141.68 288.864 141.664 289.048 141.84 289.144L146.352 291.752C146.458 291.807 146.576 291.835 146.696 291.835C146.816 291.835 146.934 291.807 147.04 291.752L151.76 289.032C151.96 288.912 151.976 288.736 151.8 288.632L147.288 286.024C147.177 285.977 147.057 285.955 146.936 285.96C146.816 285.966 146.698 285.999 146.592 286.056L146.6 286.024ZM153.496 282.024L148.8 284.8C148.6 284.92 148.584 285.096 148.76 285.2L153.28 287.8C153.385 287.854 153.502 287.881 153.62 287.881C153.738 287.881 153.855 287.854 153.96 287.8L158.68 285.072C158.88 284.952 158.904 284.776 158.72 284.672L154.208 282.072C154.096 282.016 153.973 281.987 153.848 281.987C153.723 281.987 153.6 282.016 153.488 282.072L153.496 282.024ZM144.696 307.968L149.416 305.24C149.616 305.128 149.632 304.952 149.456 304.848L144.936 302.24C144.831 302.185 144.714 302.157 144.596 302.157C144.478 302.157 144.361 302.185 144.256 302.24L139.536 304.968C139.328 305.08 139.312 305.256 139.488 305.36L144.008 307.968C144.111 308.027 144.226 308.06 144.344 308.065C144.462 308.071 144.58 308.049 144.688 308L144.696 307.968ZM108.312 306.248L103.8 303.648C103.693 303.597 103.575 303.57 103.456 303.57C103.337 303.57 103.22 303.597 103.112 303.648L98.3921 306.376C98.1921 306.496 98.1761 306.672 98.3921 306.776L102.912 309.384C103.018 309.434 103.135 309.46 103.252 309.46C103.37 309.46 103.486 309.434 103.592 309.384L108.312 306.656C108.464 306.576 108.488 306.4 108.304 306.296L108.312 306.248ZM117.304 308.512L112.8 305.952C112.694 305.897 112.576 305.869 112.456 305.869C112.336 305.869 112.218 305.897 112.112 305.952L104.856 310.144C104.656 310.256 104.632 310.432 104.816 310.536L109.328 313.144C109.434 313.199 109.552 313.227 109.672 313.227C109.792 313.227 109.91 313.199 110.016 313.144L117.272 308.952C117.456 308.84 117.48 308.656 117.296 308.56L117.304 308.512ZM101.6 301.152L97.0801 298.544C96.9751 298.489 96.8585 298.461 96.7401 298.461C96.6217 298.461 96.5051 298.489 96.4001 298.544L90.5921 301.896C90.3921 302.016 90.3681 302.192 90.5441 302.296L95.0641 304.896C95.1715 304.947 95.2891 304.974 95.4081 304.974C95.5271 304.974 95.6446 304.947 95.7521 304.896L101.56 301.536C101.728 301.432 101.744 301.256 101.6 301.152ZM106.056 298.576C106.161 298.631 106.278 298.659 106.396 298.659C106.514 298.659 106.631 298.631 106.736 298.576L111.456 295.856C111.656 295.736 111.68 295.56 111.496 295.456L106.952 292.8C106.845 292.749 106.727 292.722 106.608 292.722C106.489 292.722 106.372 292.749 106.264 292.8L101.544 295.528C101.344 295.64 101.328 295.824 101.504 295.92L106.056 298.576ZM125.6 311.2L121.08 308.592C120.974 308.542 120.858 308.516 120.74 308.516C120.623 308.516 120.506 308.542 120.4 308.592L111.32 313.832C111.12 313.952 111.104 314.128 111.28 314.232L115.792 316.84C115.9 316.891 116.017 316.918 116.136 316.918C116.255 316.918 116.373 316.891 116.48 316.84L125.56 311.6C125.728 311.512 125.744 311.336 125.6 311.2ZM128.8 316.8L124.28 314.192C124.175 314.137 124.058 314.109 123.94 314.109C123.822 314.109 123.705 314.137 123.6 314.192L117.736 317.6C117.536 317.712 117.52 317.888 117.736 317.992L122.256 320.6C122.361 320.655 122.478 320.683 122.596 320.683C122.714 320.683 122.831 320.655 122.936 320.6L128.752 317.248C128.912 317.128 128.928 316.944 128.752 316.848L128.8 316.8ZM157.36 268.92C157.468 268.971 157.585 268.998 157.704 268.998C157.823 268.998 157.941 268.971 158.048 268.92L162.768 266.192C162.968 266.08 162.984 265.904 162.768 265.8L158.24 263.2C158.135 263.145 158.018 263.117 157.9 263.117C157.782 263.117 157.665 263.145 157.56 263.2L152.84 265.92C152.64 266.04 152.616 266.216 152.8 266.32L157.36 268.92ZM143.56 276.92C143.668 276.971 143.785 276.998 143.904 276.998C144.023 276.998 144.141 276.971 144.248 276.92L148.968 274.192C149.168 274.072 149.192 273.896 148.968 273.792L144.448 271.2C144.341 271.149 144.223 271.122 144.104 271.122C143.985 271.122 143.868 271.149 143.76 271.2L139.04 273.928C138.84 274.048 138.824 274.224 139 274.328L143.56 276.92ZM112.968 294.584C113.076 294.635 113.193 294.662 113.312 294.662C113.431 294.662 113.549 294.635 113.656 294.584L118.376 291.856C118.576 291.736 118.592 291.56 118.416 291.456L113.896 288.856C113.791 288.801 113.674 288.773 113.556 288.773C113.438 288.773 113.321 288.801 113.216 288.856L108.496 291.576C108.296 291.696 108.272 291.872 108.448 291.976L112.968 294.584ZM150.4 272.952C150.508 273.003 150.625 273.03 150.744 273.03C150.863 273.03 150.981 273.003 151.088 272.952L155.808 270.224C156.008 270.112 156.024 269.928 155.848 269.832L151.344 267.2C151.238 267.145 151.12 267.117 151 267.117C150.88 267.117 150.762 267.145 150.656 267.2L145.936 269.92C145.736 270.04 145.72 270.216 145.936 270.32L150.4 272.952ZM136.6 280.912C136.706 280.967 136.824 280.995 136.944 280.995C137.064 280.995 137.182 280.967 137.288 280.912L142.008 278.192C142.208 278.072 142.224 277.896 142.048 277.792L137.544 275.2C137.438 275.15 137.322 275.124 137.204 275.124C137.087 275.124 136.97 275.15 136.864 275.2L132.144 277.928C131.944 278.04 131.92 278.224 132.104 278.32L136.6 280.912ZM132.12 317.12C132.013 317.069 131.895 317.042 131.776 317.042C131.657 317.042 131.54 317.069 131.432 317.12L124.176 321.312C123.976 321.432 123.952 321.608 124.136 321.712L128.648 324.32C128.756 324.371 128.873 324.398 128.992 324.398C129.111 324.398 129.229 324.371 129.336 324.32L136.6 320.128C136.8 320.008 136.816 319.832 136.6 319.728L132.12 317.12ZM126.704 286.632C126.81 286.682 126.927 286.708 127.044 286.708C127.162 286.708 127.278 286.682 127.384 286.632L132.104 283.904C132.304 283.792 132.328 283.616 132.104 283.512L127.592 280.904C127.486 280.849 127.368 280.821 127.248 280.821C127.128 280.821 127.01 280.849 126.904 280.904L122.184 283.624C121.984 283.744 121.968 283.92 122.144 284.024L126.704 286.632ZM119.8 290.632C119.908 290.683 120.025 290.71 120.144 290.71C120.263 290.71 120.381 290.683 120.488 290.632L125.208 287.904C125.408 287.792 125.424 287.608 125.248 287.512L120.736 284.904C120.63 284.849 120.512 284.821 120.392 284.821C120.272 284.821 120.154 284.849 120.048 284.904L115.328 287.624C115.128 287.744 115.112 287.92 115.288 288.024L119.8 290.632ZM259.928 243.352C259.822 243.297 259.704 243.269 259.584 243.269C259.464 243.269 259.346 243.297 259.24 243.352L247.624 250.056C247.424 250.176 247.408 250.352 247.584 250.456L252.096 253.064C252.204 253.115 252.321 253.142 252.44 253.142C252.559 253.142 252.677 253.115 252.784 253.064L264.4 246.352C264.6 246.24 264.624 246.064 264.44 245.96L259.928 243.352ZM244.68 252.152C244.573 252.101 244.455 252.074 244.336 252.074C244.217 252.074 244.1 252.101 243.992 252.152L239.272 254.88C239.072 254.992 239.056 255.176 239.232 255.272L243.744 257.88C243.85 257.935 243.968 257.963 244.088 257.963C244.208 257.963 244.326 257.935 244.432 257.88L249.152 255.16C249.352 255.04 249.368 254.864 249.192 254.76L244.68 252.152ZM151.584 304L156.304 301.28C156.504 301.16 156.52 300.984 156.344 300.88L151.832 298.272C151.725 298.221 151.607 298.194 151.488 298.194C151.369 298.194 151.252 298.221 151.144 298.272L146.424 301C146.224 301.112 146.208 301.288 146.384 301.392L150.896 304C151.002 304.055 151.12 304.083 151.24 304.083C151.36 304.083 151.478 304.055 151.584 304ZM230.896 260.072C230.789 260.021 230.671 259.994 230.552 259.994C230.433 259.994 230.316 260.021 230.208 260.072L225.488 262.8C225.288 262.912 225.272 263.088 225.448 263.192L229.968 265.8C230.073 265.855 230.19 265.883 230.308 265.883C230.426 265.883 230.543 265.855 230.648 265.8L235.368 263.072C235.576 262.96 235.592 262.784 235.416 262.68L230.896 260.072ZM266.84 239.32C266.735 239.265 266.618 239.237 266.5 239.237C266.382 239.237 266.265 239.265 266.16 239.32L261.44 242.04C261.24 242.16 261.216 242.336 261.4 242.44L265.912 245.048C266.02 245.099 266.137 245.126 266.256 245.126C266.375 245.126 266.493 245.099 266.6 245.048L271.32 242.32C271.52 242.208 271.536 242.032 271.36 241.928L266.84 239.32ZM278.256 237.944L267.288 231.608C267.182 231.558 267.066 231.532 266.948 231.532C266.831 231.532 266.714 231.558 266.608 231.608L261.888 234.336C261.68 234.456 261.664 234.632 261.84 234.728L272.8 241.12C272.906 241.175 273.024 241.203 273.144 241.203C273.264 241.203 273.382 241.175 273.488 241.12L278.208 238.392C278.4 238.256 278.4 238.08 278.256 237.976V237.944ZM205.12 274.984C205.013 274.933 204.895 274.906 204.776 274.906C204.657 274.906 204.54 274.933 204.432 274.984L198.624 278.344C198.424 278.456 198.4 278.632 198.584 278.736L203.096 281.344C203.202 281.399 203.32 281.427 203.44 281.427C203.56 281.427 203.678 281.399 203.784 281.344L209.592 277.992C209.792 277.872 209.808 277.696 209.632 277.592L205.12 274.984ZM222.544 264.928C222.439 264.873 222.322 264.845 222.204 264.845C222.086 264.845 221.969 264.873 221.864 264.928L214.6 269.12C214.4 269.232 214.384 269.408 214.56 269.512L219.072 272.12C219.178 272.175 219.296 272.203 219.416 272.203C219.536 272.203 219.654 272.175 219.76 272.12L227.024 267.928C227.224 267.816 227.24 267.64 227.064 267.536L222.544 264.928ZM189.144 284.208C189.037 284.157 188.919 284.13 188.8 284.13C188.681 284.13 188.564 284.157 188.456 284.208L149.608 306.608C149.408 306.728 149.384 306.904 149.608 307.008L154.12 309.616C154.228 309.667 154.345 309.694 154.464 309.694C154.583 309.694 154.701 309.667 154.808 309.616L193.6 287.2C193.8 287.08 193.816 286.904 193.6 286.8L189.144 284.208ZM148.112 307.896C148.005 307.845 147.887 307.818 147.768 307.818C147.649 307.818 147.532 307.845 147.424 307.896L141.6 311.28C141.4 311.392 141.384 311.568 141.56 311.672L146.08 314.28C146.185 314.335 146.302 314.363 146.42 314.363C146.538 314.363 146.655 314.335 146.76 314.28L152.576 310.928C152.776 310.808 152.792 310.632 152.576 310.528L148.112 307.896ZM197.128 279.6C197.023 279.545 196.906 279.517 196.788 279.517C196.67 279.517 196.553 279.545 196.448 279.6L190.632 282.952C190.432 283.072 190.416 283.248 190.632 283.352L195.152 285.952C195.257 286.006 195.374 286.033 195.492 286.033C195.61 286.033 195.727 286.006 195.832 285.952L201.648 282.592C201.848 282.48 201.864 282.304 201.688 282.2L197.128 279.6ZM140.128 312.512C140.022 312.457 139.904 312.429 139.784 312.429C139.664 312.429 139.546 312.457 139.44 312.512L133.6 315.888C133.4 316.008 133.376 316.184 133.6 316.288L138.112 318.888C138.22 318.939 138.337 318.966 138.456 318.966C138.575 318.966 138.693 318.939 138.8 318.888L144.608 315.528C144.808 315.416 144.824 315.24 144.648 315.136L140.128 312.512ZM213.104 270.4C212.998 270.345 212.88 270.317 212.76 270.317C212.64 270.317 212.522 270.345 212.416 270.4L206.608 273.752C206.408 273.872 206.392 274.048 206.568 274.152L211.088 276.76C211.194 276.81 211.311 276.836 211.428 276.836C211.546 276.836 211.662 276.81 211.768 276.76L217.584 273.4C217.784 273.288 217.8 273.112 217.584 273.008L213.104 270.4ZM237.792 256.144C237.686 256.094 237.57 256.068 237.452 256.068C237.335 256.068 237.218 256.094 237.112 256.144L232.392 258.872C232.192 258.984 232.168 259.16 232.352 259.264L236.864 261.872C236.97 261.927 237.088 261.955 237.208 261.955C237.328 261.955 237.446 261.927 237.552 261.872L242.272 259.152C242.472 259.032 242.488 258.856 242.312 258.752L237.792 256.144ZM253.248 245.36L257.968 242.64C258.168 242.52 258.184 242.344 258.008 242.24L253.496 239.632C253.389 239.581 253.271 239.554 253.152 239.554C253.033 239.554 252.916 239.581 252.808 239.632L248.088 242.36C247.888 242.472 247.872 242.648 248.048 242.752L252.56 245.36C252.668 245.411 252.787 245.436 252.907 245.431C253.027 245.427 253.144 245.395 253.248 245.336V245.36ZM225.096 246.72L229.816 243.992C230.016 243.88 230.032 243.696 229.856 243.592L225.344 240.992C225.238 240.937 225.12 240.909 225 240.909C224.88 240.909 224.762 240.937 224.656 240.992L219.936 243.712C219.736 243.832 219.72 244.008 219.896 244.112L224.408 246.72C224.517 246.768 224.636 246.79 224.755 246.786C224.874 246.782 224.99 246.751 225.096 246.696V246.72ZM206.776 272.192L220.568 264.232C220.768 264.112 220.792 263.936 220.608 263.832L216.096 261.224C215.989 261.173 215.871 261.146 215.752 261.146C215.633 261.146 215.516 261.173 215.408 261.224L201.608 269.224C201.408 269.336 201.392 269.512 201.608 269.616L206.128 272.224C206.233 272.264 206.346 272.279 206.458 272.27C206.571 272.26 206.679 272.225 206.776 272.168V272.192ZM245.664 249.368C245.77 249.423 245.888 249.451 246.008 249.451C246.128 249.451 246.246 249.423 246.352 249.368L251.072 246.64C251.272 246.528 251.288 246.352 251.112 246.248L246.592 243.64C246.486 243.59 246.37 243.564 246.252 243.564C246.135 243.564 246.018 243.59 245.912 243.64L241.192 246.368C240.984 246.48 240.968 246.656 241.144 246.76L245.664 249.368ZM239.896 245.6L244.616 242.872C244.816 242.752 244.84 242.576 244.656 242.472L240.144 239.872C240.037 239.821 239.919 239.794 239.8 239.794C239.681 239.794 239.564 239.821 239.456 239.872L234.736 242.6C234.536 242.72 234.52 242.896 234.696 243L239.2 245.6C239.307 245.656 239.427 245.685 239.548 245.685C239.669 245.685 239.789 245.656 239.896 245.6ZM199.896 276.152L204.616 273.424C204.816 273.312 204.84 273.136 204.616 273.032L200.12 270.4C200.013 270.349 199.895 270.322 199.776 270.322C199.657 270.322 199.54 270.349 199.432 270.4L194.712 273.128C194.512 273.24 194.496 273.416 194.712 273.52L199.232 276.128C199.33 276.18 199.439 276.209 199.549 276.213C199.66 276.217 199.77 276.197 199.872 276.152H199.896ZM230.4 258.152C230.506 258.202 230.623 258.228 230.74 258.228C230.858 258.228 230.974 258.202 231.08 258.152L235.8 255.424C236.008 255.312 236.024 255.128 235.848 255.032L231.328 252.424C231.222 252.369 231.104 252.341 230.984 252.341C230.864 252.341 230.746 252.369 230.64 252.424L225.92 255.144C225.72 255.264 225.704 255.44 225.88 255.544L230.4 258.152ZM165.368 296.064L170.088 293.344C170.288 293.224 170.304 293.048 170.128 292.944L165.6 290.336C165.494 290.286 165.378 290.26 165.26 290.26C165.143 290.26 165.026 290.286 164.92 290.336L160.2 293.064C159.992 293.184 159.976 293.36 160.152 293.456L164.672 296.064C164.782 296.123 164.904 296.154 165.028 296.154C165.152 296.154 165.275 296.123 165.384 296.064H165.368ZM172.264 292.064L176.984 289.336C177.184 289.216 177.2 289.04 177.024 288.936L172.528 286.4C172.422 286.345 172.304 286.317 172.184 286.317C172.064 286.317 171.946 286.345 171.84 286.4L167.12 289.12C166.92 289.24 166.904 289.416 167.08 289.52L171.592 292.128C171.702 292.173 171.822 292.193 171.941 292.186C172.06 292.179 172.176 292.146 172.28 292.088L172.264 292.064ZM158.464 300.024L163.184 297.304C163.384 297.184 163.408 297.008 163.224 296.904L158.712 294.296C158.605 294.245 158.487 294.218 158.368 294.218C158.249 294.218 158.132 294.245 158.024 294.296L153.304 297.024C153.104 297.136 153.088 297.32 153.264 297.416L157.784 300.024C157.889 300.085 158.008 300.119 158.129 300.124C158.251 300.128 158.371 300.102 158.48 300.048L158.464 300.024ZM186.064 284.096L190.784 281.368C190.984 281.256 191 281.08 190.824 280.976L186.32 278.4C186.214 278.345 186.096 278.317 185.976 278.317C185.856 278.317 185.738 278.345 185.632 278.4L180.912 281.12C180.712 281.24 180.696 281.416 180.912 281.52L185.432 284.128C185.535 284.172 185.645 284.194 185.757 284.193C185.869 284.191 185.979 284.167 186.08 284.12L186.064 284.096ZM179.16 288.096L183.88 285.368C184.08 285.256 184.104 285.072 183.88 284.976L179.424 282.4C179.318 282.345 179.2 282.317 179.08 282.317C178.96 282.317 178.842 282.345 178.736 282.4L174.016 285.12C173.816 285.24 173.8 285.416 173.976 285.52L178.496 288.128C178.607 288.178 178.729 288.202 178.851 288.198C178.973 288.194 179.092 288.162 179.2 288.104L179.16 288.096ZM192.96 280.096L197.68 277.368C197.88 277.256 197.896 277.08 197.68 276.976L193.224 274.4C193.118 274.345 193 274.317 192.88 274.317C192.76 274.317 192.642 274.345 192.536 274.4L187.816 277.128C187.616 277.24 187.592 277.416 187.776 277.52L192.288 280.128C192.395 280.181 192.512 280.208 192.631 280.21C192.75 280.211 192.868 280.186 192.976 280.136L192.96 280.096ZM230.608 224.688C230.713 224.743 230.83 224.771 230.948 224.771C231.066 224.771 231.183 224.743 231.288 224.688L236.008 221.96C236.208 221.848 236.232 221.672 236.048 221.568L234.848 220.872C234.741 220.821 234.623 220.794 234.504 220.794C234.385 220.794 234.268 220.821 234.16 220.872L229.44 223.6C229.24 223.712 229.224 223.888 229.4 223.992L230.608 224.688ZM196.32 246.4C196.426 246.45 196.543 246.476 196.66 246.476C196.778 246.476 196.894 246.45 197 246.4L201.72 243.672C201.92 243.56 201.944 243.376 201.76 243.28L197.248 240.672C197.142 240.617 197.024 240.589 196.904 240.589C196.784 240.589 196.666 240.617 196.56 240.672L191.84 243.392C191.64 243.512 191.624 243.688 191.84 243.792L196.32 246.4ZM210.112 238.4C210.22 238.451 210.337 238.478 210.456 238.478C210.575 238.478 210.693 238.451 210.8 238.4L215.52 235.672C215.72 235.56 215.736 235.384 215.56 235.28L211.048 232.672C210.942 232.617 210.824 232.589 210.704 232.589C210.584 232.589 210.466 232.617 210.36 232.672L205.64 235.4C205.44 235.512 205.424 235.688 205.6 235.792L210.112 238.4ZM187.896 251.2C188.002 251.25 188.119 251.276 188.236 251.276C188.354 251.276 188.47 251.25 188.576 251.2L193.296 248.472C193.496 248.36 193.52 248.176 193.336 248.08L188.824 245.472C188.718 245.417 188.6 245.389 188.48 245.389C188.36 245.389 188.242 245.417 188.136 245.472L183.416 248.192C183.216 248.312 183.2 248.488 183.416 248.592L187.896 251.2ZM203.2 242.456C203.308 242.507 203.425 242.534 203.544 242.534C203.663 242.534 203.781 242.507 203.888 242.456L208.608 239.728C208.808 239.616 208.824 239.44 208.648 239.336L204.128 236.728C204.023 236.673 203.906 236.645 203.788 236.645C203.67 236.645 203.553 236.673 203.448 236.728L198.728 239.448C198.52 239.568 198.504 239.744 198.68 239.848L203.2 242.456ZM174.08 259.256C174.186 259.311 174.304 259.339 174.424 259.339C174.544 259.339 174.662 259.311 174.768 259.256L179.488 256.536C179.688 256.416 179.704 256.24 179.488 256.136L174.968 253.528C174.862 253.478 174.746 253.452 174.628 253.452C174.511 253.452 174.394 253.478 174.288 253.528L169.568 256.256C169.36 256.376 169.344 256.552 169.528 256.648L174.08 259.256ZM180.976 255.256C181.084 255.307 181.201 255.334 181.32 255.334C181.439 255.334 181.557 255.307 181.664 255.256L186.384 252.528C186.584 252.408 186.6 252.232 186.384 252.128L181.872 249.528C181.765 249.477 181.647 249.45 181.528 249.45C181.409 249.45 181.292 249.477 181.184 249.528L176.464 252.256C176.264 252.376 176.248 252.552 176.464 252.656L180.976 255.256ZM216.8 232.696C216.908 232.747 217.025 232.774 217.144 232.774C217.263 232.774 217.381 232.747 217.488 232.696L222.208 229.968C222.408 229.856 222.424 229.68 222.208 229.576L221.008 228.88C220.902 228.825 220.784 228.797 220.664 228.797C220.544 228.797 220.426 228.825 220.32 228.88L215.6 231.608C215.4 231.72 215.376 231.896 215.56 232L216.8 232.696ZM237.496 220.744C237.602 220.799 237.72 220.827 237.84 220.827C237.96 220.827 238.078 220.799 238.184 220.744L242.904 218.024C243.104 217.904 243.12 217.728 242.904 217.624L241.704 216.928C241.597 216.877 241.479 216.85 241.36 216.85C241.241 216.85 241.124 216.877 241.016 216.928L236.296 219.656C236.096 219.768 236.072 219.952 236.256 220.048L237.496 220.744ZM246.984 226.224C247.09 226.274 247.207 226.3 247.324 226.3C247.442 226.3 247.558 226.274 247.664 226.224L252.384 223.496C252.592 223.384 252.608 223.208 252.432 223.104L247.912 220.496C247.806 220.441 247.688 220.413 247.568 220.413C247.448 220.413 247.33 220.441 247.224 220.496L242.504 223.216C242.304 223.336 242.288 223.512 242.464 223.616L246.984 226.224ZM260.12 241.352L264.84 238.632C265.04 238.512 265.064 238.336 264.88 238.232L260.368 235.624C260.261 235.573 260.143 235.546 260.024 235.546C259.905 235.546 259.788 235.573 259.68 235.624L254.96 238.352C254.76 238.464 254.744 238.648 254.92 238.744L259.44 241.352C259.548 241.411 259.669 241.442 259.792 241.442C259.915 241.442 260.036 241.411 260.144 241.352H260.12ZM223.696 228.712C223.804 228.763 223.921 228.79 224.04 228.79C224.159 228.79 224.277 228.763 224.384 228.712L229.104 225.984C229.304 225.872 229.32 225.696 229.104 225.592L227.904 224.896C227.798 224.841 227.68 224.813 227.56 224.813C227.44 224.813 227.322 224.841 227.216 224.896L222.496 227.624C222.296 227.736 222.28 227.912 222.456 228.016L223.696 228.712ZM167.2 263.248C167.305 263.303 167.422 263.331 167.54 263.331C167.658 263.331 167.775 263.303 167.88 263.248L172.6 260.528C172.8 260.408 172.824 260.232 172.6 260.128L168.088 257.52C167.981 257.469 167.863 257.442 167.744 257.442C167.625 257.442 167.508 257.469 167.4 257.52L162.68 260.248C162.48 260.36 162.464 260.536 162.68 260.64L167.2 263.248Z" fill="#2C3E50"/>
<path opacity="0.4" d="M187.632 298.832L188.6 299.384L214.304 314.224L260.016 287.832L260.968 287.288L234.296 271.896L187.632 298.832Z" fill="#2C3E50"/>
<path d="M188.6 299.384L214.304 314.224L260.016 287.832L234.296 272.992L188.6 299.384Z" fill="#7CB333"/>
<path opacity="0.45" d="M188.6 299.384L214.304 314.224L260.016 287.832L234.296 272.992L188.6 299.384Z" fill="#2C3E50"/>
<path d="M55.8081 294.016C56.219 294.254 56.6568 294.442 57.1121 294.576C56.6574 294.447 56.2196 294.264 55.8081 294.032C55.67 293.952 55.5364 293.863 55.4081 293.768C55.5366 293.858 55.6702 293.941 55.8081 294.016Z" fill="#7CB333"/>
<path d="M63.2001 294.4C63.2001 294.4 63.2001 294.4 63.2721 294.336L63.2161 294.384L63.2001 294.4Z" fill="#7CB333"/>
<path d="M358.08 19.648L256.48 78.312C256 78.623 255.601 79.0432 255.314 79.5382C255.028 80.0332 254.863 80.589 254.832 81.16V194.92C254.864 195.49 255.031 196.043 255.319 196.536C255.607 197.028 256.007 197.445 256.488 197.752L259.488 199.448C260.002 199.703 260.567 199.835 261.14 199.835C261.713 199.835 262.279 199.703 262.792 199.448L364.392 140.784C364.87 140.472 365.268 140.051 365.553 139.556C365.838 139.061 366.002 138.506 366.032 137.936V24.16C366.002 23.5911 365.836 23.0376 365.55 22.5452C365.263 22.0528 364.864 21.6356 364.384 21.328L361.376 19.632C360.863 19.3801 360.298 19.2504 359.726 19.2532C359.154 19.256 358.591 19.3911 358.08 19.648Z" fill="#F2F1F3"/>
<path d="M261.144 198.48V84.7201C261.175 84.1491 261.341 83.5936 261.627 83.0987C261.913 82.6038 262.313 82.1835 262.792 81.8721L364.392 23.2001C365.296 22.6801 366.032 23.1041 366.032 24.1521V137.92C366.002 138.49 365.838 139.045 365.553 139.54C365.268 140.035 364.87 140.456 364.392 140.768L262.792 199.432C261.88 199.952 261.144 199.528 261.144 198.48Z" fill="#2C3E50"/>
<path d="M262.792 199.432C262.277 199.681 261.712 199.81 261.14 199.81C260.568 199.81 260.003 199.681 259.488 199.432L256.488 197.728C256.006 197.424 255.604 197.009 255.316 196.518C255.028 196.026 254.862 195.473 254.832 194.904V81.16C254.856 80.563 255.038 79.9831 255.36 79.48L261.632 83.104C261.333 83.5859 261.165 84.1373 261.144 84.704V198.48C261.144 199.44 261.824 200 262.792 199.432Z" fill="#2C3E50"/>
<path d="M366.016 23.8641C365.888 23.0641 365.216 22.7361 364.416 23.2081L262.816 81.8721C262.329 82.1757 261.93 82.6001 261.656 83.1041L255.376 79.4801C255.645 79.0003 256.034 78.598 256.504 78.3121L358.104 19.6481C358.615 19.3894 359.179 19.2546 359.752 19.2546C360.325 19.2546 360.889 19.3894 361.4 19.6481L364.4 21.3441C364.832 21.626 365.2 21.9963 365.478 22.4307C365.757 22.8651 365.94 23.3537 366.016 23.8641Z" fill="#6A9626"/>
<path d="M242.456 149.184C241.424 148.568 236.632 145.84 236.384 145.696C236.19 145.578 236.025 145.419 235.901 145.23C235.776 145.041 235.695 144.826 235.664 144.602C235.633 144.377 235.652 144.149 235.719 143.933C235.787 143.717 235.902 143.518 236.056 143.352L254.976 123.056L261.144 126.6L242.232 146.896C242.083 147.055 241.97 147.243 241.9 147.449C241.829 147.655 241.804 147.874 241.825 148.091C241.846 148.307 241.914 148.517 242.022 148.705C242.131 148.894 242.279 149.057 242.456 149.184Z" fill="#F2F1F3"/>
<path d="M242.456 149.184C241.424 148.568 236.632 145.84 236.384 145.696C236.19 145.578 236.025 145.419 235.901 145.23C235.776 145.041 235.695 144.826 235.664 144.602C235.633 144.377 235.652 144.149 235.719 143.933C235.787 143.717 235.902 143.518 236.056 143.352L254.976 123.056L261.144 126.6L242.232 146.896C242.083 147.055 241.97 147.243 241.9 147.449C241.829 147.655 241.804 147.874 241.825 148.091C241.846 148.307 241.914 148.517 242.022 148.705C242.131 148.894 242.279 149.057 242.456 149.184Z" fill="#6A9626"/>
<path d="M261.144 126.6L242.232 146.896C242.023 147.12 241.887 147.402 241.841 147.705C241.795 148.008 241.842 148.318 241.975 148.594C242.108 148.87 242.321 149.099 242.587 149.251C242.853 149.404 243.159 149.472 243.464 149.448L261.144 147.992V126.6Z" fill="#F2F1F3"/>
<path d="M261.144 126.6L242.232 146.896C242.023 147.12 241.887 147.402 241.841 147.705C241.795 148.008 241.842 148.318 241.975 148.594C242.108 148.87 242.321 149.099 242.587 149.251C242.853 149.404 243.159 149.472 243.464 149.448L261.144 147.992V126.6Z" fill="#2C3E50"/>
<path d="M319.104 117.4C317.656 116.528 315.632 116.6 313.392 117.928C308.96 120.488 305.392 126.728 305.392 131.832C305.392 134.376 306.28 136.16 307.72 137.008C308.664 137.56 312.264 139.624 313.192 140.208C314.648 141.064 316.656 140.952 318.888 139.664C323.32 137.104 326.888 130.864 326.888 125.76C326.888 123.232 326 121.44 324.568 120.6C323.624 120 320 117.944 319.104 117.4Z" fill="#EAECEF"/>
<path d="M321.744 137.336L305.912 128.192C305.567 129.375 305.384 130.6 305.368 131.832C305.368 134.376 306.256 136.16 307.696 137.008C308.64 137.56 312.24 139.624 313.168 140.208C314.624 141.064 316.632 140.952 318.864 139.664C319.925 139.022 320.894 138.239 321.744 137.336Z" fill="white"/>
<path d="M318.856 121.088C314.424 123.648 310.856 129.888 310.856 134.992C310.856 140.096 314.456 142.192 318.856 139.624C323.256 137.056 326.856 130.824 326.856 125.72C326.856 120.616 323.288 118.528 318.856 121.088Z" fill="#F2F1F3"/>
<path d="M318.856 124.368C317.347 125.354 316.092 126.68 315.192 128.241C314.291 129.802 313.77 131.553 313.672 133.352C313.672 136.656 316 138 318.864 136.344C320.373 135.358 321.628 134.032 322.528 132.471C323.429 130.91 323.95 129.159 324.048 127.36C324.04 124.056 321.72 122.72 318.856 124.368Z" fill="#2C3E50"/>
<path d="M353.6 110.224C353.6 110.968 353.6 111.608 353.56 112.36L344.496 117.6L339.04 114.448C339.04 113.84 339.04 112.952 339.04 112.352C339.04 106.16 337.568 101.208 335.04 97.7119L342.4 87.2L347.864 90.352C351.496 94.984 353.6 101.712 353.6 110.224Z" fill="#7CB333"/>
<path d="M353.6 110.224C353.6 110.976 353.6 111.608 353.56 112.36L344.496 117.6C344.496 116.992 344.536 116.112 344.536 115.504C344.536 109.32 343.064 104.36 340.536 100.872L347.856 90.3999C351.496 94.9839 353.6 101.72 353.6 110.224Z" fill="#7CB333"/>
<path opacity="0.1" d="M340.512 100.864L335.048 97.7119L342.392 87.2L347.856 90.3599L340.512 100.864Z" fill="#2C3E50"/>
<path opacity="0.2" d="M344.528 115.496C344.528 116.104 344.528 116.984 344.528 117.592L339.072 114.44C339.072 113.832 339.072 112.944 339.072 112.344C339.072 106.152 337.6 101.2 335.072 97.7041L340.536 100.904C343.064 104.352 344.528 109.312 344.528 115.496Z" fill="#2C3E50"/>
<path d="M346.224 87.7759L338.912 98.2399L333.448 95.0399L333.144 94.7679C330.805 94.0981 328.35 93.9399 325.944 94.3039L320.456 91.1999L323.2 79.5119C328.456 78.7119 333.168 79.5119 337.048 81.7439L342.392 84.8159C342.632 84.9519 342.872 85.0959 343.104 85.2479L343.576 85.5599C343.736 85.6639 343.896 85.7679 344.048 85.8879C344.2 86.0079 344.272 86.0479 344.376 86.1359C344.803 86.468 345.212 86.8232 345.6 87.1999C345.84 87.3919 346.032 87.5759 346.224 87.7759Z" fill="#7CB333"/>
<path opacity="0.2" d="M338.912 98.2401L333.448 95.0401L333.152 94.7761C335.329 95.4375 337.308 96.6276 338.912 98.2401Z" fill="#2C3E50"/>
<path opacity="0.2" d="M346.232 87.7762L338.912 98.2402C335.648 95.0402 331.152 93.6162 325.92 94.3442L328.616 82.6722C335.712 81.6002 341.832 83.4002 346.232 87.7762Z" fill="white"/>
<path opacity="0.1" d="M323.152 79.512L328.616 82.672L325.92 94.344L320.456 91.192L323.152 79.512Z" fill="#2C3E50"/>
<path opacity="0.5" d="M337.008 81.744L342.352 84.816C338.496 82.624 333.824 81.856 328.616 82.664L323.2 79.512C328.416 78.696 333.128 79.496 337.008 81.744Z" fill="white"/>
<path d="M325.984 83.2001L323.288 94.8561C320.623 95.5791 318.067 96.6554 315.688 98.0561C312.957 99.6573 310.397 101.534 308.048 103.656L302.592 100.456L299.944 91.8241C303.078 88.97 306.502 86.4522 310.16 84.3121C313.397 82.3979 316.883 80.9414 320.52 79.9841L325.984 83.2001Z" fill="#7CB333"/>
<path opacity="0.05" d="M299.944 91.896L305.408 95.056L308.048 103.688L302.592 100.536L299.944 91.896Z" fill="#2C3E50"/>
<path opacity="0.6" d="M325.984 83.2C322.333 84.1472 318.832 85.6014 315.584 87.52C311.929 89.6656 308.506 92.1829 305.368 95.032L299.904 91.88C303.038 89.0259 306.462 86.5081 310.12 84.368C313.357 82.4538 316.843 80.9973 320.48 80.04L325.984 83.2Z" fill="white"/>
<path opacity="0.4" d="M325.984 83.2L323.296 94.8559C320.63 95.5766 318.074 96.6529 315.696 98.0559C312.964 99.6553 310.404 101.532 308.056 103.656L305.408 95.0239C308.541 92.1698 311.965 89.652 315.624 87.512C318.86 85.6 322.347 84.1486 325.984 83.2Z" fill="white"/>
<path d="M305.48 106.136C300.508 111.25 296.369 117.114 293.216 123.512L286.08 120.928L280.616 117.768C284.897 109.103 290.552 101.188 297.36 94.3281L302.824 97.5281L305.48 106.136Z" fill="#7CB333"/>
<path opacity="0.7" d="M302.824 97.4881C296.012 104.345 290.357 112.261 286.08 120.928L280.616 117.768C284.897 109.103 290.552 101.188 297.36 94.3281L302.824 97.4881Z" fill="white"/>
<path opacity="0.6" d="M305.48 106.136C300.507 111.253 296.369 117.119 293.216 123.52L286.08 120.928C290.357 112.261 296.012 104.345 302.824 97.488L305.48 106.136Z" fill="white"/>
<path d="M291.568 127.056C288.696 133.784 286.984 140.4 286.88 146.944L277.672 152.264L272.208 149.064C272.384 140.088 274.848 130.44 278.944 121.272L286.144 123.864L291.568 127.056Z" fill="#7CB333"/>
<path opacity="0.6" d="M284.408 124.464L278.944 121.312L286.112 123.904L291.576 127.056L284.408 124.464Z" fill="white"/>
<path opacity="0.9" d="M284.408 124.464C280.304 133.64 277.848 143.28 277.672 152.264L272.208 149.064C272.384 140.088 274.848 130.44 278.944 121.272L284.408 124.464Z" fill="white"/>
<path opacity="0.75" d="M291.576 127.056C288.696 133.776 286.984 140.4 286.872 146.944L277.672 152.256C277.848 143.28 280.304 133.632 284.408 124.456L291.576 127.056Z" fill="white"/>
<path d="M349.304 105.944L347.856 105.128L308.424 135.728L308.544 141.584L309.992 142.4L349.304 105.944Z" fill="white"/>
<path d="M309.992 142.4L309.88 136.544L349.304 105.944L309.992 142.4Z" fill="#EAECEF"/>
<path d="M308.424 135.728L309.88 136.544L349.304 105.944L347.856 105.128L308.424 135.728Z" fill="white"/>
</svg>
