<svg width="64" height="32" viewBox="0 0 64 32" fill="none" xmlns="http://www.w3.org/2000/svg">
<path d="M31.9881 18.1478V18.4661C31.9881 22.856 31.9881 27.2459 31.9881 31.6358C32.0042 31.7486 32.0042 31.8632 31.9881 31.976C31.7769 31.7419 31.5729 31.5041 31.3581 31.281C30.0359 29.9266 28.5433 28.7579 26.9197 27.8056C24.5212 26.3711 21.9188 25.327 19.206 24.7107C18.3828 24.5205 17.5523 24.3888 16.7362 24.162C15.0362 23.6746 13.4524 22.8354 12.083 21.6963C10.5913 20.4564 9.26734 19.0195 8.14562 17.4235C6.84326 15.6063 5.69715 13.6773 4.72012 11.6581C3.41363 8.98394 2.12146 6.32073 0.897302 3.62094C0.618108 3.0027 0.35681 2.3808 0.116989 1.73695C-0.0107491 1.41904 -0.0346028 1.06747 0.0489802 0.734588C0.0799653 0.60776 0.135728 0.488647 0.212914 0.384412C0.290101 0.280176 0.387116 0.192972 0.498127 0.128042C0.609139 0.0631123 0.731852 0.0217991 0.858887 0.00658676C0.985923 -0.00862562 1.11466 0.00257706 1.23735 0.0395211C1.53684 0.128786 1.80831 0.296512 2.02482 0.526068C2.45045 0.965024 2.83622 1.44256 3.17739 1.95278C3.89327 2.98807 4.52683 4.07823 5.17113 5.16472C6.05524 6.64997 6.96083 8.13156 7.93802 9.55462C8.87282 10.9218 9.9388 12.1902 11.1201 13.3409C11.7103 13.9221 12.3317 14.4693 12.9814 14.9798C14.2812 15.9853 15.8292 16.6009 17.4521 16.7577C18.5072 16.8568 19.5708 16.7977 20.6092 16.5821C20.8297 16.5455 21.035 16.4438 21.1998 16.2895C21.2567 16.2438 21.3036 16.1863 21.3374 16.1208C21.3712 16.0553 21.3911 15.9833 21.3958 15.9095C21.4006 15.8356 21.39 15.7615 21.3649 15.6921C21.3397 15.6227 21.3005 15.5595 21.2499 15.5066C21.0974 15.3301 20.9126 15.186 20.7058 15.0822C20.3633 14.9002 20.0035 14.7543 19.632 14.6469C18.9698 14.442 18.2897 14.325 17.6168 14.164C16.2856 13.8768 14.991 13.4349 13.7581 12.847C12.7278 12.3654 11.8092 11.666 11.0628 10.7948C10.3436 9.93651 9.89666 8.875 9.78141 7.75111C9.76139 7.53251 9.77957 7.31202 9.83511 7.09994C9.85414 6.98469 9.89762 6.8751 9.96249 6.77885C10.0274 6.6826 10.112 6.60202 10.2106 6.54276C10.3092 6.4835 10.4192 6.447 10.5331 6.43582C10.6469 6.42464 10.7618 6.43905 10.8696 6.47804C11.117 6.54368 11.3509 6.65394 11.5604 6.80362C11.9434 7.06701 12.3228 7.33772 12.6951 7.61209C14.2944 8.76082 16.1151 9.54777 18.0356 9.92045C18.798 10.0778 19.5747 10.1619 20.3407 10.3082C22.5942 10.6978 24.7477 11.5475 26.6727 12.8068C27.7801 13.548 28.7347 14.5037 29.4825 15.62C30.1559 16.6151 31.0058 17.4725 31.9881 18.1478Z" fill="white"/>
<path d="M32.7362 17.5843C32.5064 17.7978 32.2557 17.9866 31.9881 18.1477L31.981 18.4623V31.632C31.997 31.7448 31.997 31.8594 31.981 31.9722H32.0561C32.4642 31.504 32.883 31.0467 33.3304 30.6223C35.1038 28.9719 37.1181 27.6142 39.3009 26.5982C41.4912 25.5714 43.8006 24.8338 46.1733 24.4033C48.0304 24.0519 49.7875 23.2821 51.317 22.1498C52.6834 21.1219 53.912 19.9154 54.9715 18.5611C56.3525 16.8059 57.5711 14.9236 58.6118 12.9384C59.2131 11.8183 59.7595 10.6712 60.3061 9.52377C60.5111 9.09338 60.7161 8.66293 60.9241 8.23385C61.7438 6.54009 62.5599 4.839 63.3187 3.11231C63.5568 2.60747 63.7612 2.08682 63.9308 1.5539C64.0287 1.2499 64.0224 0.920885 63.9129 0.621044C63.8456 0.436865 63.7241 0.278525 63.5652 0.167811C63.4062 0.0570977 63.2176 -0.000549714 63.0252 0.00280086C62.7444 0.0114442 62.4735 0.111401 62.2521 0.288144C62.0207 0.455056 61.8103 0.650409 61.6257 0.869805C61.04 1.56777 60.5121 2.31417 60.0471 3.10133C59.6412 3.76481 59.2398 4.43215 58.8384 5.09945C58.3656 5.88547 57.8928 6.67144 57.4127 7.45099C56.5599 8.85681 55.6139 10.2013 54.5814 11.4751C53.6123 12.629 52.545 13.6928 51.3921 14.6541C50.4855 15.4341 49.4368 16.0229 48.3064 16.3864C47.1759 16.75 45.9863 16.8811 44.806 16.7722C44.2989 16.7366 43.7952 16.662 43.2991 16.549C43.1034 16.5067 42.9227 16.4106 42.7765 16.271C42.6749 16.1812 42.6119 16.0541 42.6012 15.9172C42.5905 15.7803 42.6329 15.6446 42.7192 15.5394C42.8114 15.4165 42.9241 15.3112 43.0521 15.2284C43.3194 15.0522 43.6067 14.9097 43.9076 14.8041C44.4409 14.6169 44.9863 14.4678 45.5398 14.3578C46.6314 14.1383 47.7076 13.845 48.7612 13.4798C49.8659 13.1095 50.9061 12.5625 51.8431 11.8592C53.0122 11.0011 53.8305 9.7324 54.1411 8.29604C54.2388 7.91725 54.2511 7.52072 54.1769 7.13638C54.1602 7.01523 54.1169 6.89952 54.0503 6.79787C53.9836 6.69622 53.8954 6.61127 53.7922 6.54936C53.6889 6.48745 53.5733 6.45019 53.454 6.44034C53.3347 6.4305 53.2147 6.44834 53.1031 6.49253C52.8661 6.56372 52.6415 6.67234 52.4373 6.81445C52.108 7.04127 51.7787 7.27173 51.4601 7.51318C49.6043 8.87466 47.4518 9.75358 45.189 10.0739C44.9173 10.123 44.6458 10.1679 44.3749 10.2127C43.6966 10.3249 43.0217 10.4366 42.3541 10.6117C40.7051 11.0166 39.1262 11.6766 37.6722 12.5689C36.4531 13.3094 35.4024 14.3071 34.5904 15.4955C34.066 16.273 33.4425 16.9755 32.7362 17.5843Z" fill="white"/>
<path d="M32.0561 31.9722C32.0382 32.0015 32.0168 32.0161 31.981 31.9722H32.0561Z" fill="white"/>
</svg>
