<svg width="64" height="64" viewBox="0 0 64 64" fill="none" xmlns="http://www.w3.org/2000/svg">
<g clip-path="url(#clip0)">
<path d="M25.3474 42.9397C25.115 42.7074 24.7925 42.5735 24.4637 42.5735C24.1336 42.5735 23.8112 42.7072 23.5787 42.9397C23.3462 43.1735 23.2137 43.4947 23.2137 43.8235C23.2137 44.1535 23.3462 44.4747 23.5787 44.7072C23.8125 44.941 24.1336 45.0735 24.4637 45.0735C24.7925 45.0735 25.1137 44.941 25.3474 44.7072C25.5799 44.4747 25.7137 44.1534 25.7137 43.8235C25.7137 43.4947 25.58 43.1735 25.3474 42.9397Z" fill="#2C3E50"/>
<path d="M42.2473 25.9275C42.0149 25.6949 41.6936 25.5613 41.3636 25.5613C41.0348 25.5613 40.7124 25.6949 40.4799 25.9275C40.2474 26.1613 40.1136 26.4824 40.1136 26.8113C40.1136 27.1413 40.2473 27.4625 40.4799 27.6949C40.7124 27.9287 41.0348 28.0613 41.3636 28.0613C41.6924 28.0613 42.0149 27.9287 42.2473 27.6949C42.481 27.4625 42.6136 27.14 42.6136 26.8113C42.6136 26.4838 42.481 26.1613 42.2473 25.9275Z" fill="#2C3E50"/>
<path d="M59.7491 42.6057C57.8405 42.6057 56.222 43.8703 55.687 45.6057H53.8084L47.6879 39.4852V24.5162L53.8084 18.3957H55.687C56.222 20.1311 57.8405 21.3957 59.7491 21.3957C62.0926 21.3957 63.9991 19.4892 63.9991 17.1457C63.9991 14.8022 62.0926 12.8957 59.7491 12.8957C57.8405 12.8957 56.222 14.1604 55.687 15.8957H53.2905C52.959 15.8957 52.6412 16.0275 52.4067 16.2619L46.2184 22.4502L33.2491 15.2645V8.3131C34.9844 7.7781 36.2491 6.1596 36.2491 4.25098C36.2491 1.90748 34.3426 0.000976562 31.9991 0.000976562C29.6556 0.000976562 27.7491 1.90748 27.7491 4.25098C27.7491 6.1596 29.0139 7.7781 30.7491 8.3131V15.2645L17.7799 22.4502L11.5915 16.2619C11.357 16.0275 11.0391 15.8957 10.7076 15.8957H8.31115C7.77615 14.1604 6.15765 12.8957 4.24902 12.8957C1.90552 12.8957 -0.000976562 14.8022 -0.000976562 17.1457C-0.000976562 19.4892 1.90552 21.3957 4.24902 21.3957C6.15765 21.3957 7.77615 20.1311 8.31115 18.3957H10.1898L16.3103 24.5162V39.4854L10.1898 45.6059H8.31115C7.77615 43.8705 6.15765 42.6059 4.24902 42.6059C1.90552 42.6059 -0.000976562 44.5124 -0.000976562 46.8559C-0.000976562 49.1993 1.90552 51.1059 4.24902 51.1059C6.15765 51.1059 7.77615 49.8412 8.31115 48.1059H10.7076C11.0391 48.1059 11.357 47.9741 11.5915 47.7397L17.7798 41.5515L19.3254 42.4079C19.9294 42.7424 20.6899 42.5242 21.0246 41.9203C21.3593 41.3165 21.141 40.5557 20.5371 40.2211L18.8104 39.2644V26.1224L30.7493 32.7372V45.879L29.1819 45.0106C28.5779 44.6761 27.8171 44.8942 27.4826 45.4981C27.148 46.102 27.3663 46.8627 27.9701 47.1973L30.7491 48.7371V55.6886C29.0139 56.2236 27.7491 57.8421 27.7491 59.7507C27.7491 62.0942 29.6556 64.0007 31.9991 64.0007C34.3426 64.0007 36.2491 62.0942 36.2491 59.7507C36.2491 57.8421 34.9844 56.2236 33.2491 55.6886V48.7371L46.2184 41.5513L52.4067 47.7397C52.6412 47.9741 52.959 48.1059 53.2905 48.1059H55.687C56.222 49.8412 57.8405 51.1059 59.7491 51.1059C62.0926 51.1059 63.9991 49.1993 63.9991 46.8559C63.999 44.5124 62.0926 42.6057 59.7491 42.6057ZM59.7491 15.3959C60.7141 15.3959 61.4991 16.1809 61.4991 17.1459C61.4991 18.1109 60.7141 18.8959 59.7491 18.8959C58.7841 18.8959 57.9991 18.1109 57.9991 17.1459C57.9991 16.1809 58.7841 15.3959 59.7491 15.3959ZM4.24915 18.8959C3.28415 18.8959 2.49915 18.1109 2.49915 17.1459C2.49915 16.1809 3.28415 15.3959 4.24915 15.3959C5.21415 15.3959 5.99915 16.1809 5.99915 17.1459C5.99915 18.1109 5.21415 18.8959 4.24915 18.8959ZM4.24915 48.6057C3.28415 48.6057 2.49915 47.8207 2.49915 46.8557C2.49915 45.8907 3.28415 45.1057 4.24915 45.1057C5.21415 45.1057 5.99915 45.8907 5.99915 46.8557C5.99915 47.8207 5.21415 48.6057 4.24915 48.6057ZM30.2491 4.25098C30.2491 3.28598 31.0341 2.50098 31.9991 2.50098C32.9641 2.50098 33.7491 3.28598 33.7491 4.25098C33.7491 5.21598 32.9641 6.00098 31.9991 6.00098C31.0341 6.00098 30.2491 5.21598 30.2491 4.25098ZM33.7491 59.7506C33.7491 60.7156 32.9641 61.5006 31.9991 61.5006C31.0341 61.5006 30.2491 60.7156 30.2491 59.7506C30.2491 58.7856 31.0341 58.0006 31.9991 58.0006C32.9641 58.0006 33.7491 58.7856 33.7491 59.7506ZM45.1879 39.2644L33.249 45.8791V32.7372H33.2491L37.457 30.4059C38.0609 30.0712 38.2791 29.3105 37.9445 28.7066C37.6099 28.1028 36.8495 27.8846 36.2453 28.2191L31.999 30.5716L20.1394 24.0009L31.999 17.43L45.1879 24.7374V39.2644ZM59.7491 48.6057C58.7841 48.6057 57.9991 47.8207 57.9991 46.8557C57.9991 45.8907 58.7841 45.1057 59.7491 45.1057C60.7141 45.1057 61.4991 45.8907 61.4991 46.8557C61.4991 47.8207 60.7141 48.6057 59.7491 48.6057Z" fill="#2C3E50"/>
</g>
<defs>
<clipPath id="clip0">
<rect width="64" height="64" fill="white"/>
</clipPath>
</defs>
</svg>
