<svg width="64" height="64" viewBox="0 0 64 64" fill="none" xmlns="http://www.w3.org/2000/svg">
<path d="M28 31.0001C28 32.6542 29.346 34.0002 31 34.0002C32.654 34.0002 34 32.6542 34 31.0001C34 30.8121 33.978 30.6301 33.945 30.4521L50.501 20.8651L49.499 19.1351L32.934 28.7261C32.411 28.2801 31.741 28.0001 31 28.0001C30.41 28.0001 29.863 28.1771 29.398 28.4731L17.618 19.2141L16.382 20.7861L28.169 30.0501C28.068 30.3501 28 30.6661 28 31.0001ZM31 30.0001C31.551 30.0001 32 30.4481 32 31.0001C32 31.5521 31.551 32.0001 31 32.0001C30.449 32.0001 30 31.5521 30 31.0001C30 30.4481 30.449 30.0001 31 30.0001Z" fill="#2C3E50"/>
<path d="M56.524 44.72C58.792 40.517 60 35.804 60 31C60 15.01 46.991 2 31 2C15.009 2 2 15.01 2 31C2 46.99 15.009 60 31 60C35.805 60 40.518 58.792 44.72 56.524C46.094 59.74 49.288 62 53 62C57.962 62 62 57.963 62 53C62 49.287 59.74 46.094 56.524 44.72ZM8.146 45.35L10.716 43.866L9.716 42.134L7.141 43.62C5.287 40.128 4.179 36.185 4.025 32H7V30H4.025C4.178 25.815 5.286 21.872 7.141 18.38L9.715 19.866L10.715 18.134L8.145 16.65C10.307 13.219 13.218 10.308 16.65 8.145L18.134 10.715L19.866 9.715L18.38 7.141C21.872 5.287 25.815 4.179 30 4.025V7H32V4.025C36.185 4.178 40.128 5.286 43.62 7.141L42.134 9.716L43.866 10.716L45.35 8.146C48.781 10.308 51.692 13.219 53.855 16.651L51.285 18.135L52.285 19.867L54.859 18.381C56.713 21.873 57.821 25.816 57.975 30.001H55V32.001H57.966C57.815 36.066 56.751 40.038 54.85 43.616L52.284 42.135L51.284 43.867L51.698 44.106C47.778 44.678 44.677 47.779 44.105 51.699L43.866 51.285L42.134 52.285L43.615 54.851C40.037 56.752 36.066 57.816 32 57.967V55H30V57.975C25.815 57.822 21.872 56.714 18.38 54.859L19.866 52.284L18.134 51.284L16.65 53.854C13.219 51.692 10.308 48.781 8.146 45.35ZM53 60C49.14 60 46 56.859 46 53C46 49.141 49.14 46 53 46C56.86 46 60 49.141 60 53C60 56.859 56.86 60 53 60Z" fill="#2C3E50"/>
<path d="M52 53.586L50.707 52.293L49.293 53.707L51.293 55.707C51.488 55.902 51.744 56 52 56C52.256 56 52.512 55.902 52.707 55.707L57.707 50.707L56.293 49.293L52 53.586Z" fill="#2C3E50"/>
<path d="M26 44C26.552 44 27 43.553 27 43V37C27 36.447 26.552 36 26 36H14C13.448 36 13 36.447 13 37V43C13 43.553 13.448 44 14 44H26ZM25 42H21V38H25V42ZM15 38H19V42H15V38Z" fill="#2C3E50"/>
<path d="M30 47H32V49H30V47Z" fill="#2C3E50"/>
<path d="M26 47H28V49H26V47Z" fill="#2C3E50"/>
<path d="M34 47H36V49H34V47Z" fill="#2C3E50"/>
</svg>
