<svg width="400" height="400" viewBox="0 0 400 400" fill="none" xmlns="http://www.w3.org/2000/svg">
<path d="M85.6 332.96C150.16 371.968 254.824 371.968 319.376 332.96C383.928 293.952 383.928 230.696 319.376 191.688C254.824 152.68 150.16 152.68 85.6 191.688C21.04 230.696 21.048 293.944 85.6 332.96Z" fill="#EAECEF"/>
<path d="M325.4 288.8C331.304 292.368 340.872 292.368 346.776 288.8C352.68 285.232 352.672 279.456 346.776 275.888C340.88 272.32 331.304 272.32 325.4 275.888C319.496 279.456 319.504 285.216 325.4 288.8Z" fill="#DDDDDD"/>
<path d="M58.5921 241.76C58.5921 241.76 57.2321 229.76 51.2721 220.488C45.3121 211.216 37.1281 205.392 29.4881 204.8C21.8481 204.208 15.6801 211.2 23.8881 216.056C32.0961 220.912 46.5841 225.8 53.2641 243.856L58.5921 241.76Z" fill="#7CB333"/>
<path d="M58.5921 241.76C58.5921 241.76 57.2321 229.76 51.2721 220.488C45.3121 211.216 37.1281 205.392 29.4881 204.8C21.8481 204.208 15.6801 211.2 23.8881 216.056C32.0961 220.912 46.5841 225.8 53.2641 243.856L58.5921 241.76Z" fill="#6A9626"/>
<path d="M56.3521 238.648C56.3781 238.656 56.406 238.656 56.4321 238.648C56.4819 238.628 56.5274 238.599 56.5658 238.562C56.6042 238.525 56.6347 238.48 56.6556 238.431C56.6765 238.382 56.6873 238.329 56.6874 238.276C56.6874 238.222 56.6768 238.169 56.6561 238.12C48.6001 218.272 33.2561 209.976 26.2561 208.368C26.2035 208.356 26.1492 208.355 26.0961 208.364C26.0431 208.373 25.9925 208.393 25.9471 208.422C25.9017 208.451 25.8626 208.489 25.8318 208.533C25.8011 208.577 25.7794 208.627 25.7681 208.68C25.7462 208.785 25.7656 208.894 25.8222 208.985C25.8788 209.076 25.9683 209.141 26.0721 209.168C32.9201 210.768 47.9601 218.888 55.8961 238.424C55.9344 238.508 56.0008 238.577 56.0839 238.618C56.1671 238.658 56.2619 238.669 56.3521 238.648Z" fill="white"/>
<path d="M15.552 238.888C16.24 240.448 17.952 241.288 19.552 241.896C21.152 242.504 22.856 243.216 23.712 244.688C25.432 247.672 22.608 251.888 24.456 254.752C24.8882 255.332 25.4337 255.818 26.0594 256.181C26.6851 256.544 27.378 256.777 28.096 256.864C29.2815 257.034 30.4752 257.141 31.672 257.184C32.2422 257.178 32.8114 257.135 33.376 257.056C35.0313 256.684 36.763 256.866 38.304 257.576C40.704 258.912 41.4 261.896 42.832 264.2C43.7236 265.563 44.9007 266.717 46.2821 267.58C47.6634 268.443 49.2159 268.996 50.832 269.2C51.896 269.344 53.872 269.536 54.952 268.928C55.0299 268.888 55.1047 268.843 55.176 268.792C55.328 268.624 55.512 268.408 55.592 268.296C55.6083 268.274 55.6218 268.25 55.632 268.224C56.056 266.68 55.368 265.072 55.344 263.48C55.336 263.384 55.336 263.288 55.344 263.192C55.408 261.336 55.464 259.496 55.504 257.64C55.5894 254.243 55.624 250.837 55.608 247.424C55.608 245.208 55.848 242.792 54.912 240.704C53.88 238.416 51.296 238.36 50.328 236.112C49.936 235.216 49.728 234.256 49.352 233.352C48.7652 232.024 47.8254 230.883 46.6349 230.052C45.4444 229.221 44.0488 228.733 42.6 228.64C38.104 228.408 34.064 232.056 29.568 231.72C28.4102 231.565 27.2618 231.346 26.128 231.064C22.48 230.384 18.272 231.424 16.224 234.504C15.7627 235.124 15.4603 235.848 15.3431 236.613C15.226 237.377 15.2977 238.158 15.552 238.888Z" fill="#2C3E50"/>
<path d="M56 261.112C56.0486 261.1 56.0943 261.078 56.1345 261.048C56.1746 261.018 56.2083 260.98 56.2337 260.937C56.259 260.894 56.2754 260.846 56.282 260.796C56.2886 260.747 56.2852 260.696 56.272 260.648C50.064 237.312 25.488 233.944 19.736 234.4C19.6859 234.403 19.6368 234.416 19.5918 234.438C19.5468 234.461 19.5067 234.492 19.4739 234.53C19.4411 234.568 19.4162 234.612 19.4008 234.66C19.3853 234.708 19.3796 234.758 19.384 234.808C19.3922 234.908 19.4395 235.002 19.5159 235.068C19.5922 235.133 19.6914 235.167 19.792 235.16C25.392 234.76 49.456 238.056 55.536 260.872C55.5688 260.963 55.6348 261.038 55.7209 261.083C55.8069 261.128 55.9066 261.138 56 261.112Z" fill="white"/>
<path d="M28.672 249.296C28.7491 249.281 28.8193 249.242 28.872 249.184C31.1442 247.22 33.8206 245.78 36.7114 244.966C39.6022 244.151 42.6368 243.983 45.6 244.472C45.6527 244.488 45.7082 244.492 45.7627 244.484C45.8172 244.477 45.8694 244.458 45.9158 244.428C45.9622 244.398 46.0017 244.359 46.0317 244.313C46.0617 244.267 46.0814 244.215 46.0895 244.161C46.0976 244.106 46.0939 244.051 46.0787 243.998C46.0634 243.945 46.037 243.896 46.0013 243.854C45.9655 243.812 45.9211 243.779 45.8712 243.756C45.8213 243.733 45.767 243.72 45.712 243.72C42.6303 243.21 39.4739 243.387 36.4687 244.239C33.4635 245.091 30.6836 246.597 28.328 248.648C28.2576 248.721 28.2183 248.819 28.2183 248.92C28.2183 249.021 28.2576 249.119 28.328 249.192C28.3721 249.237 28.4267 249.27 28.4868 249.288C28.5468 249.306 28.6105 249.309 28.672 249.296Z" fill="white"/>
<path d="M252.48 41.9519L296.696 67.4879C297.126 67.7685 297.485 68.1464 297.742 68.5912C297.999 69.0359 298.148 69.535 298.176 70.0479V191.6C298.148 192.113 297.999 192.612 297.742 193.057C297.485 193.501 297.126 193.879 296.696 194.16L252.48 219.696C252.021 219.929 251.514 220.05 251 220.05C250.486 220.05 249.979 219.929 249.52 219.696L205.304 194.16C204.873 193.88 204.514 193.503 204.257 193.058C203.999 192.613 203.851 192.113 203.824 191.6V70.0479C203.853 69.535 204.001 69.0359 204.258 68.5912C204.516 68.1464 204.874 67.7685 205.304 67.4879L249.52 41.9519C249.98 41.7229 250.486 41.6038 251 41.6038C251.514 41.6038 252.02 41.7229 252.48 41.9519Z" fill="#2C3E50"/>
<path d="M203.824 70.048V191.6C203.852 192.112 204 192.61 204.256 193.055C204.511 193.5 204.868 193.878 205.296 194.16L249.52 219.696C249.975 219.94 250.485 220.061 251 220.048V95.072C250.485 95.081 249.976 94.9599 249.52 94.72L205.296 69.192L204.896 68.856L204.368 68.416C204.035 68.8973 203.847 69.4634 203.824 70.048Z" fill="#6A9626"/>
<path d="M291.144 82.008L258.024 101.128C257.593 101.41 257.235 101.789 256.977 102.235C256.72 102.681 256.572 103.182 256.544 103.696V116.296C256.544 117.24 257.2 117.624 258.016 117.152L291.136 98.032C291.566 97.7515 291.925 97.3735 292.182 96.9288C292.439 96.484 292.588 95.985 292.616 95.472V82.864C292.624 81.92 292 81.536 291.144 82.008Z" fill="#435364"/>
<path d="M289.848 87.568C289.809 88.0642 289.655 88.5447 289.399 88.971C289.142 89.3974 288.789 89.7579 288.368 90.024L260.8 105.936C260 106.408 259.32 106.072 259.32 105.192C259.359 104.696 259.513 104.215 259.77 103.789C260.027 103.363 260.379 103.002 260.8 102.736L288.368 86.816C289.184 86.344 289.848 86.68 289.848 87.568Z" fill="#7CB333"/>
<path d="M289.848 93.9759C289.809 94.4722 289.655 94.9526 289.399 95.379C289.142 95.8053 288.789 96.1659 288.368 96.4319L260.8 112.344C260 112.816 259.32 112.48 259.32 111.6C259.359 111.104 259.513 110.623 259.77 110.197C260.027 109.771 260.379 109.41 260.8 109.144L288.368 93.2239C289.184 92.7519 289.848 93.0879 289.848 93.9759Z" fill="#6A9626"/>
<path d="M288.368 93.2239L273.168 102.024V105.224L288.368 96.4239C288.789 96.1578 289.142 95.7973 289.399 95.371C289.655 94.9446 289.809 94.4642 289.848 93.9679C289.848 93.0879 289.184 92.7519 288.368 93.2239Z" fill="#7CB333"/>
<path d="M291.144 104.44L258.024 123.56C257.594 123.841 257.236 124.219 256.979 124.664C256.722 125.108 256.573 125.607 256.544 126.12V138.728C256.544 139.672 257.2 140.056 258.016 139.584L291.136 120.464C291.566 120.183 291.925 119.806 292.182 119.361C292.439 118.916 292.588 118.417 292.616 117.904V105.296C292.624 104.352 292 104 291.144 104.44Z" fill="#435364"/>
<path d="M289.848 109.992C289.811 110.49 289.657 110.972 289.4 111.399C289.143 111.827 288.79 112.189 288.368 112.456L260.8 128.368C260 128.84 259.32 128.504 259.32 127.624C259.358 127.126 259.511 126.644 259.768 126.216C260.025 125.789 260.378 125.427 260.8 125.16L288.368 109.248C289.184 108.8 289.848 109.112 289.848 109.992Z" fill="#7CB333"/>
<path d="M289.848 116.408C289.809 116.904 289.655 117.385 289.399 117.811C289.142 118.237 288.789 118.598 288.368 118.864L260.8 134.776C260 135.248 259.32 134.912 259.32 134.032C259.359 133.536 259.513 133.055 259.77 132.629C260.027 132.203 260.379 131.842 260.8 131.576L288.368 115.656C289.184 115.2 289.848 115.52 289.848 116.408Z" fill="#6A9626"/>
<path d="M288.368 115.656L264.872 129.256V132.456L288.368 118.896C288.789 118.63 289.142 118.269 289.399 117.843C289.655 117.417 289.809 116.936 289.848 116.44C289.848 115.52 289.184 115.2 288.368 115.656Z" fill="#7CB333"/>
<path d="M291.144 126.872L258.024 145.992C257.594 146.272 257.236 146.65 256.978 147.095C256.721 147.54 256.572 148.039 256.544 148.552V161.16C256.544 162.104 257.2 162.488 258.016 162.016L291.136 142.896C291.567 142.614 291.926 142.235 292.183 141.789C292.44 141.342 292.588 140.842 292.616 140.328V127.728C292.624 126.784 292 126.4 291.144 126.872Z" fill="#435364"/>
<path d="M289.848 132.424C289.809 132.92 289.655 133.401 289.399 133.827C289.142 134.253 288.789 134.614 288.368 134.88L260.8 150.8C260 151.272 259.32 150.936 259.32 150.048C259.359 149.552 259.513 149.071 259.77 148.645C260.027 148.219 260.379 147.858 260.8 147.592L288.368 131.68C289.184 131.2 289.848 131.544 289.848 132.424Z" fill="#7CB333"/>
<path d="M289.848 138.832C289.809 139.328 289.655 139.809 289.399 140.235C289.142 140.661 288.789 141.022 288.368 141.288L260.8 157.208C260 157.68 259.32 157.344 259.32 156.456C259.359 155.96 259.513 155.479 259.77 155.053C260.027 154.627 260.379 154.266 260.8 154L288.368 138.088C289.184 137.6 289.848 137.952 289.848 138.832Z" fill="#6A9626"/>
<path d="M288.368 138.088L278.768 143.64V146.84L288.368 141.28C288.789 141.014 289.142 140.653 289.399 140.227C289.655 139.801 289.809 139.32 289.848 138.824C289.848 137.952 289.184 137.6 288.368 138.088Z" fill="#7CB333"/>
<path d="M291.144 149.304L258.024 168.424C257.594 168.704 257.236 169.082 256.978 169.527C256.721 169.972 256.572 170.471 256.544 170.984V183.592C256.544 184.536 257.2 184.92 258.016 184.448L291.136 165.328C291.567 165.046 291.926 164.667 292.183 164.221C292.44 163.774 292.588 163.274 292.616 162.76V150.16C292.624 149.216 292 148.8 291.144 149.304Z" fill="#435364"/>
<path d="M289.848 154.856C289.809 155.352 289.655 155.833 289.399 156.259C289.142 156.685 288.789 157.046 288.368 157.312L260.8 173.232C260 173.704 259.32 173.368 259.32 172.48C259.359 171.984 259.513 171.503 259.77 171.077C260.027 170.65 260.379 170.29 260.8 170.024L288.368 154.112C289.184 153.64 289.848 153.976 289.848 154.856Z" fill="#7CB333"/>
<path d="M289.848 161.264C289.809 161.76 289.655 162.241 289.399 162.667C289.142 163.093 288.789 163.454 288.368 163.72L260.8 179.64C260 180.112 259.32 179.776 259.32 178.888C259.359 178.392 259.513 177.911 259.77 177.485C260.027 177.059 260.379 176.698 260.8 176.432L288.368 160.52C289.184 160.048 289.848 160.384 289.848 161.264Z" fill="#6A9626"/>
<path d="M288.368 160.52L273.168 169.28V172.48L288.368 163.72C288.789 163.454 289.142 163.093 289.399 162.667C289.655 162.241 289.809 161.76 289.848 161.264C289.848 160.384 289.184 160.048 288.368 160.52Z" fill="#7CB333"/>
<path d="M291.144 171.736L258.024 190.856C257.594 191.137 257.236 191.515 256.978 191.959C256.721 192.404 256.572 192.903 256.544 193.416V206.024C256.544 206.968 257.2 207.344 258.016 206.872L291.136 187.752C291.566 187.471 291.925 187.093 292.182 186.649C292.439 186.204 292.588 185.705 292.616 185.192V172.584C292.624 171.64 292 171.264 291.144 171.736Z" fill="#435364"/>
<path d="M289.848 177.288C289.809 177.784 289.655 178.265 289.399 178.691C289.142 179.117 288.789 179.478 288.368 179.744L260.8 195.664C260 196.128 259.32 195.8 259.32 194.912C259.359 194.416 259.513 193.935 259.77 193.509C260.027 193.083 260.379 192.722 260.8 192.456L288.368 176.536C289.184 176.072 289.848 176.4 289.848 177.288Z" fill="#7CB333"/>
<path d="M289.848 183.696C289.809 184.192 289.655 184.672 289.399 185.099C289.142 185.525 288.789 185.886 288.368 186.152L260.8 202.072C260 202.544 259.32 202.208 259.32 201.32C259.359 200.824 259.513 200.343 259.77 199.917C260.027 199.49 260.379 199.13 260.8 198.864L288.368 182.952C289.184 182.48 289.848 182.808 289.848 183.696Z" fill="#6A9626"/>
<path d="M288.368 182.952L267.648 194.912V198.112L288.368 186.112C288.789 185.846 289.142 185.485 289.399 185.059C289.655 184.633 289.809 184.152 289.848 183.656C289.848 182.808 289.184 182.48 288.368 182.952Z" fill="#7CB333"/>
<path d="M244.064 102.792C242.528 101.904 241.288 102.712 241.288 104.6V177.888C241.328 178.884 241.599 179.856 242.081 180.729C242.563 181.601 243.242 182.349 244.064 182.912C245.592 183.8 246.832 182.992 246.832 181.104V107.816C246.793 106.821 246.523 105.849 246.042 104.977C245.562 104.104 244.885 103.356 244.064 102.792Z" fill="#2C3E50"/>
<path d="M244.064 181.288C243.652 181.007 243.312 180.633 243.07 180.197C242.829 179.761 242.692 179.274 242.672 178.776V105.288C242.672 104.344 243.296 103.936 244.064 104.384C244.473 104.665 244.811 105.038 245.052 105.473C245.292 105.907 245.428 106.392 245.448 106.888V180.384C245.448 181.32 244.8 181.728 244.064 181.288Z" fill="#6A9626"/>
<path d="M244.064 181.288C243.652 181.007 243.312 180.633 243.07 180.197C242.829 179.761 242.692 179.274 242.672 178.776V143.64L245.448 145.24V180.376C245.448 181.32 244.8 181.728 244.064 181.288Z" fill="#7CB333"/>
<path d="M235.736 97.9839C234.2 97.0959 232.96 97.9039 232.96 99.7919V173.08C232.996 174.076 233.266 175.051 233.748 175.923C234.23 176.796 234.911 177.543 235.736 178.104C237.264 178.992 238.512 178.184 238.512 176.296V103.008C238.472 102.012 238.201 101.039 237.719 100.167C237.237 99.295 236.558 98.5474 235.736 97.9839Z" fill="#2C3E50"/>
<path d="M235.736 176.48C235.324 176.199 234.984 175.825 234.743 175.389C234.501 174.953 234.364 174.466 234.344 173.968V100.48C234.344 99.536 234.968 99.136 235.736 99.576C236.146 99.8582 236.485 100.232 236.725 100.668C236.966 101.104 237.101 101.591 237.12 102.088V175.576C237.12 176.52 236.504 176.92 235.736 176.48Z" fill="#7CB333"/>
<path d="M227.408 93.1839C225.88 92.2879 224.632 93.1039 224.632 94.9839V168.272C224.672 169.268 224.943 170.24 225.425 171.112C225.907 171.985 226.586 172.732 227.408 173.296C228.944 174.184 230.184 173.376 230.184 171.488V98.2079C230.148 97.2113 229.878 96.2372 229.396 95.3644C228.914 94.4916 228.233 93.7446 227.408 93.1839Z" fill="#2C3E50"/>
<path d="M227.408 171.672C226.996 171.393 226.656 171.021 226.416 170.586C226.175 170.151 226.041 169.665 226.024 169.168V95.6718C226.024 94.7358 226.64 94.3278 227.408 94.7678C227.82 95.0492 228.16 95.4228 228.402 95.8589C228.643 96.2951 228.78 96.7816 228.8 97.2798V170.768C228.8 171.712 228.176 172.12 227.408 171.672Z" fill="#6A9626"/>
<path d="M227.408 171.672C226.996 171.393 226.656 171.021 226.416 170.586C226.175 170.151 226.041 169.665 226.024 169.168V112.368L228.8 113.968V170.768C228.8 171.712 228.176 172.12 227.408 171.672Z" fill="#7CB333"/>
<path d="M219.088 88.376C217.552 87.488 216.312 88.296 216.312 90.184V163.464C216.348 164.461 216.618 165.435 217.1 166.307C217.583 167.18 218.264 167.927 219.088 168.488C220.616 169.376 221.856 168.568 221.856 166.68V93.4C221.817 92.405 221.547 91.4327 221.066 90.5605C220.586 89.6884 219.909 88.9404 219.088 88.376Z" fill="#2C3E50"/>
<path d="M219.088 166.864C218.677 166.583 218.338 166.211 218.096 165.776C217.855 165.342 217.718 164.857 217.696 164.36V90.8718C217.696 89.9278 218.32 89.5198 219.088 89.9598C219.498 90.242 219.837 90.616 220.077 91.0521C220.317 91.4882 220.453 91.9743 220.472 92.4718V165.96C220.472 166.904 219.848 167.312 219.088 166.864Z" fill="#6A9626"/>
<path d="M219.088 166.864C218.677 166.583 218.338 166.211 218.096 165.776C217.855 165.342 217.718 164.857 217.696 164.36V151.952L220.472 153.552V165.952C220.472 166.904 219.848 167.312 219.088 166.864Z" fill="#7CB333"/>
<path d="M210.76 83.5679C209.224 82.6799 207.984 83.4879 207.984 85.3759V158.656C208.02 159.652 208.29 160.627 208.772 161.499C209.255 162.372 209.936 163.119 210.76 163.68C212.288 164.576 213.536 163.76 213.536 161.88V88.5919C213.496 87.5962 213.225 86.6235 212.743 85.7512C212.261 84.879 211.582 84.1314 210.76 83.5679Z" fill="#2C3E50"/>
<path d="M210.76 162.064C210.348 161.783 210.008 161.409 209.766 160.973C209.525 160.537 209.388 160.05 209.368 159.552V86.0638C209.368 85.1198 209.992 84.7118 210.76 85.1598C211.172 85.4385 211.512 85.8106 211.753 86.2458C211.993 86.681 212.127 87.1669 212.144 87.6638V161.152C212.144 162.096 211.528 162.504 210.76 162.064Z" fill="#6A9626"/>
<path d="M210.76 162.064C210.348 161.783 210.008 161.409 209.766 160.973C209.525 160.537 209.388 160.05 209.368 159.552V121.208L212.144 122.808V161.144C212.144 162.096 211.528 162.504 210.76 162.064Z" fill="#7CB333"/>
<path d="M245.648 191.824L209.168 170.76C208.512 170.384 207.984 170.688 207.984 171.448V184.736C208.006 185.146 208.125 185.546 208.331 185.902C208.536 186.258 208.823 186.56 209.168 186.784L245.648 207.848C246.304 208.224 246.832 207.92 246.832 207.168V193.872C246.81 193.461 246.691 193.062 246.486 192.706C246.28 192.35 245.993 192.048 245.648 191.824Z" fill="#2C3E50"/>
<path d="M244.152 195.768C244.152 196.648 243.488 196.984 242.672 196.512L212.144 178.912C211.723 178.646 211.37 178.285 211.114 177.859C210.857 177.433 210.703 176.952 210.664 176.456C210.664 175.568 211.328 175.232 212.144 175.704L242.672 193.304C243.094 193.571 243.447 193.933 243.704 194.36C243.961 194.788 244.115 195.27 244.152 195.768Z" fill="#6A9626"/>
<path d="M244.152 195.768C244.152 196.648 243.488 196.984 242.672 196.512L220.472 183.712V180.512L242.672 193.312C243.093 193.578 243.446 193.939 243.703 194.365C243.96 194.791 244.113 195.272 244.152 195.768Z" fill="#7CB333"/>
<path d="M244.152 202.176C244.152 203.056 243.488 203.392 242.672 202.92L212.144 185.32C211.723 185.054 211.37 184.693 211.114 184.267C210.857 183.841 210.703 183.36 210.664 182.864C210.664 181.976 211.328 181.64 212.144 182.112L242.672 199.712C243.094 199.979 243.447 200.341 243.704 200.768C243.961 201.196 244.115 201.678 244.152 202.176Z" fill="#6A9626"/>
<path d="M244.152 202.176C244.152 203.056 243.488 203.392 242.672 202.92L234.344 198.12V194.92L242.672 199.72C243.093 199.986 243.446 200.347 243.703 200.773C243.96 201.199 244.113 201.68 244.152 202.176Z" fill="#7CB333"/>
<path d="M205.304 67.4879L249.52 41.9519C249.98 41.7229 250.486 41.6038 251 41.6038C251.514 41.6038 252.02 41.7229 252.48 41.9519L296.696 67.4879C296.876 67.5464 297.033 67.6604 297.144 67.8134C297.255 67.9665 297.315 68.1508 297.315 68.3399C297.315 68.529 297.255 68.7133 297.144 68.8664C297.033 69.0194 296.876 69.1334 296.696 69.1919L252.48 94.7199C252.021 94.9525 251.514 95.0737 251 95.0737C250.486 95.0737 249.979 94.9525 249.52 94.7199L205.304 69.1919C205.124 69.1334 204.968 69.0194 204.856 68.8664C204.745 68.7133 204.685 68.529 204.685 68.3399C204.685 68.1508 204.745 67.9665 204.856 67.8134C204.968 67.6604 205.124 67.5464 205.304 67.4879Z" fill="#435364"/>
<path d="M251.888 88.6559L286.184 68.8479C286.444 68.6812 286.66 68.4548 286.814 68.1876C286.969 67.9204 287.057 67.6202 287.072 67.3119V66.1599C287.057 65.8516 286.969 65.5514 286.814 65.2842C286.66 65.017 286.444 64.7906 286.184 64.6239L251.888 44.7999C251.612 44.6619 251.308 44.5901 251 44.5901C250.692 44.5901 250.388 44.6619 250.112 44.7999L215.808 64.6239C215.55 64.7921 215.335 65.0188 215.18 65.2857C215.026 65.5526 214.937 65.8521 214.92 66.1599V67.3119C214.937 67.6197 215.026 67.9193 215.18 68.1861C215.335 68.453 215.55 68.6798 215.808 68.8479L250.112 88.6559C250.388 88.7939 250.692 88.8657 251 88.8657C251.308 88.8657 251.612 88.7939 251.888 88.6559Z" fill="#6A9626"/>
<path d="M286.184 65.648L251.888 85.448C251.614 85.5897 251.309 85.6637 251 85.6637C250.691 85.6637 250.387 85.5897 250.112 85.448L215.808 65.648C215.703 65.6101 215.612 65.5406 215.547 65.449C215.483 65.3574 215.448 65.248 215.448 65.136C215.448 65.024 215.483 64.9146 215.547 64.823C215.612 64.7314 215.703 64.6619 215.808 64.624L250.112 45.504C250.387 45.3623 250.691 45.2883 251 45.2883C251.309 45.2883 251.614 45.3623 251.888 45.504L286.184 64.624C286.294 64.6579 286.389 64.7258 286.457 64.818C286.525 64.9101 286.562 65.0215 286.562 65.136C286.562 65.2505 286.525 65.3619 286.457 65.454C286.389 65.5462 286.294 65.6141 286.184 65.648Z" fill="#435364"/>
<path d="M251 85.6638V88.8638C251.309 88.8719 251.615 88.8003 251.888 88.6558L286.184 68.8478C286.444 68.6811 286.66 68.4547 286.814 68.1876C286.969 67.9204 287.057 67.6201 287.072 67.3118V66.1598C287.058 65.8854 286.987 65.6169 286.863 65.3716C286.739 65.1263 286.565 64.9098 286.352 64.7358C286.672 65.0158 286.616 65.3998 286.184 65.6478L251.888 85.4478C251.616 85.595 251.31 85.6694 251 85.6638Z" fill="#2C3E50"/>
<path d="M251.888 79.04L275.088 65.648C275.351 65.4825 275.571 65.257 275.729 64.9899C275.888 64.7229 275.981 64.422 276 64.112V62.952C275.982 62.6446 275.892 62.3458 275.737 62.0792C275.583 61.8126 275.369 61.5855 275.112 61.416L260.208 52.8C259.638 52.4424 259.132 51.9906 258.712 51.464L251.608 41.864C251.438 41.641 251.193 41.4867 250.918 41.4294C250.644 41.3721 250.357 41.4156 250.112 41.552L226.912 54.944C226.653 55.1117 226.438 55.3383 226.284 55.6053C226.129 55.8723 226.04 56.172 226.024 56.48V64.048C226.041 64.3558 226.13 64.6553 226.284 64.9222C226.439 65.1891 226.654 65.4159 226.912 65.584L250.112 78.976C250.382 79.1277 250.683 79.2127 250.992 79.2238C251.301 79.235 251.609 79.1719 251.888 79.04Z" fill="#6A9626"/>
<path d="M250.112 75.84L235.2 67.2479C234.916 67.081 234.649 66.8881 234.4 66.6719C234.133 66.4308 233.892 66.1627 233.68 65.8719L226.576 56.2719C226.495 56.1698 226.438 56.0512 226.408 55.9244C226.378 55.7976 226.376 55.6658 226.403 55.5383C226.43 55.4108 226.484 55.2908 226.563 55.1867C226.641 55.0826 226.741 54.997 226.856 54.9359L250.056 41.5439C250.301 41.4076 250.588 41.364 250.862 41.4213C251.137 41.4786 251.382 41.6329 251.552 41.8559L258.656 51.4559C259.029 51.9953 259.495 52.464 260.032 52.84L275.032 61.3759C275.138 61.4138 275.229 61.4833 275.293 61.5749C275.358 61.6666 275.392 61.7759 275.392 61.8879C275.392 62 275.358 62.1093 275.293 62.2009C275.229 62.2926 275.138 62.3621 275.032 62.3999L251.832 75.7999C251.567 75.9353 251.274 76.0092 250.977 76.0161C250.679 76.023 250.383 75.9628 250.112 75.84Z" fill="#435364"/>
<path d="M226.912 55.008L250.112 41.616C250.357 41.4796 250.643 41.4361 250.918 41.4934C251.193 41.5506 251.438 41.7049 251.608 41.928L258.712 51.528C258.929 51.8022 259.173 52.0541 259.44 52.28C259.44 52.28 234.472 66.68 234.464 66.68C234.193 66.441 233.948 66.1727 233.736 65.88L226.632 56.28C226.562 56.1795 226.514 56.0657 226.49 55.9458C226.467 55.8258 226.468 55.7023 226.494 55.5828C226.521 55.4634 226.571 55.3507 226.643 55.2518C226.715 55.1529 226.807 55.0699 226.912 55.008Z" fill="#2C3E50"/>
<path d="M269.456 61.6561C269.134 61.4904 268.778 61.4041 268.416 61.4041C268.054 61.4041 267.698 61.4904 267.376 61.6561C266.8 61.9841 266.8 62.5201 267.376 62.8561C267.699 63.0179 268.055 63.1022 268.416 63.1022C268.777 63.1022 269.133 63.0179 269.456 62.8561C270.032 62.5201 270.032 61.9841 269.456 61.6561Z" fill="#7CB333"/>
<path d="M265.296 64.056C264.973 63.8941 264.617 63.8098 264.256 63.8098C263.895 63.8098 263.539 63.8941 263.216 64.056C262.64 64.392 262.64 64.928 263.216 65.256C263.538 65.4216 263.894 65.508 264.256 65.508C264.618 65.508 264.974 65.4216 265.296 65.256C265.872 64.928 265.872 64.392 265.296 64.056Z" fill="#7CB333"/>
<path d="M261.136 66.456C260.812 66.294 260.455 66.2097 260.092 66.2097C259.73 66.2097 259.372 66.294 259.048 66.456C258.923 66.4999 258.814 66.5815 258.738 66.6897C258.661 66.798 258.62 66.9273 258.62 67.06C258.62 67.1926 258.661 67.322 258.738 67.4302C258.814 67.5384 258.923 67.6201 259.048 67.664C259.372 67.826 259.73 67.9103 260.092 67.9103C260.455 67.9103 260.812 67.826 261.136 67.664C261.261 67.6201 261.37 67.5384 261.447 67.4302C261.523 67.322 261.565 67.1926 261.565 67.06C261.565 66.9273 261.523 66.798 261.447 66.6897C261.37 66.5815 261.261 66.4999 261.136 66.456Z" fill="#6A9626"/>
<path d="M256.968 68.8638C256.646 68.6982 256.29 68.6118 255.928 68.6118C255.566 68.6118 255.21 68.6982 254.888 68.8638C254.762 68.9056 254.652 68.986 254.574 69.0937C254.497 69.2014 254.455 69.3309 254.455 69.4638C254.455 69.5967 254.497 69.7262 254.574 69.8339C254.652 69.9416 254.762 70.0221 254.888 70.0638C255.21 70.2294 255.566 70.3158 255.928 70.3158C256.29 70.3158 256.646 70.2294 256.968 70.0638C257.094 70.0221 257.204 69.9416 257.282 69.8339C257.36 69.7262 257.402 69.5967 257.402 69.4638C257.402 69.3309 257.36 69.2014 257.282 69.0937C257.204 68.986 257.094 68.9056 256.968 68.8638Z" fill="#6A9626"/>
<path d="M266.336 59.848C266.013 59.6861 265.657 59.6018 265.296 59.6018C264.935 59.6018 264.579 59.6861 264.256 59.848C264.131 59.8918 264.022 59.9735 263.946 60.0817C263.869 60.1899 263.828 60.3193 263.828 60.452C263.828 60.5846 263.869 60.714 263.946 60.8222C264.022 60.9304 264.131 61.0121 264.256 61.056C264.579 61.2178 264.935 61.3021 265.296 61.3021C265.657 61.3021 266.013 61.2178 266.336 61.056C266.461 61.0121 266.57 60.9304 266.647 60.8222C266.723 60.714 266.765 60.5846 266.765 60.452C266.765 60.3193 266.723 60.1899 266.647 60.0817C266.57 59.9735 266.461 59.8918 266.336 59.848Z" fill="#7CB333"/>
<path d="M262.176 62.256C261.853 62.0903 261.495 62.0039 261.132 62.0039C260.769 62.0039 260.411 62.0903 260.088 62.256C259.962 62.2977 259.852 62.3782 259.774 62.4859C259.697 62.5936 259.655 62.7231 259.655 62.856C259.655 62.9889 259.697 63.1184 259.774 63.2261C259.852 63.3338 259.962 63.4142 260.088 63.456C260.412 63.6179 260.77 63.7022 261.132 63.7022C261.495 63.7022 261.852 63.6179 262.176 63.456C262.302 63.4142 262.412 63.3338 262.49 63.2261C262.568 63.1184 262.61 62.9889 262.61 62.856C262.61 62.7231 262.568 62.5936 262.49 62.4859C262.412 62.3782 262.302 62.2977 262.176 62.256Z" fill="#6A9626"/>
<path d="M256.968 66.104C257.781 66.104 258.44 65.7243 258.44 65.256C258.44 64.7876 257.781 64.408 256.968 64.408C256.155 64.408 255.496 64.7876 255.496 65.256C255.496 65.7243 256.155 66.104 256.968 66.104Z" fill="#7CB333"/>
<path d="M253.848 67.064C253.526 66.8984 253.17 66.812 252.808 66.812C252.446 66.812 252.09 66.8984 251.768 67.064C251.192 67.392 251.192 67.928 251.768 68.264C252.091 68.4259 252.447 68.5102 252.808 68.5102C253.169 68.5102 253.525 68.4259 253.848 68.264C254.4 67.928 254.4 67.392 253.848 67.064Z" fill="#6A9626"/>
<path d="M263.2 58.0479C262.877 57.886 262.521 57.8018 262.16 57.8018C261.799 57.8018 261.443 57.886 261.12 58.0479C260.544 58.3839 260.544 58.9199 261.12 59.2479C261.442 59.4135 261.798 59.4999 262.16 59.4999C262.522 59.4999 262.878 59.4135 263.2 59.2479C263.792 58.9199 263.792 58.3999 263.2 58.0479Z" fill="#6A9626"/>
<path d="M259.048 60.4478C258.725 60.2859 258.369 60.2017 258.008 60.2017C257.647 60.2017 257.291 60.2859 256.968 60.4478C256.843 60.4917 256.734 60.5734 256.658 60.6816C256.581 60.7898 256.54 60.9192 256.54 61.0518C256.54 61.1845 256.581 61.3139 256.658 61.4221C256.734 61.5303 256.843 61.612 256.968 61.6558C257.291 61.8177 257.647 61.902 258.008 61.902C258.369 61.902 258.725 61.8177 259.048 61.6558C259.173 61.612 259.282 61.5303 259.358 61.4221C259.435 61.3139 259.476 61.1845 259.476 61.0518C259.476 60.9192 259.435 60.7898 259.358 60.6816C259.282 60.5734 259.173 60.4917 259.048 60.4478Z" fill="#7CB333"/>
<path d="M254.888 62.856C254.566 62.6904 254.21 62.604 253.848 62.604C253.486 62.604 253.13 62.6904 252.808 62.856C252.682 62.8978 252.572 62.9782 252.494 63.0859C252.417 63.1936 252.375 63.3231 252.375 63.456C252.375 63.5889 252.417 63.7184 252.494 63.8261C252.572 63.9338 252.682 64.0143 252.808 64.056C253.131 64.2179 253.487 64.3022 253.848 64.3022C254.209 64.3022 254.565 64.2179 254.888 64.056C255.014 64.0143 255.124 63.9338 255.202 63.8261C255.28 63.7184 255.322 63.5889 255.322 63.456C255.322 63.3231 255.28 63.1936 255.202 63.0859C255.124 62.9782 255.014 62.8978 254.888 62.856Z" fill="#6A9626"/>
<path d="M252.8 71.2C252.477 71.0381 252.121 70.9539 251.76 70.9539C251.399 70.9539 251.043 71.0381 250.72 71.2C250.144 71.536 250.144 72.072 250.72 72.4C251.042 72.5656 251.398 72.652 251.76 72.652C252.122 72.652 252.478 72.5656 252.8 72.4C253.36 72.088 253.36 71.552 252.8 71.2Z" fill="#7CB333"/>
<path d="M249.664 69.4161C249.342 69.2505 248.986 69.1641 248.624 69.1641C248.262 69.1641 247.906 69.2505 247.584 69.4161C247.458 69.4578 247.348 69.5383 247.27 69.646C247.192 69.7537 247.151 69.8832 247.151 70.0161C247.151 70.1489 247.192 70.2784 247.27 70.3862C247.348 70.4939 247.458 70.5743 247.584 70.6161C247.906 70.7817 248.262 70.8681 248.624 70.8681C248.986 70.8681 249.342 70.7817 249.664 70.6161C249.79 70.5743 249.9 70.4939 249.978 70.3862C250.056 70.2784 250.098 70.1489 250.098 70.0161C250.098 69.8832 250.056 69.7537 249.978 69.646C249.9 69.5383 249.79 69.4578 249.664 69.4161Z" fill="#6A9626"/>
<path d="M250.728 65.2559C250.405 65.0941 250.049 65.0098 249.688 65.0098C249.327 65.0098 248.971 65.0941 248.648 65.2559C248.523 65.2998 248.414 65.3815 248.338 65.4897C248.261 65.5979 248.22 65.7273 248.22 65.8599C248.22 65.9926 248.261 66.122 248.338 66.2302C248.414 66.3384 248.523 66.4201 248.648 66.4639C248.971 66.6258 249.327 66.7101 249.688 66.7101C250.049 66.7101 250.405 66.6258 250.728 66.4639C250.853 66.4201 250.962 66.3384 251.039 66.2302C251.115 66.122 251.156 65.9926 251.156 65.8599C251.156 65.7273 251.115 65.5979 251.039 65.4897C250.962 65.3815 250.853 65.2998 250.728 65.2559Z" fill="#6A9626"/>
<path d="M260.096 56.2479C259.773 56.0823 259.415 55.9958 259.052 55.9958C258.689 55.9958 258.331 56.0823 258.008 56.2479C257.882 56.2897 257.772 56.3701 257.694 56.4778C257.617 56.5855 257.575 56.715 257.575 56.8479C257.575 56.9808 257.617 57.1103 257.694 57.218C257.772 57.3257 257.882 57.4062 258.008 57.4479C258.331 57.6136 258.689 57.7 259.052 57.7C259.415 57.7 259.773 57.6136 260.096 57.4479C260.222 57.4062 260.332 57.3257 260.41 57.218C260.488 57.1103 260.53 56.9808 260.53 56.8479C260.53 56.715 260.488 56.5855 260.41 56.4778C260.332 56.3701 260.222 56.2897 260.096 56.2479Z" fill="#7CB333"/>
<path d="M254.888 60.0959C255.701 60.0959 256.36 59.7162 256.36 59.2479C256.36 58.7796 255.701 58.3999 254.888 58.3999C254.075 58.3999 253.416 58.7796 253.416 59.2479C253.416 59.7162 254.075 60.0959 254.888 60.0959Z" fill="#6A9626"/>
<path d="M251.768 61.056C251.446 60.8904 251.09 60.804 250.728 60.804C250.366 60.804 250.01 60.8904 249.688 61.056C249.112 61.384 249.112 61.92 249.688 62.256C250.011 62.4178 250.367 62.5021 250.728 62.5021C251.089 62.5021 251.445 62.4178 251.768 62.256C252.344 61.92 252.344 61.384 251.768 61.056Z" fill="#7CB333"/>
<path d="M247.608 63.456C247.284 63.294 246.927 63.2097 246.564 63.2097C246.202 63.2097 245.844 63.294 245.52 63.456C245.394 63.4977 245.284 63.5782 245.206 63.6859C245.129 63.7936 245.087 63.9231 245.087 64.056C245.087 64.1889 245.129 64.3184 245.206 64.4261C245.284 64.5338 245.394 64.6142 245.52 64.656C245.843 64.8217 246.201 64.9081 246.564 64.9081C246.927 64.9081 247.285 64.8217 247.608 64.656C247.734 64.6142 247.844 64.5338 247.922 64.4261C248 64.3184 248.042 64.1889 248.042 64.056C248.042 63.9231 248 63.7936 247.922 63.6859C247.844 63.5782 247.734 63.4977 247.608 63.456Z" fill="#6A9626"/>
<path d="M246.544 67.6158C246.221 67.4502 245.863 67.3638 245.5 67.3638C245.137 67.3638 244.779 67.4502 244.456 67.6158C244.33 67.6576 244.22 67.738 244.142 67.8457C244.065 67.9535 244.023 68.083 244.023 68.2158C244.023 68.3487 244.065 68.4782 244.142 68.5859C244.22 68.6936 244.33 68.7741 244.456 68.8158C244.779 68.9815 245.137 69.0679 245.5 69.0679C245.863 69.0679 246.221 68.9815 246.544 68.8158C246.67 68.7741 246.78 68.6936 246.858 68.5859C246.936 68.4782 246.978 68.3487 246.978 68.2158C246.978 68.083 246.936 67.9535 246.858 67.8457C246.78 67.738 246.67 67.6576 246.544 67.6158Z" fill="#7CB333"/>
<path d="M243.416 65.816C243.094 65.6504 242.738 65.564 242.376 65.564C242.014 65.564 241.658 65.6504 241.336 65.816C240.76 66.144 240.76 66.68 241.336 67.016C241.659 67.1778 242.015 67.2621 242.376 67.2621C242.737 67.2621 243.093 67.1778 243.416 67.016C244 66.68 244 66.144 243.416 65.816Z" fill="#6A9626"/>
<path d="M250.952 76.0479V79.2479C251.277 79.2629 251.6 79.1911 251.888 79.0399L275.088 65.6479C275.351 65.4807 275.571 65.2536 275.729 64.9853C275.888 64.717 275.981 64.4149 276 64.1039V62.9519C275.984 62.6783 275.91 62.4111 275.785 62.1673C275.66 61.9235 275.485 61.7085 275.272 61.5359C275.592 61.8159 275.536 62.1919 275.112 62.4399L251.912 75.8399C251.617 75.9953 251.285 76.0672 250.952 76.0479Z" fill="#2C3E50"/>
<path d="M255.648 51.096C255.532 50.9502 255.368 50.8497 255.186 50.8117C255.003 50.7737 254.813 50.8007 254.648 50.888L234.44 62.5201C234.363 62.56 234.296 62.6166 234.243 62.6859C234.191 62.7551 234.154 62.8352 234.137 62.9202C234.119 63.0053 234.121 63.0932 234.141 63.1776C234.162 63.262 234.201 63.3407 234.256 63.4081C234.372 63.5539 234.536 63.6544 234.719 63.6924C234.901 63.7304 235.091 63.7034 235.256 63.616L255.456 52C255.535 51.9602 255.605 51.903 255.659 51.8328C255.713 51.7625 255.751 51.681 255.769 51.5942C255.788 51.5074 255.786 51.4175 255.765 51.3313C255.744 51.2451 255.704 51.1647 255.648 51.096Z" fill="#6A9626"/>
<path d="M255.648 51.096C255.532 50.9502 255.368 50.8497 255.186 50.8117C255.003 50.7737 254.813 50.8007 254.648 50.888L239.616 59.528L240.456 60.648L255.456 52C255.535 51.9602 255.605 51.903 255.659 51.8327C255.713 51.7625 255.751 51.681 255.769 51.5942C255.788 51.5074 255.786 51.4175 255.765 51.3313C255.744 51.2451 255.704 51.1647 255.648 51.096Z" fill="#7CB333"/>
<path d="M253.976 48.856C253.86 48.7121 253.698 48.6128 253.517 48.5749C253.336 48.537 253.148 48.5628 252.984 48.648L232.8 60.272C232.724 60.3139 232.657 60.3718 232.606 60.4418C232.554 60.5118 232.518 60.5922 232.501 60.6775C232.483 60.7627 232.485 60.8507 232.504 60.9354C232.524 61.0201 232.562 61.0995 232.616 61.168C232.732 61.3138 232.896 61.4144 233.079 61.4524C233.261 61.4904 233.451 61.4634 233.616 61.376L253.8 49.72C253.872 49.678 253.934 49.6213 253.982 49.5536C254.031 49.486 254.064 49.4089 254.081 49.3273C254.098 49.2458 254.097 49.1617 254.079 49.0805C254.061 48.9993 254.026 48.9228 253.976 48.856Z" fill="#6A9626"/>
<path d="M253.976 48.856C253.86 48.7121 253.698 48.6128 253.517 48.5749C253.336 48.537 253.148 48.5628 252.984 48.648L247.96 51.544L248.8 52.64L253.816 49.744C253.89 49.7009 253.954 49.6422 254.004 49.5719C254.053 49.5017 254.086 49.4215 254.101 49.337C254.117 49.2526 254.113 49.1658 254.092 49.0827C254.07 48.9997 254.031 48.9223 253.976 48.856Z" fill="#7CB333"/>
<path d="M252.304 46.6158C252.188 46.47 252.024 46.3694 251.842 46.3315C251.659 46.2935 251.469 46.3205 251.304 46.4078L231.096 58.0318C231.02 58.0737 230.954 58.1316 230.902 58.2016C230.85 58.2716 230.814 58.352 230.797 58.4373C230.779 58.5225 230.781 58.6105 230.8 58.6952C230.82 58.7799 230.858 58.8593 230.912 58.9278C231.028 59.0736 231.192 59.1742 231.375 59.2122C231.557 59.2502 231.747 59.2232 231.912 59.1358L252.096 47.4798C252.17 47.4406 252.236 47.3859 252.287 47.3196C252.339 47.2532 252.376 47.1766 252.395 47.0948C252.415 47.0131 252.417 46.9281 252.401 46.8455C252.386 46.7629 252.352 46.6846 252.304 46.6158Z" fill="#6A9626"/>
<path d="M252.304 46.6158C252.188 46.47 252.024 46.3694 251.842 46.3315C251.659 46.2935 251.469 46.3205 251.304 46.4078L240.8 52.4318L241.64 53.5518L252.152 47.5038C252.226 47.46 252.289 47.4008 252.337 47.3302C252.386 47.2596 252.418 47.1793 252.433 47.0949C252.447 47.0105 252.443 46.9239 252.421 46.8412C252.399 46.7585 252.359 46.6816 252.304 46.6158Z" fill="#7CB333"/>
<path d="M250.64 44.3758C250.524 44.23 250.36 44.1295 250.178 44.0915C249.995 44.0535 249.805 44.0805 249.64 44.1678L229.432 55.7918C229.356 55.8337 229.29 55.8916 229.238 55.9616C229.186 56.0316 229.15 56.112 229.133 56.1973C229.115 56.2825 229.117 56.3705 229.137 56.4552C229.156 56.54 229.195 56.6193 229.248 56.6878C229.364 56.8336 229.528 56.9342 229.711 56.9722C229.893 57.0102 230.083 56.9832 230.248 56.8958L250.432 45.2398C250.507 45.2006 250.572 45.146 250.623 45.0796C250.675 45.0132 250.712 44.9366 250.731 44.8548C250.751 44.7731 250.753 44.6881 250.737 44.6055C250.722 44.5229 250.688 44.4446 250.64 44.3758Z" fill="#6A9626"/>
<path d="M250.64 44.3758C250.524 44.23 250.36 44.1295 250.178 44.0915C249.995 44.0535 249.805 44.0805 249.64 44.1678L231.288 54.7198L232.128 55.8398L250.448 45.2638C250.525 45.2236 250.592 45.167 250.644 45.098C250.697 45.029 250.733 44.9494 250.752 44.8647C250.77 44.78 250.77 44.6924 250.75 44.6079C250.731 44.5234 250.693 44.4442 250.64 44.3758Z" fill="#7CB333"/>
<path d="M211.472 193.712C211.533 193.691 211.599 193.685 211.663 193.694C211.727 193.704 211.788 193.729 211.84 193.768C212.003 193.876 212.138 194.02 212.235 194.19C212.333 194.359 212.389 194.549 212.4 194.744C212.405 194.806 212.396 194.868 212.373 194.926C212.351 194.984 212.317 195.037 212.272 195.08L212.208 195.12L188.16 209L186.56 208.088L211.472 193.712Z" fill="#435364"/>
<path d="M214.72 195.592C214.781 195.569 214.846 195.561 214.91 195.57C214.974 195.578 215.035 195.602 215.088 195.64C215.252 195.747 215.389 195.891 215.488 196.061C215.587 196.23 215.644 196.42 215.656 196.616C215.662 196.68 215.652 196.744 215.628 196.804C215.605 196.864 215.568 196.917 215.52 196.96L215.456 197L191.408 210.88L189.808 209.968L214.72 195.592Z" fill="#435364"/>
<path d="M217.968 197.464C218.029 197.443 218.095 197.437 218.159 197.446C218.223 197.456 218.284 197.481 218.336 197.52C218.499 197.626 218.635 197.768 218.732 197.937C218.829 198.105 218.886 198.294 218.896 198.488C218.901 198.551 218.892 198.615 218.87 198.674C218.848 198.734 218.813 198.787 218.768 198.832L218.696 198.872L194.656 212.752L193.056 211.84L217.968 197.464Z" fill="#435364"/>
<path d="M221.216 199.336C221.279 199.317 221.345 199.312 221.41 199.321C221.475 199.331 221.538 199.355 221.592 199.392C221.755 199.5 221.89 199.644 221.987 199.814C222.085 199.983 222.141 200.173 222.152 200.368C222.158 200.43 222.149 200.493 222.127 200.551C222.105 200.609 222.07 200.661 222.024 200.704L221.96 200.744L197.912 214.624L196.312 213.712L221.216 199.336Z" fill="#435364"/>
<path d="M56.8 278.048C56.8803 279.15 57.2192 280.217 57.789 281.164C58.3589 282.11 59.1438 282.909 60.08 283.496L152.08 336.592C153.098 337.108 154.223 337.378 155.364 337.378C156.505 337.378 157.63 337.108 158.648 336.592L284.472 263.944C285.463 263.419 286.293 262.635 286.871 261.674C287.45 260.713 287.756 259.613 287.756 258.492C287.756 257.37 287.45 256.27 286.871 255.31C286.293 254.349 285.463 253.564 284.472 253.04L192.504 199.944C191.487 199.431 190.363 199.164 189.224 199.164C188.085 199.164 186.961 199.431 185.944 199.944L60.112 272.592C59.1688 273.176 58.377 273.974 57.8014 274.922C57.2258 275.871 56.8826 276.942 56.8 278.048Z" fill="#7CB333"/>
<path opacity="0.7" d="M155.36 330.272V337.376C154.214 337.393 153.082 337.117 152.072 336.576L60.112 283.496C59.1476 282.991 58.3347 282.238 57.7565 281.316C57.1783 280.394 56.8556 279.334 56.8214 278.246C56.7872 277.158 57.0428 276.08 57.5619 275.123C58.0811 274.166 58.8452 273.364 59.776 272.8C58.304 273.856 58.416 275.4 60.112 276.376L152.112 329.472C153.109 330.01 154.227 330.286 155.36 330.272Z" fill="#141B24"/>
<path d="M53.752 272.712C52.8328 272.088 52.0744 271.255 51.539 270.282C51.0037 269.309 50.7066 268.222 50.672 267.112V157.4C50.7343 156.262 51.0637 155.155 51.6336 154.168C52.2034 153.181 52.9977 152.342 53.952 151.72L179.784 79.0718C180.733 78.4766 181.827 78.1514 182.947 78.1309C184.068 78.1105 185.173 78.3956 186.143 78.9557C187.114 79.5158 187.913 80.3297 188.456 81.31C188.999 82.2903 189.264 83.4 189.224 84.5198V194.264C189.163 195.402 188.834 196.51 188.264 197.497C187.694 198.484 186.899 199.322 185.944 199.944L60.112 272.592C59.1361 273.111 58.0515 273.392 56.9464 273.413C55.8412 273.434 54.7468 273.194 53.752 272.712Z" fill="#7CB333"/>
<path opacity="0.7" d="M59.72 272.8C58.7797 273.223 57.7581 273.435 56.7271 273.421C55.6961 273.407 54.6806 273.168 53.752 272.72C52.8332 272.096 52.0752 271.263 51.5399 270.29C51.0046 269.316 50.7072 268.23 50.672 267.12V157.4C50.7165 156.269 51.0468 155.168 51.632 154.2L57.792 157.752C57.2043 158.72 56.8713 159.821 56.824 160.952V270.704C56.8 272.64 58.096 273.512 59.72 272.8Z" fill="#141B24"/>
<path opacity="0.5" d="M56.8 160.96V270.704C56.8 272.792 58.264 273.64 60.08 272.592L185.912 199.944C186.867 199.322 187.662 198.484 188.232 197.497C188.802 196.51 189.131 195.402 189.192 194.264V84.52C189.192 82.424 187.72 81.576 185.912 82.624L60.112 155.272C59.1503 155.891 58.3488 156.73 57.7732 157.718C57.1975 158.707 56.864 159.818 56.8 160.96Z" fill="#141B24"/>
<path d="M60.112 276.384L152.112 329.48C153.13 329.996 154.255 330.266 155.396 330.266C156.537 330.266 157.662 329.996 158.68 329.48L284.464 256.8C286.28 255.752 286.28 254.056 284.464 253.008L192.504 199.944C191.487 199.431 190.363 199.164 189.224 199.164C188.085 199.164 186.961 199.431 185.944 199.944L60.112 272.592C58.296 273.64 58.296 275.336 60.112 276.384Z" fill="#7CB333"/>
<path opacity="0.3" d="M60.112 276.384L152.112 329.48C153.13 329.996 154.255 330.266 155.396 330.266C156.537 330.266 157.662 329.996 158.68 329.48L284.464 256.8C286.28 255.752 286.28 254.056 284.464 253.008L192.504 199.944C191.487 199.431 190.363 199.164 189.224 199.164C188.085 199.164 186.961 199.431 185.944 199.944L60.112 272.592C58.296 273.64 58.296 275.336 60.112 276.384Z" fill="#141B24"/>
<path d="M61.8801 161.36L183.2 91.3359C184.288 90.7119 185.168 91.2239 185.168 92.4799V187.48C185.131 188.163 184.933 188.827 184.591 189.419C184.249 190.011 183.773 190.514 183.2 190.888L61.8801 260.912C60.7921 261.536 59.9041 261.032 59.9041 259.776V164.8C59.9392 164.111 60.1365 163.441 60.4798 162.843C60.8232 162.245 61.303 161.737 61.8801 161.36Z" fill="white"/>
<path d="M141.92 146.536L141.12 168.472C141.12 177.504 135.448 193.816 123.776 205.872C122.939 206.673 121.879 207.202 120.736 207.392C120.144 207.448 119.576 207.472 119.016 207.472C116.52 207.509 114.058 206.885 111.88 205.664L111.808 205.624L111.672 205.536C106.48 202.4 103.92 196 103.92 189.968L103.12 169C103.115 168.434 103.327 167.887 103.712 167.472C103.998 167.131 104.356 166.858 104.76 166.672C110.104 164.272 118.112 154.84 121.872 145.504C122.144 144.84 122.544 144.624 122.992 144.832L123.056 144.872C123.209 144.958 123.347 145.069 123.464 145.2L123.536 145.288C127.536 149.928 135.368 149.92 140.6 145.92C141 145.616 141.328 145.52 141.552 145.616C141.824 145.776 141.936 146.064 141.92 146.536Z" fill="#7CB333"/>
<path opacity="0.2" d="M122.536 144.8C122.385 144.863 122.25 144.959 122.141 145.081C122.031 145.202 121.951 145.347 121.904 145.504C118.144 154.84 110.136 164.304 104.792 166.672C104.388 166.858 104.03 167.132 103.744 167.472C103.359 167.887 103.147 168.434 103.152 169L103.952 189.968C103.952 196.024 106.512 202.424 111.728 205.536L111.864 205.624L111.936 205.664C114.114 206.885 116.575 207.509 119.072 207.472C119.632 207.472 120.2 207.472 120.792 207.392C121.417 207.304 122.02 207.098 122.568 206.784L122.536 144.8Z" fill="#141B24"/>
<path opacity="0.3" d="M70.7839 273.544L187.584 206.112C188.093 205.855 188.654 205.721 189.224 205.721C189.794 205.721 190.355 205.855 190.864 206.112L196.84 209.56C197.039 209.627 197.211 209.754 197.334 209.924C197.456 210.094 197.522 210.298 197.522 210.508C197.522 210.717 197.456 210.922 197.334 211.092C197.211 211.262 197.039 211.389 196.84 211.456L79.9999 278.88C79.4914 279.137 78.9296 279.27 78.3599 279.27C77.7903 279.27 77.2285 279.137 76.7199 278.88L70.7599 275.44C70.5621 275.371 70.391 275.241 70.2708 275.069C70.1506 274.898 70.0874 274.693 70.09 274.483C70.0927 274.274 70.1611 274.07 70.2856 273.902C70.4101 273.733 70.5844 273.608 70.7839 273.544Z" fill="#141B24"/>
<path opacity="0.3" d="M86.184 282.4L202.984 214.968C203.491 214.707 204.054 214.572 204.624 214.572C205.194 214.572 205.757 214.707 206.264 214.968L243.008 236.184C243.207 236.25 243.379 236.378 243.502 236.548C243.624 236.718 243.69 236.922 243.69 237.132C243.69 237.341 243.624 237.546 243.502 237.716C243.379 237.886 243.207 238.013 243.008 238.08L126.344 305.448C125.834 305.704 125.271 305.837 124.7 305.837C124.129 305.837 123.566 305.704 123.056 305.448L86.184 284.32C85.9715 284.264 85.7833 284.14 85.649 283.966C85.5148 283.793 85.4419 283.579 85.4419 283.36C85.4419 283.14 85.5148 282.927 85.649 282.753C85.7833 282.579 85.9715 282.455 86.184 282.4Z" fill="#141B24"/>
<path d="M190.88 245.336L194.536 243.224C194.688 243.136 194.68 242.984 194.536 242.888L190.312 240.448C190.221 240.403 190.121 240.379 190.02 240.379C189.919 240.379 189.819 240.403 189.728 240.448L186.072 242.56C185.912 242.656 185.92 242.8 186.072 242.896L190.304 245.344C190.394 245.386 190.493 245.408 190.593 245.406C190.693 245.405 190.791 245.381 190.88 245.336ZM183.68 236.952L180 239.056C179.84 239.152 179.848 239.296 180 239.4L184.232 241.84C184.323 241.885 184.423 241.908 184.524 241.908C184.625 241.908 184.725 241.885 184.816 241.84L188.472 239.728C188.624 239.64 188.616 239.488 188.472 239.392L184.248 236.952C184.158 236.905 184.058 236.88 183.956 236.88C183.854 236.88 183.754 236.905 183.664 236.952H183.68ZM171.864 243.768L165.672 247.344C165.52 247.432 165.528 247.584 165.672 247.68L169.904 250.08C169.993 250.125 170.092 250.148 170.192 250.148C170.292 250.148 170.391 250.125 170.48 250.08L176.672 246.504C176.824 246.416 176.816 246.264 176.672 246.168L172.448 243.768C172.355 243.72 172.252 243.695 172.148 243.695C172.044 243.695 171.941 243.72 171.848 243.768H171.864ZM178.32 240L174.656 242.112C174.504 242.2 174.512 242.352 174.656 242.448L178.888 244.848C178.979 244.893 179.079 244.916 179.18 244.916C179.281 244.916 179.381 244.893 179.472 244.848L183.128 242.736C183.28 242.648 183.272 242.496 183.128 242.4L178.904 239.96C178.81 239.921 178.709 239.904 178.607 239.911C178.506 239.918 178.408 239.948 178.32 240ZM164 248.32L160.312 250.4C160.16 250.496 160.168 250.648 160.312 250.744L164.536 253.184C164.627 253.229 164.727 253.252 164.828 253.252C164.929 253.252 165.029 253.229 165.12 253.184L168.776 251.072C168.936 250.984 168.928 250.832 168.776 250.736L164.544 248.336C164.46 248.293 164.368 248.269 164.274 248.266C164.18 248.264 164.086 248.282 164 248.32ZM158.656 251.4L155 253.512C154.848 253.6 154.856 253.752 155 253.848L159.224 256.288C159.314 256.335 159.414 256.359 159.516 256.359C159.618 256.359 159.718 256.335 159.808 256.288L163.464 254.176C163.624 254.088 163.616 253.936 163.464 253.84L159.2 251.416C159.112 251.37 159.014 251.344 158.914 251.341C158.814 251.338 158.715 251.359 158.624 251.4H158.656ZM175.288 261.328L178.952 259.216C179.104 259.128 179.096 258.976 178.952 258.88L174.72 256.44C174.63 256.393 174.53 256.368 174.428 256.368C174.326 256.368 174.226 256.393 174.136 256.44L170.4 258.544C170.248 258.632 170.256 258.784 170.4 258.88L174.624 261.28C174.717 261.341 174.823 261.377 174.934 261.385C175.044 261.394 175.155 261.374 175.256 261.328H175.288ZM169.944 264.416L173.6 262.304C173.76 262.216 173.752 262.064 173.6 261.968L169.368 259.568C169.277 259.523 169.177 259.499 169.076 259.499C168.975 259.499 168.875 259.523 168.784 259.568L165.08 261.6C164.928 261.688 164.936 261.84 165.08 261.936L169.304 264.384C169.395 264.438 169.498 264.469 169.604 264.475C169.71 264.48 169.816 264.46 169.912 264.416H169.944ZM164.6 267.504L168.256 265.392C168.416 265.304 168.408 265.152 168.256 265.056L164 262.616C163.91 262.569 163.81 262.544 163.708 262.544C163.606 262.544 163.506 262.569 163.416 262.616L159.76 264.728C159.608 264.816 159.616 264.968 159.76 265.064L163.984 267.504C164.075 267.549 164.175 267.572 164.276 267.572C164.377 267.572 164.477 267.549 164.568 267.504H164.6ZM159.2 270.584L162.856 268.48C163.016 268.384 163 268.232 162.856 268.136L158.624 265.696C158.533 265.651 158.433 265.627 158.332 265.627C158.231 265.627 158.131 265.651 158.04 265.696L154.4 267.8C154.248 267.888 154.256 268.04 154.4 268.136L158.624 270.576C158.712 270.623 158.811 270.648 158.911 270.649C159.011 270.651 159.11 270.628 159.2 270.584ZM185.512 248.424L189.168 246.312C189.32 246.224 189.312 246.072 189.168 245.976L184.944 243.536C184.853 243.491 184.753 243.467 184.652 243.467C184.551 243.467 184.451 243.491 184.36 243.536L180.704 245.6C180.544 245.688 180.552 245.84 180.704 245.936L184.936 248.376C185.025 248.431 185.126 248.464 185.23 248.473C185.335 248.481 185.439 248.464 185.536 248.424H185.512ZM180.576 258.248L188.736 253.536C188.896 253.448 188.88 253.296 188.736 253.2L178.464 247.272C178.373 247.227 178.273 247.203 178.172 247.203C178.071 247.203 177.971 247.227 177.88 247.272L173.664 249.712C173.504 249.8 173.512 249.952 173.664 250.048L179.104 253.184C179.272 253.28 179.28 253.432 179.104 253.52L175.728 255.472C175.576 255.56 175.584 255.712 175.728 255.808L179.96 258.248C180.057 258.304 180.168 258.334 180.28 258.334C180.392 258.334 180.503 258.304 180.6 258.248H180.576ZM153.256 254.488L149.6 256.6C149.448 256.688 149.456 256.84 149.6 256.936L153.824 259.376C153.915 259.421 154.015 259.444 154.116 259.444C154.217 259.444 154.317 259.421 154.408 259.376L158.064 257.264C158.224 257.176 158.216 257.024 158.064 256.928L153.832 254.488C153.746 254.446 153.652 254.424 153.556 254.424C153.46 254.424 153.366 254.446 153.28 254.488H153.256ZM147.936 257.6L144.28 259.712C144.128 259.8 144.136 259.952 144.28 260.048L148.504 262.488C148.594 262.535 148.694 262.559 148.796 262.559C148.898 262.559 148.998 262.535 149.088 262.488L152.744 260.384C152.904 260.288 152.888 260.136 152.744 260.04L148.512 257.64C148.425 257.59 148.328 257.56 148.229 257.553C148.129 257.546 148.029 257.562 147.936 257.6ZM121.232 292.2C121.322 292.247 121.422 292.271 121.524 292.271C121.626 292.271 121.726 292.247 121.816 292.2L125.472 290.096C125.624 290 125.616 289.848 125.472 289.752L121.24 287.312C121.151 287.266 121.052 287.242 120.952 287.242C120.852 287.242 120.753 287.266 120.664 287.312L117 289.424C116.848 289.512 116.856 289.664 117 289.76L121.232 292.2ZM105.176 282.288L101.52 284.392C101.368 284.488 101.376 284.632 101.52 284.736L105.744 287.176C105.835 287.221 105.935 287.244 106.036 287.244C106.137 287.244 106.237 287.221 106.328 287.176L109.984 285.064C110.144 284.976 110.136 284.824 109.984 284.728L105.752 282.288C105.665 282.238 105.567 282.211 105.467 282.206C105.367 282.202 105.267 282.222 105.176 282.264V282.288ZM113.784 289.528C113.875 289.573 113.975 289.596 114.076 289.596C114.177 289.596 114.277 289.573 114.368 289.528L118.024 287.416C118.176 287.328 118.168 287.176 118.024 287.08L113.8 284.64C113.709 284.595 113.609 284.571 113.508 284.571C113.407 284.571 113.307 284.595 113.216 284.64L109.56 286.752C109.4 286.848 109.408 286.992 109.56 287.088L113.784 289.528ZM130.664 294.072L134.32 291.968C134.48 291.872 134.472 291.72 134.32 291.624L130.088 289.184C129.997 289.139 129.897 289.115 129.796 289.115C129.695 289.115 129.595 289.139 129.504 289.184L125.848 291.296C125.696 291.384 125.704 291.536 125.848 291.632L130.072 294.072C130.165 294.117 130.268 294.138 130.371 294.134C130.474 294.129 130.575 294.1 130.664 294.048V294.072ZM124.736 297.152C124.827 297.197 124.927 297.22 125.028 297.22C125.129 297.22 125.229 297.197 125.32 297.152L128.976 295.04C129.136 294.952 129.12 294.8 128.976 294.704L124.744 292.264C124.653 292.219 124.553 292.195 124.452 292.195C124.351 292.195 124.251 292.219 124.16 292.264L120.504 294.376C120.352 294.472 120.36 294.616 120.504 294.712L124.736 297.152ZM110.52 279.2L106.864 281.312C106.712 281.4 106.72 281.552 106.864 281.648L111.096 284.088C111.185 284.135 111.284 284.159 111.384 284.159C111.484 284.159 111.583 284.135 111.672 284.088L115.336 281.984C115.488 281.888 115.48 281.744 115.336 281.64L111.104 279.24C111.016 279.188 110.918 279.158 110.817 279.151C110.715 279.144 110.614 279.161 110.52 279.2ZM137.248 263.768L133.6 265.856C133.44 265.944 133.456 266.096 133.6 266.192L137.832 268.632C137.923 268.677 138.023 268.7 138.124 268.7C138.225 268.7 138.325 268.677 138.416 268.632L142.072 266.52C142.224 266.432 142.216 266.28 142.072 266.184L137.848 263.744C137.755 263.696 137.652 263.671 137.548 263.671C137.444 263.671 137.341 263.696 137.248 263.744V263.768ZM115.872 276.112L112.208 278.224C112.056 278.312 112.064 278.464 112.208 278.56L116.44 281C116.531 281.045 116.631 281.068 116.732 281.068C116.833 281.068 116.933 281.045 117.024 281L120.68 278.888C120.832 278.8 120.824 278.648 120.68 278.552L116.448 276.112C116.361 276.063 116.263 276.035 116.163 276.031C116.063 276.027 115.963 276.047 115.872 276.088V276.112ZM142.592 260.68L138.936 262.792C138.776 262.888 138.792 263.032 138.936 263.128L143.168 265.576C143.259 265.621 143.359 265.644 143.46 265.644C143.561 265.644 143.661 265.621 143.752 265.576L147.408 263.464C147.568 263.376 147.552 263.224 147.408 263.128L143.2 260.672C143.107 260.62 143.004 260.592 142.898 260.589C142.792 260.586 142.687 260.609 142.592 260.656V260.68ZM131.904 266.856L128.248 268.968C128.088 269.056 128.096 269.208 128.248 269.304L132.48 271.704C132.571 271.749 132.671 271.772 132.772 271.772C132.873 271.772 132.973 271.749 133.064 271.704L136.72 269.592C136.872 269.496 136.864 269.352 136.72 269.256L132.496 266.808C132.402 266.765 132.3 266.745 132.197 266.749C132.094 266.753 131.994 266.782 131.904 266.832V266.856ZM126.56 269.944L122.904 272C122.744 272.088 122.752 272.24 122.904 272.336L127.136 274.776C127.226 274.823 127.326 274.847 127.428 274.847C127.53 274.847 127.63 274.823 127.72 274.776L131.376 272.664C131.528 272.576 131.52 272.424 131.376 272.328L127.152 269.928C127.061 269.878 126.96 269.852 126.857 269.85C126.754 269.849 126.652 269.873 126.56 269.92V269.944ZM121.216 273.024L117.6 275.112C117.44 275.2 117.448 275.352 117.6 275.448L121.832 277.896C121.923 277.941 122.023 277.964 122.124 277.964C122.225 277.964 122.325 277.941 122.416 277.896L126.072 275.784C126.224 275.696 126.216 275.544 126.072 275.448L121.848 273.008C121.752 272.953 121.643 272.924 121.533 272.923C121.423 272.921 121.313 272.948 121.216 273V273.024ZM148.536 276.784L152.192 274.672C152.344 274.584 152.336 274.432 152.192 274.336L147.968 271.896C147.877 271.851 147.777 271.827 147.676 271.827C147.575 271.827 147.475 271.851 147.384 271.896L143.728 274.008C143.568 274.096 143.584 274.248 143.728 274.344L147.96 276.784C148.048 276.83 148.146 276.856 148.246 276.858C148.346 276.861 148.445 276.841 148.536 276.8V276.784ZM195.48 230.152L191.816 232.264C191.664 232.352 191.672 232.504 191.816 232.6L196.048 235C196.139 235.045 196.239 235.068 196.34 235.068C196.441 235.068 196.541 235.045 196.632 235L200.288 232.888C200.44 232.792 200.432 232.648 200.288 232.552L196.056 230.104C195.965 230.062 195.865 230.042 195.765 230.046C195.665 230.051 195.567 230.078 195.48 230.128V230.152ZM189.008 233.888L185.352 236C185.192 236.088 185.2 236.24 185.352 236.336L189.584 238.776C189.674 238.823 189.774 238.847 189.876 238.847C189.978 238.847 190.078 238.823 190.168 238.776L193.824 236.672C193.976 236.576 193.968 236.424 193.824 236.328L189.6 233.872C189.509 233.824 189.408 233.799 189.305 233.797C189.202 233.796 189.1 233.819 189.008 233.864V233.888ZM200.8 227.04L197.144 229.152C196.984 229.24 196.992 229.392 197.144 229.488L201.376 231.928C201.467 231.973 201.567 231.996 201.668 231.996C201.769 231.996 201.869 231.973 201.96 231.928L205.616 229.816C205.768 229.728 205.76 229.576 205.616 229.48L201.392 227.04C201.3 226.993 201.199 226.969 201.096 226.969C200.993 226.969 200.892 226.993 200.8 227.04ZM173.136 255.568L176.792 253.456C176.944 253.368 176.936 253.216 176.792 253.12L172.568 250.72C172.477 250.675 172.377 250.651 172.276 250.651C172.175 250.651 172.075 250.675 171.984 250.72L168.32 252.8C168.168 252.896 168.176 253.04 168.32 253.136L172.552 255.584C172.647 255.63 172.752 255.653 172.858 255.651C172.964 255.648 173.067 255.619 173.16 255.568H173.136ZM206.736 223.968C206.645 223.923 206.545 223.899 206.444 223.899C206.343 223.899 206.243 223.923 206.152 223.968L202.496 226.08C202.336 226.176 202.344 226.32 202.496 226.416L206.728 228.864C206.819 228.909 206.919 228.932 207.02 228.932C207.121 228.932 207.221 228.909 207.312 228.864L210.968 226.752C211.12 226.664 211.112 226.512 210.968 226.416L206.736 223.968ZM153.864 273.672L157.52 271.56C157.68 271.472 157.664 271.32 157.52 271.224L153.288 268.824C153.197 268.779 153.097 268.755 152.996 268.755C152.895 268.755 152.795 268.779 152.704 268.824L149.048 270.936C148.888 271.032 148.904 271.176 149.048 271.272L153.272 273.72C153.37 273.762 153.476 273.779 153.582 273.771C153.688 273.762 153.79 273.728 153.88 273.672H153.864ZM219.408 235.832L223.064 233.72C223.216 233.632 223.208 233.48 223.064 233.384L218.84 230.944C218.749 230.899 218.649 230.875 218.548 230.875C218.447 230.875 218.347 230.899 218.256 230.944L214.6 233.056C214.44 233.144 214.456 233.296 214.6 233.392L218.832 235.792C218.92 235.846 219.02 235.879 219.123 235.886C219.226 235.893 219.33 235.874 219.424 235.832H219.408ZM208.024 235.432L211.68 233.32C211.832 233.232 211.824 233.08 211.68 232.984L207.456 230.544C207.365 230.499 207.265 230.475 207.164 230.475C207.063 230.475 206.963 230.499 206.872 230.544L203.2 232.64C203.04 232.728 203.048 232.88 203.2 232.976L207.432 235.376C207.521 235.434 207.623 235.469 207.729 235.479C207.835 235.489 207.942 235.473 208.04 235.432H208.024ZM212.776 227.432C212.685 227.387 212.585 227.363 212.484 227.363C212.383 227.363 212.283 227.387 212.192 227.432L208.536 229.544C208.376 229.64 208.384 229.784 208.536 229.88L212.768 232.328C212.859 232.373 212.959 232.396 213.06 232.396C213.161 232.396 213.261 232.373 213.352 232.328L217.008 230.216C217.16 230.128 217.152 229.976 217.008 229.88L212.776 227.432ZM213.896 226.784L224.168 232.712C224.258 232.759 224.358 232.783 224.46 232.783C224.562 232.783 224.662 232.759 224.752 232.712L228.408 230.6C228.568 230.512 228.552 230.36 228.408 230.264L218.136 224.336C218.046 224.289 217.946 224.264 217.844 224.264C217.742 224.264 217.642 224.289 217.552 224.336L213.896 226.448C213.736 226.56 213.752 226.712 213.912 226.808L213.896 226.784ZM201.52 233.6L197.864 235.712C197.704 235.8 197.712 235.952 197.864 236.048L202.096 238.488C202.186 238.535 202.286 238.559 202.388 238.559C202.49 238.559 202.59 238.535 202.68 238.488L206.336 236.384C206.488 236.288 206.48 236.144 206.336 236.04L202.104 233.6C202.013 233.555 201.913 233.531 201.812 233.531C201.711 233.531 201.611 233.555 201.52 233.6ZM161.288 256.8L157.6 258.952C157.448 259.04 157.456 259.192 157.6 259.288L161.824 261.728C161.915 261.773 162.015 261.796 162.116 261.796C162.217 261.796 162.317 261.773 162.408 261.728L166.064 259.616C166.224 259.52 166.216 259.376 166.064 259.28L161.832 256.832C161.746 256.794 161.653 256.775 161.559 256.777C161.465 256.778 161.373 256.8 161.288 256.84V256.8ZM213.496 238.864C213.587 238.909 213.687 238.932 213.788 238.932C213.889 238.932 213.989 238.909 214.08 238.864L217.736 236.752C217.888 236.664 217.88 236.512 217.736 236.416L213.512 234.016C213.422 233.969 213.322 233.944 213.22 233.944C213.118 233.944 213.018 233.969 212.928 234.016L209.272 236.128C209.112 236.216 209.12 236.368 209.272 236.464L213.496 238.864ZM166.632 253.712L162.976 255.824C162.824 255.912 162.832 256.064 162.976 256.16L167.2 258.64C167.289 258.685 167.388 258.708 167.488 258.708C167.588 258.708 167.687 258.685 167.776 258.64L171.44 256.528C171.592 256.44 171.584 256.288 171.44 256.192L167.2 253.768C167.113 253.723 167.016 253.698 166.918 253.695C166.819 253.692 166.722 253.712 166.632 253.752V253.712ZM126.576 289.048C126.667 289.093 126.767 289.116 126.868 289.116C126.969 289.116 127.069 289.093 127.16 289.048L130.816 286.936C130.968 286.848 130.96 286.696 130.816 286.6L126.592 284.16C126.501 284.115 126.401 284.091 126.3 284.091C126.199 284.091 126.099 284.115 126.008 284.16L122.352 286.272C122.192 286.36 122.2 286.512 122.352 286.608L126.576 289.048ZM118.536 281.488L114.88 283.6C114.72 283.688 114.728 283.84 114.88 283.936L119.112 286.336C119.202 286.383 119.302 286.407 119.404 286.407C119.506 286.407 119.606 286.383 119.696 286.336L123.352 284.224C123.504 284.136 123.496 283.984 123.352 283.888L119.128 281.448C119.03 281.411 118.925 281.4 118.822 281.414C118.719 281.427 118.62 281.467 118.536 281.528V281.488ZM132.504 285.976L136.16 283.864C136.312 283.776 136.304 283.624 136.16 283.528L131.936 281.128C131.845 281.083 131.745 281.059 131.644 281.059C131.543 281.059 131.443 281.083 131.352 281.128L127.672 283.2C127.512 283.288 127.52 283.44 127.672 283.536L131.904 285.984C131.994 286.037 132.096 286.067 132.2 286.073C132.304 286.078 132.409 286.059 132.504 286.016V285.976ZM137.848 282.888L141.504 280.776C141.656 280.688 141.648 280.536 141.504 280.44L137.28 278C137.19 277.953 137.09 277.928 136.988 277.928C136.886 277.928 136.786 277.953 136.696 278L133.04 280.112C132.88 280.2 132.888 280.352 133.04 280.448L137.272 282.848C137.355 282.906 137.45 282.944 137.55 282.958C137.65 282.972 137.753 282.962 137.848 282.928V282.888ZM143.192 279.808L146.848 277.696C147 277.6 146.992 277.456 146.848 277.36L142.624 274.912C142.533 274.867 142.433 274.843 142.332 274.843C142.231 274.843 142.131 274.867 142.04 274.912L138.4 277.056C138.24 277.144 138.248 277.296 138.4 277.392L142.632 279.832C142.719 279.877 142.816 279.902 142.914 279.905C143.012 279.907 143.11 279.888 143.2 279.848L143.192 279.808ZM123.88 278.4L120.224 280.512C120.064 280.6 120.072 280.752 120.224 280.848L124.456 283.288C124.547 283.333 124.647 283.356 124.748 283.356C124.849 283.356 124.949 283.333 125.04 283.288L128.696 281.176C128.848 281.08 128.84 280.936 128.696 280.84L124.472 278.392C124.376 278.353 124.273 278.337 124.17 278.345C124.067 278.353 123.968 278.386 123.88 278.44V278.4ZM129.224 275.312L125.6 277.464C125.44 277.552 125.448 277.704 125.6 277.8L129.832 280.24C129.923 280.285 130.023 280.308 130.124 280.308C130.225 280.308 130.325 280.285 130.416 280.24L134.072 278.128C134.224 278.04 134.216 277.888 134.072 277.792L129.848 275.352C129.752 275.3 129.645 275.273 129.536 275.273C129.427 275.273 129.32 275.3 129.224 275.352V275.312ZM150.6 262.968L146.944 265.08C146.792 265.168 146.8 265.32 146.944 265.416L151.168 267.856C151.258 267.903 151.358 267.927 151.46 267.927C151.562 267.927 151.662 267.903 151.752 267.856L155.408 265.744C155.568 265.656 155.56 265.504 155.408 265.408L151.2 263.024C151.108 262.974 151.006 262.946 150.902 262.943C150.798 262.94 150.694 262.963 150.6 263.008V262.968ZM145.256 266.056L141.6 268.208C141.448 268.296 141.456 268.448 141.6 268.544L145.824 270.984C145.915 271.029 146.015 271.052 146.116 271.052C146.217 271.052 146.317 271.029 146.408 270.984L150.064 268.872C150.224 268.784 150.216 268.632 150.064 268.536L145.832 266.096C145.743 266.05 145.644 266.026 145.544 266.026C145.444 266.026 145.345 266.05 145.256 266.096V266.056ZM155.944 259.888L152.288 261.992C152.136 262.088 152.144 262.24 152.288 262.336L156.512 264.736C156.603 264.781 156.703 264.804 156.804 264.804C156.905 264.804 157.005 264.781 157.096 264.736L160.752 262.624C160.912 262.536 160.904 262.384 160.752 262.288L156.52 259.848C156.425 259.814 156.322 259.804 156.222 259.818C156.122 259.832 156.027 259.869 155.944 259.928V259.888ZM134.568 272.224L130.912 274.4C130.752 274.496 130.768 274.64 130.912 274.736L135.144 277.184C135.235 277.229 135.335 277.252 135.436 277.252C135.537 277.252 135.637 277.229 135.728 277.184L139.384 275.072C139.536 274.984 139.528 274.832 139.384 274.736L135.16 272.336C135.074 272.278 134.976 272.241 134.873 272.229C134.77 272.216 134.665 272.228 134.568 272.264V272.224ZM139.912 269.144L136.256 271.256C136.104 271.344 136.112 271.496 136.256 271.592L140.48 273.992C140.57 274.039 140.67 274.063 140.772 274.063C140.874 274.063 140.974 274.039 141.064 273.992L144.72 271.888C144.88 271.792 144.864 271.64 144.72 271.544L140.488 269.104C140.392 269.072 140.291 269.063 140.191 269.077C140.091 269.09 139.995 269.127 139.912 269.184V269.144ZM136 290.968L139.656 288.856C139.816 288.768 139.808 288.616 139.656 288.52L135.424 286.12C135.334 286.073 135.234 286.048 135.132 286.048C135.03 286.048 134.93 286.073 134.84 286.12L131.2 288.176C131.048 288.264 131.056 288.416 131.2 288.512L135.424 290.952C135.512 290.998 135.61 291.024 135.71 291.026C135.81 291.029 135.909 291.009 136 290.968ZM104.64 287.768L100.408 285.328C100.317 285.283 100.217 285.259 100.116 285.259C100.015 285.259 99.9147 285.283 99.824 285.328L96.168 287.44C96.016 287.528 96.024 287.68 96.168 287.776L100.392 290.216C100.483 290.261 100.583 290.284 100.684 290.284C100.785 290.284 100.885 290.261 100.976 290.216L104.632 288.104C104.8 288.048 104.8 287.896 104.648 287.8L104.64 287.768ZM112.64 290.12L108.408 287.68C108.319 287.635 108.22 287.611 108.12 287.611C108.02 287.611 107.921 287.635 107.832 287.68L102.232 290.928C102.08 291.016 102.088 291.168 102.232 291.264L106.456 293.664C106.547 293.709 106.647 293.732 106.748 293.732C106.849 293.732 106.949 293.709 107.04 293.664L112.64 290.416C112.8 290.4 112.8 290.248 112.656 290.152L112.64 290.12ZM98.144 283.048L93.912 280.608C93.8212 280.563 93.7213 280.539 93.62 280.539C93.5187 280.539 93.4187 280.563 93.328 280.608L88.848 283.2C88.688 283.288 88.696 283.44 88.848 283.536L93.08 285.976C93.1707 286.021 93.2707 286.044 93.372 286.044C93.4733 286.044 93.5732 286.021 93.664 285.976L98.16 283.376C98.336 283.328 98.328 283.2 98.16 283.08L98.144 283.048ZM101.592 281.056C101.682 281.103 101.782 281.127 101.884 281.127C101.986 281.127 102.086 281.103 102.176 281.056L105.832 278.944C105.992 278.856 105.976 278.704 105.832 278.608L101.6 276.208C101.509 276.163 101.409 276.139 101.308 276.139C101.207 276.139 101.107 276.163 101.016 276.208L97.36 278.32C97.208 278.408 97.216 278.56 97.36 278.656L101.592 281.056ZM120.104 292.8L115.872 290.4C115.782 290.353 115.682 290.328 115.58 290.328C115.478 290.328 115.378 290.353 115.288 290.4L108.256 294.4C108.104 294.488 108.112 294.64 108.256 294.736L112.488 297.176C112.577 297.221 112.676 297.244 112.776 297.244C112.876 297.244 112.975 297.221 113.064 297.176L120.104 293.112C120.28 293.072 120.272 292.92 120.104 292.8ZM123.616 297.752L119.384 295.312C119.293 295.267 119.193 295.243 119.092 295.243C118.991 295.243 118.891 295.267 118.8 295.312L114.296 297.912C114.144 298 114.152 298.152 114.296 298.248L118.528 300.688C118.619 300.733 118.719 300.756 118.82 300.756C118.921 300.756 119.021 300.733 119.112 300.688L123.608 298.088C123.792 298.024 123.776 297.872 123.616 297.776V297.752ZM141.344 258.12C141.435 258.165 141.535 258.188 141.636 258.188C141.737 258.188 141.837 258.165 141.928 258.12L145.584 256.008C145.744 255.912 145.736 255.768 145.584 255.672L141.352 253.224C141.261 253.179 141.161 253.155 141.06 253.155C140.959 253.155 140.859 253.179 140.768 253.224L137.112 255.336C136.96 255.424 136.968 255.576 137.112 255.672L141.344 258.12ZM130.656 264.288C130.746 264.335 130.846 264.359 130.948 264.359C131.05 264.359 131.15 264.335 131.24 264.288L134.896 262.176C135.056 262.088 135.048 261.936 134.896 261.84L130.664 259.4C130.573 259.355 130.473 259.331 130.372 259.331C130.271 259.331 130.171 259.355 130.08 259.4L126.4 261.536C126.248 261.624 126.256 261.776 126.4 261.872L130.656 264.288ZM106.952 278C107.043 278.045 107.143 278.068 107.244 278.068C107.345 278.068 107.445 278.045 107.536 278L111.192 275.888C111.352 275.8 111.344 275.648 111.192 275.552L106.96 273.104C106.869 273.059 106.769 273.035 106.668 273.035C106.567 273.035 106.467 273.059 106.376 273.104L102.704 275.2C102.552 275.288 102.56 275.44 102.704 275.536L106.952 278ZM136 261.2C136.091 261.245 136.191 261.268 136.292 261.268C136.393 261.268 136.493 261.245 136.584 261.2L140.24 259.088C140.4 259 140.392 258.848 140.24 258.752L136 256.352C135.91 256.305 135.81 256.28 135.708 256.28C135.606 256.28 135.506 256.305 135.416 256.352L131.76 258.456C131.608 258.552 131.616 258.704 131.76 258.8L136 261.2ZM125.312 267.368C125.403 267.413 125.503 267.436 125.604 267.436C125.705 267.436 125.805 267.413 125.896 267.368L129.552 265.256C129.712 265.168 129.696 265.016 129.552 264.92L125.32 262.472C125.229 262.427 125.129 262.403 125.028 262.403C124.927 262.403 124.827 262.427 124.736 262.472L121.08 264.584C120.928 264.672 120.936 264.824 121.08 264.92L125.312 267.368ZM126.552 298.136C126.461 298.091 126.361 298.067 126.26 298.067C126.159 298.067 126.059 298.091 125.968 298.136L120.368 301.384C120.208 301.472 120.216 301.624 120.368 301.72L124.6 304.16C124.691 304.205 124.791 304.228 124.892 304.228C124.993 304.228 125.093 304.205 125.184 304.16L130.784 300.912C130.936 300.824 130.928 300.672 130.784 300.576L126.552 298.136ZM117.64 271.8C117.731 271.845 117.831 271.868 117.932 271.868C118.033 271.868 118.133 271.845 118.224 271.8L121.88 269.688C122.04 269.6 122.032 269.448 121.88 269.352L117.6 266.952C117.51 266.905 117.41 266.88 117.308 266.88C117.206 266.88 117.106 266.905 117.016 266.952L113.36 269.056C113.208 269.152 113.216 269.296 113.36 269.4L117.64 271.8ZM112.296 274.88C112.387 274.925 112.487 274.948 112.588 274.948C112.689 274.948 112.789 274.925 112.88 274.88L116.536 272.768C116.696 272.68 116.688 272.528 116.536 272.432L112.304 269.992C112.213 269.947 112.113 269.923 112.012 269.923C111.911 269.923 111.811 269.947 111.72 269.992L108.064 272.104C107.912 272.192 107.92 272.344 108.064 272.44L112.296 274.88ZM225.6 241C225.509 240.955 225.409 240.931 225.308 240.931C225.207 240.931 225.107 240.955 225.016 241L216 246.192C215.84 246.28 215.856 246.432 216 246.528L220.232 248.928C220.322 248.975 220.422 248.999 220.524 248.999C220.626 248.999 220.726 248.975 220.816 248.928L229.816 243.736C229.976 243.648 229.96 243.496 229.816 243.4L225.6 241ZM213.784 247.824C213.694 247.777 213.594 247.752 213.492 247.752C213.39 247.752 213.29 247.777 213.2 247.824L209.544 249.936C209.392 250.024 209.4 250.176 209.544 250.272L213.768 252.712C213.858 252.759 213.958 252.783 214.06 252.783C214.162 252.783 214.262 252.759 214.352 252.712L218.008 250.6C218.168 250.512 218.16 250.36 218.008 250.264L213.784 247.824ZM141.384 287.88L145.048 285.768C145.2 285.68 145.192 285.528 145.048 285.432L140.8 282.992C140.709 282.947 140.609 282.923 140.508 282.923C140.407 282.923 140.307 282.947 140.216 282.992L136.56 285.104C136.408 285.192 136.416 285.344 136.56 285.44L140.784 287.888C140.873 287.929 140.971 287.95 141.069 287.949C141.167 287.947 141.264 287.924 141.352 287.88H141.384ZM203.096 254C203.005 253.955 202.905 253.931 202.804 253.931C202.703 253.931 202.603 253.955 202.512 254L198.856 256.112C198.696 256.2 198.712 256.352 198.856 256.448L203.08 258.848C203.171 258.893 203.271 258.916 203.372 258.916C203.473 258.916 203.573 258.893 203.664 258.848L207.32 256.736C207.48 256.648 207.464 256.496 207.32 256.4L203.096 254ZM230.944 237.92C230.853 237.875 230.753 237.851 230.652 237.851C230.551 237.851 230.451 237.875 230.36 237.92L226.672 240C226.52 240.088 226.528 240.24 226.672 240.336L230.896 242.776C230.987 242.821 231.087 242.844 231.188 242.844C231.289 242.844 231.389 242.821 231.48 242.776L235.136 240.664C235.296 240.576 235.28 240.424 235.136 240.328L230.944 237.92ZM240.544 237.272L230.272 231.344C230.182 231.297 230.082 231.272 229.98 231.272C229.878 231.272 229.778 231.297 229.688 231.344L226.032 233.448C225.88 233.544 225.888 233.696 226.032 233.792L236.296 239.72C236.387 239.765 236.487 239.788 236.588 239.788C236.689 239.788 236.789 239.765 236.88 239.72L240.536 237.608C240.664 237.52 240.656 237.368 240.488 237.272H240.544ZM183.144 265.528C183.055 265.483 182.956 265.459 182.856 265.459C182.756 265.459 182.657 265.483 182.568 265.528L178.064 268.128C177.904 268.216 177.92 268.368 178.064 268.464L182.296 270.904C182.386 270.951 182.486 270.975 182.588 270.975C182.69 270.975 182.79 270.951 182.88 270.904L187.384 268.304C187.536 268.216 187.528 268.064 187.384 267.968L183.144 265.528ZM196.648 257.728C196.557 257.683 196.457 257.659 196.356 257.659C196.255 257.659 196.155 257.683 196.064 257.728L190.464 260.976C190.312 261.064 190.32 261.216 190.464 261.312L194.688 263.752C194.779 263.797 194.879 263.82 194.98 263.82C195.081 263.82 195.181 263.797 195.272 263.752L200.872 260.504C201.032 260.416 201.024 260.264 200.872 260.168L196.648 257.728ZM170.768 272.672C170.678 272.625 170.578 272.6 170.476 272.6C170.374 272.6 170.274 272.625 170.184 272.672L140 290.04C139.848 290.128 139.856 290.28 140 290.376L144.224 292.776C144.315 292.821 144.415 292.844 144.516 292.844C144.617 292.844 144.717 292.821 144.808 292.776L174.904 275.392C175.064 275.304 175.056 275.152 174.904 275.056L170.768 272.672ZM138.984 291.024C138.894 290.977 138.794 290.952 138.692 290.952C138.59 290.952 138.49 290.977 138.4 291.024L133.84 293.6C133.688 293.688 133.696 293.84 133.84 293.936L138.072 296.376C138.161 296.422 138.26 296.445 138.36 296.445C138.46 296.445 138.559 296.422 138.648 296.376L143.152 293.776C143.304 293.688 143.296 293.536 143.152 293.44L138.984 291.024ZM176.96 269.104C176.87 269.057 176.77 269.032 176.668 269.032C176.566 269.032 176.466 269.057 176.376 269.104L171.872 271.704C171.72 271.792 171.728 271.944 171.872 272.04L176.096 274.48C176.187 274.525 176.287 274.548 176.388 274.548C176.489 274.548 176.589 274.525 176.68 274.48L181.184 271.88C181.336 271.792 181.328 271.64 181.184 271.544L176.96 269.104ZM132.792 294.6C132.701 294.555 132.601 294.531 132.5 294.531C132.399 294.531 132.299 294.555 132.208 294.6L127.712 297.2C127.552 297.288 127.568 297.44 127.712 297.536L131.944 299.976C132.035 300.021 132.135 300.044 132.236 300.044C132.337 300.044 132.437 300.021 132.528 299.976L137.024 297.376C137.184 297.288 137.176 297.136 137.024 297.04L132.792 294.6ZM189.336 261.952C189.245 261.907 189.145 261.883 189.044 261.883C188.943 261.883 188.843 261.907 188.752 261.952L184.248 264.552C184.096 264.64 184.104 264.792 184.248 264.888L188.48 267.288C188.57 267.335 188.67 267.359 188.772 267.359C188.874 267.359 188.974 267.335 189.064 267.288L193.56 264.696C193.72 264.6 193.704 264.448 193.56 264.352L189.336 261.952ZM208.464 250.912C208.373 250.867 208.273 250.843 208.172 250.843C208.071 250.843 207.971 250.867 207.88 250.912L204.224 253.024C204.072 253.112 204.08 253.264 204.224 253.36L208.448 255.808C208.539 255.853 208.639 255.876 208.74 255.876C208.841 255.876 208.941 255.853 209.032 255.808L212.688 253.696C212.848 253.608 212.832 253.456 212.688 253.36L208.464 250.912ZM220.12 242.4L223.776 240.288C223.928 240.2 223.92 240.048 223.776 239.952L219.552 237.512C219.462 237.465 219.362 237.44 219.26 237.44C219.158 237.44 219.058 237.465 218.968 237.512L215.312 239.624C215.152 239.712 215.168 239.864 215.312 239.96L219.544 242.4C219.634 242.444 219.732 242.466 219.832 242.466C219.932 242.466 220.03 242.444 220.12 242.4ZM196.224 242.24L199.88 240.136C200.032 240.04 200.024 239.888 199.88 239.792L195.656 237.352C195.566 237.305 195.466 237.28 195.364 237.28C195.262 237.28 195.162 237.305 195.072 237.352L191.416 239.464C191.256 239.552 191.272 239.704 191.416 239.8L195.648 242.24C195.736 242.287 195.835 242.312 195.935 242.313C196.035 242.315 196.134 242.292 196.224 242.248V242.24ZM184.112 263.2L194.8 257.032C194.96 256.944 194.952 256.792 194.8 256.696L190.568 254.256C190.477 254.211 190.377 254.187 190.276 254.187C190.175 254.187 190.075 254.211 189.984 254.256L179.28 260.4C179.128 260.496 179.136 260.648 179.28 260.744L183.504 263.184C183.596 263.235 183.7 263.264 183.806 263.267C183.912 263.269 184.017 263.246 184.112 263.2ZM214.192 245.488C214.282 245.535 214.382 245.559 214.484 245.559C214.586 245.559 214.686 245.535 214.776 245.488L218.432 243.384C218.584 243.288 218.576 243.136 218.432 243.04L214.208 240.6C214.117 240.555 214.017 240.531 213.916 240.531C213.815 240.531 213.715 240.555 213.624 240.6L209.968 242.712C209.808 242.8 209.816 242.952 209.968 243.048L214.192 245.488ZM208.736 242.008L212.392 239.904C212.544 239.808 212.536 239.656 212.392 239.56L208.168 237.12C208.077 237.075 207.977 237.051 207.876 237.051C207.775 237.051 207.675 237.075 207.584 237.12L203.904 239.2C203.744 239.288 203.752 239.44 203.904 239.536L208.136 241.976C208.226 242.029 208.328 242.059 208.433 242.064C208.538 242.068 208.642 242.046 208.736 242V242.008ZM178.768 266.288L182.424 264.176C182.584 264.088 182.568 263.936 182.424 263.84L178.192 261.4C178.101 261.355 178.001 261.331 177.9 261.331C177.799 261.331 177.699 261.355 177.608 261.4L173.952 263.512C173.792 263.6 173.808 263.752 173.952 263.848L178.176 266.288C178.268 266.333 178.37 266.356 178.473 266.354C178.576 266.353 178.677 266.328 178.768 266.28V266.288ZM202.4 252.304C202.491 252.349 202.591 252.372 202.692 252.372C202.793 252.372 202.893 252.349 202.984 252.304L206.64 250.192C206.8 250.104 206.784 249.952 206.64 249.856L202.4 247.424C202.309 247.379 202.209 247.355 202.108 247.355C202.007 247.355 201.907 247.379 201.816 247.424L198.16 249.536C198 249.632 198.016 249.776 198.16 249.872L202.4 252.304ZM152.072 281.712L155.728 279.6C155.88 279.504 155.872 279.36 155.728 279.264L151.456 276.8C151.365 276.755 151.265 276.731 151.164 276.731C151.063 276.731 150.963 276.755 150.872 276.8L147.2 278.92C147.04 279.008 147.048 279.16 147.2 279.256L151.432 281.696C151.525 281.749 151.631 281.778 151.738 281.781C151.845 281.783 151.952 281.76 152.048 281.712H152.072ZM157.416 278.624L161.072 276.512C161.224 276.424 161.216 276.272 161.072 276.176L156.8 273.736C156.709 273.691 156.609 273.667 156.508 273.667C156.407 273.667 156.307 273.691 156.216 273.736L152.56 275.848C152.4 275.936 152.408 276.088 152.56 276.184L156.792 278.624C156.885 278.672 156.988 278.696 157.092 278.696C157.196 278.696 157.299 278.672 157.392 278.624H157.416ZM146.696 284.8L150.36 282.688C150.512 282.6 150.504 282.448 150.36 282.352L146.128 279.912C146.038 279.865 145.938 279.84 145.836 279.84C145.734 279.84 145.634 279.865 145.544 279.912L141.888 282.024C141.736 282.112 141.744 282.264 141.888 282.36L146.12 284.8C146.209 284.845 146.308 284.869 146.408 284.869C146.508 284.869 146.607 284.845 146.696 284.8ZM168.08 272.456L171.736 270.352C171.888 270.256 171.88 270.104 171.736 270.008L167.512 267.568C167.421 267.523 167.321 267.499 167.22 267.499C167.119 267.499 167.019 267.523 166.928 267.568L163.272 269.68C163.112 269.768 163.12 269.92 163.272 270.016L167.504 272.456C167.594 272.5 167.693 272.523 167.793 272.521C167.893 272.52 167.991 272.495 168.08 272.448V272.456ZM162.736 275.544L166.392 273.432C166.544 273.344 166.536 273.192 166.392 273.096L162.168 270.656C162.077 270.611 161.977 270.587 161.876 270.587C161.775 270.587 161.675 270.611 161.584 270.656L157.928 272.768C157.768 272.864 157.776 273.008 157.928 273.104L162.16 275.552C162.251 275.593 162.35 275.613 162.45 275.61C162.55 275.608 162.648 275.582 162.736 275.536V275.544ZM173.424 269.376L177.08 267.264C177.232 267.176 177.224 267.024 177.08 266.928L172.856 264.528C172.766 264.481 172.666 264.456 172.564 264.456C172.462 264.456 172.362 264.481 172.272 264.528L168.616 266.64C168.456 266.728 168.472 266.88 168.616 266.976L172.848 269.416C172.941 269.452 173.042 269.467 173.142 269.459C173.241 269.45 173.338 269.419 173.424 269.368V269.376ZM197.872 223.728C197.963 223.773 198.063 223.796 198.164 223.796C198.265 223.796 198.365 223.773 198.456 223.728L202.112 221.616C202.272 221.528 202.264 221.376 202.112 221.28L200.984 220.632C200.893 220.587 200.793 220.563 200.692 220.563C200.591 220.563 200.491 220.587 200.4 220.632L196.744 222.744C196.592 222.832 196.6 222.984 196.744 223.08L197.872 223.728ZM171.576 240.696C171.667 240.741 171.767 240.764 171.868 240.764C171.969 240.764 172.069 240.741 172.16 240.696L175.816 238.584C175.976 238.496 175.968 238.344 175.816 238.248L171.584 235.808C171.493 235.763 171.393 235.739 171.292 235.739C171.191 235.739 171.091 235.763 171 235.808L167.344 237.92C167.192 238.008 167.2 238.16 167.344 238.256L171.576 240.696ZM182.264 234.528C182.354 234.575 182.454 234.599 182.556 234.599C182.658 234.599 182.758 234.575 182.848 234.528L186.504 232.416C186.664 232.328 186.656 232.176 186.504 232.08L182.272 229.64C182.182 229.593 182.082 229.568 181.98 229.568C181.878 229.568 181.778 229.593 181.688 229.64L178.032 231.752C177.88 231.84 177.888 231.992 178.032 232.088L182.264 234.528ZM165.048 244.464C165.139 244.509 165.239 244.532 165.34 244.532C165.441 244.532 165.541 244.509 165.632 244.464L169.296 242.352C169.448 242.264 169.44 242.112 169.296 242.016L165.064 239.616C164.973 239.571 164.873 239.547 164.772 239.547C164.671 239.547 164.571 239.571 164.48 239.616L160.8 241.68C160.648 241.768 160.656 241.92 160.8 242.016L165.048 244.464ZM176.92 237.6C177.011 237.645 177.111 237.668 177.212 237.668C177.313 237.668 177.413 237.645 177.504 237.6L181.16 235.488C181.32 235.4 181.312 235.248 181.16 235.152L176.928 232.752C176.837 232.707 176.737 232.683 176.636 232.683C176.535 232.683 176.435 232.707 176.344 232.752L172.688 234.864C172.536 234.96 172.544 235.104 172.688 235.2L176.92 237.6ZM154.4 250.632C154.491 250.677 154.591 250.7 154.692 250.7C154.793 250.7 154.893 250.677 154.984 250.632L158.64 248.52C158.8 248.432 158.792 248.28 158.64 248.184L154.408 245.744C154.318 245.697 154.218 245.672 154.116 245.672C154.014 245.672 153.914 245.697 153.824 245.744L150.168 247.848C150.016 247.944 150.024 248.096 150.168 248.192L154.4 250.632ZM159.744 247.544C159.835 247.589 159.935 247.612 160.036 247.612C160.137 247.612 160.237 247.589 160.328 247.544L163.984 245.432C164.144 245.336 164.136 245.192 163.984 245.096L159.752 242.648C159.661 242.603 159.561 242.579 159.46 242.579C159.359 242.579 159.259 242.603 159.168 242.648L155.456 244.8C155.304 244.888 155.312 245.04 155.456 245.136L159.744 247.544ZM187.2 229.888C187.29 229.935 187.39 229.959 187.492 229.959C187.594 229.959 187.694 229.935 187.784 229.888L191.44 227.784C191.6 227.688 191.592 227.544 191.44 227.44L190.312 226.792C190.221 226.747 190.121 226.723 190.02 226.723C189.919 226.723 189.819 226.747 189.728 226.792L186.072 228.904C185.92 228.992 185.928 229.144 186.072 229.24L187.2 229.888ZM203.2 220.632C203.29 220.679 203.39 220.703 203.492 220.703C203.594 220.703 203.694 220.679 203.784 220.632L207.448 218.52C207.6 218.432 207.592 218.28 207.448 218.184L206.32 217.536C206.23 217.489 206.13 217.464 206.028 217.464C205.926 217.464 205.826 217.489 205.736 217.536L202.08 219.64C201.928 219.736 201.936 219.888 202.08 219.984L203.2 220.632ZM212.088 225.76C212.178 225.807 212.278 225.831 212.38 225.831C212.482 225.831 212.582 225.807 212.672 225.76L216.328 223.648C216.48 223.56 216.472 223.408 216.328 223.312L212.104 220.912C212.014 220.865 211.914 220.84 211.812 220.84C211.71 220.84 211.61 220.865 211.52 220.912L207.864 223.024C207.704 223.112 207.712 223.264 207.864 223.36L212.088 225.76ZM225.448 239.32L229.104 237.208C229.264 237.12 229.248 236.968 229.104 236.872L224.872 234.472C224.781 234.427 224.681 234.403 224.58 234.403C224.479 234.403 224.379 234.427 224.288 234.472L220.632 236.584C220.472 236.672 220.488 236.824 220.632 236.92L224.856 239.36C224.952 239.405 225.059 239.425 225.165 239.418C225.271 239.411 225.374 239.377 225.464 239.32H225.448ZM192.528 226.8C192.619 226.845 192.719 226.868 192.82 226.868C192.921 226.868 193.021 226.845 193.112 226.8L196.768 224.688C196.928 224.6 196.92 224.448 196.768 224.352L195.64 223.704C195.55 223.657 195.45 223.632 195.348 223.632C195.246 223.632 195.146 223.657 195.056 223.704L191.4 225.816C191.248 225.904 191.256 226.056 191.4 226.152L192.528 226.8ZM149.016 253.712C149.107 253.757 149.207 253.78 149.308 253.78C149.409 253.78 149.509 253.757 149.6 253.712L153.256 251.6C153.416 251.512 153.408 251.36 153.256 251.264L149.024 248.824C148.933 248.779 148.833 248.755 148.732 248.755C148.631 248.755 148.531 248.779 148.44 248.824L144.8 250.936C144.648 251.024 144.656 251.176 144.8 251.272L149.016 253.712Z" fill="#6A9626"/>
<path opacity="0.3" d="M172.72 285.8L208.8 264.96C209.41 264.652 210.084 264.491 210.768 264.491C211.452 264.491 212.126 264.652 212.736 264.96L233.432 276.912C234.52 277.536 234.52 278.552 233.432 279.184L197.344 299.984C196.735 300.296 196.06 300.458 195.376 300.458C194.692 300.458 194.017 300.296 193.408 299.984L172.72 288.072C171.632 287.44 171.632 286.4 172.72 285.8Z" fill="#141B24"/>
<path d="M53.7519 272.704C54.0703 272.886 54.4085 273.031 54.7599 273.136C54.4076 273.037 54.0689 272.895 53.7519 272.712C53.6422 272.655 53.5378 272.588 53.4399 272.512C53.5399 272.582 53.6441 272.646 53.7519 272.704Z" fill="#7CB333"/>
<path opacity="0.3" d="M189.192 83.9999C188.96 82.3039 187.592 81.6799 185.936 82.6399L60.112 155.272C59.1464 155.861 58.3477 156.687 57.792 157.672L51.632 154.128C52.1843 153.128 52.9829 152.285 53.952 151.68L179.784 79.0639C180.695 78.4915 181.739 78.1682 182.814 78.1263C183.889 78.0843 184.956 78.3252 185.908 78.8249C186.861 79.3246 187.665 80.0656 188.241 80.9737C188.818 81.8819 189.145 82.9254 189.192 83.9999Z" fill="#141B24"/>
<path d="M59.496 273.016C59.5118 273.012 59.5282 273.012 59.544 273.016H59.496Z" fill="#7CB333"/>
<path opacity="0.5" d="M287.752 258.496C287.67 259.597 287.33 260.664 286.761 261.61C286.191 262.557 285.407 263.356 284.472 263.944L158.64 336.592C157.63 337.134 156.498 337.409 155.352 337.392V330.296C156.498 330.313 157.63 330.037 158.64 329.496L284.472 256.8C286.16 255.816 286.272 254.28 284.8 253.224C285.651 253.83 286.357 254.617 286.867 255.529C287.378 256.44 287.68 257.454 287.752 258.496Z" fill="#141B24"/>
<path d="M368.296 196.288L353.6 187.808C353.272 187.632 352.8 187.752 352.224 188.192C351.92 188.416 351.616 188.64 351.312 188.848L350.968 189.064C350.768 189.192 350.568 189.328 350.36 189.448C350.152 189.568 350.072 189.608 349.928 189.696L349.392 189.992L348.896 190.24L348.4 190.48L347.848 190.712C347.696 190.776 347.544 190.848 347.384 190.904L346.784 191.128L346.36 191.28L345.712 191.48L345.328 191.592L344.632 191.768L344.28 191.848C344.04 191.904 343.792 191.952 343.544 191.992L343.24 192.048L342.44 192.16H342.176C341.904 192.16 341.624 192.216 341.376 192.232H341.16H340.296H340.12C339.824 192.232 339.528 192.232 339.232 192.232H339.096C338.792 192.232 338.48 192.232 338.176 192.168H338.088L337.136 192.04H337.088L336.648 191.952L327.528 186.688C326.856 186.312 326.24 186.584 325.84 187.568C320.544 200.72 309.264 214.056 301.744 217.392C301.594 217.456 301.45 217.531 301.312 217.616C301.22 217.669 301.132 217.728 301.048 217.792L300.928 217.872L300.6 218.152C300.488 218.256 300.384 218.368 300.28 218.48C299.744 219.066 299.444 219.83 299.44 220.624L300.528 233.984C300.528 242.6 304.192 251.688 311.672 256.032L326.376 264.504L326.48 264.56C330.278 266.662 334.642 267.516 338.952 267C340.562 266.734 342.054 265.986 343.232 264.856C359.68 247.872 367.672 224.856 367.672 212.168L368.76 197.448C368.752 196.864 368.584 196.456 368.296 196.288Z" fill="#7CB333"/>
<path opacity="0.4" d="M342.112 195.144C341.965 195.07 341.802 195.035 341.638 195.044C341.473 195.052 341.314 195.103 341.176 195.192L341.016 195.312C340.923 195.405 340.84 195.507 340.768 195.616C340.688 195.755 340.618 195.899 340.56 196.048C339.181 199.427 337.525 202.686 335.608 205.792C333.949 208.522 332.124 211.149 330.144 213.656C329.184 214.856 328.224 216 327.256 217.072C327.259 217.085 327.259 217.099 327.256 217.112L326.456 218C326.176 218.28 325.912 218.568 325.656 218.84C325.52 218.992 325.384 219.136 325.24 219.272C322.152 222.376 319.128 224.696 316.544 225.84C316.103 226.036 315.7 226.307 315.352 226.64L315.056 226.936C315.039 226.962 315.02 226.986 315 227.008L315.056 226.936L300.368 218.472C300.379 218.45 300.396 218.431 300.416 218.416C300.443 218.372 300.475 218.332 300.512 218.296L300.6 218.216C300.625 218.187 300.651 218.161 300.68 218.136L300.768 218.056C300.844 217.982 300.924 217.913 301.008 217.848L301.128 217.768C301.216 217.712 301.304 217.64 301.392 217.592C301.528 217.503 301.673 217.428 301.824 217.368C309.344 214.032 320.632 200.696 325.92 187.544C326.208 186.84 326.6 186.496 327.048 186.496C327.247 186.504 327.44 186.565 327.608 186.672L336.64 192L342.112 195.144Z" fill="white"/>
<path opacity="0.1" d="M368.296 196.288L353.6 187.808C353.28 187.64 352.8 187.76 352.232 188.192C351.936 188.424 351.624 188.648 351.312 188.856L350.976 189.072C350.776 189.2 350.576 189.336 350.368 189.456C350.16 189.576 350.08 189.616 349.936 189.704L349.4 190C349.24 190.088 349.072 190.16 348.904 190.24L348.408 190.488L347.848 190.72C347.704 190.792 347.544 190.856 347.392 190.92L346.792 191.136L346.368 191.288L345.712 191.488L345.328 191.6L344.64 191.776L344.296 191.856L343.552 192L343.24 192.056C342.984 192.104 342.728 192.136 342.44 192.168H342.176L341.376 192.248H341.16C340.872 192.248 340.584 192.248 340.296 192.248H340.128C339.824 192.248 339.528 192.248 339.232 192.248H339.104C338.792 192.248 338.48 192.208 338.176 192.184H338.088C337.768 192.184 337.448 192.112 337.144 192.064H337.096C336.947 192.045 336.8 192.013 336.656 191.968L342.128 195.12L342.224 195.176C342.432 195.306 342.616 195.472 342.768 195.664C342.807 195.698 342.842 195.735 342.872 195.776C348.472 202.32 359.544 202.312 366.928 196.664C367.488 196.24 367.952 196.104 368.264 196.248H368.312C368.458 196.335 368.569 196.471 368.624 196.632C368.556 196.484 368.441 196.363 368.296 196.288Z" fill="#141B24"/>
<path opacity="0.2" d="M326.144 264.464L311.64 256.112C304.168 251.76 300.496 242.672 300.496 234.056L299.408 220.696C299.417 220.183 299.542 219.678 299.775 219.221C300.008 218.763 300.342 218.365 300.752 218.056C300.57 218.207 300.402 218.373 300.248 218.552L314.944 227.016C314.415 227.607 314.129 228.375 314.144 229.168L315.224 242.528C315.2 251.064 318.8 260.072 326.144 264.464Z" fill="#141B24"/>
<path d="M368.728 197.528L367.64 212.248C367.64 224.968 359.64 247.952 343.208 264.936C342.028 266.071 340.529 266.816 338.912 267.072C334.608 267.603 330.247 266.763 326.448 264.672L326.344 264.616L326.152 264.496C318.8 260.104 315.192 251.104 315.192 242.56L314.112 229.2C314.101 228.41 314.386 227.645 314.912 227.056C315.002 226.952 315.098 226.853 315.2 226.76C315.548 226.426 315.951 226.155 316.392 225.96C318.984 224.808 321.992 222.488 325.096 219.392L325.512 218.96L326.312 218.112L327.112 217.224C328.088 216.144 329.048 215 330.008 213.8C331.987 211.292 333.812 208.666 335.472 205.936C337.386 202.833 339.04 199.577 340.416 196.2C340.48 196.05 340.552 195.903 340.632 195.76C340.704 195.653 340.787 195.554 340.88 195.464C340.929 195.419 340.983 195.379 341.04 195.344C341.175 195.252 341.334 195.199 341.497 195.19C341.661 195.182 341.824 195.218 341.968 195.296L342.072 195.344C342.281 195.472 342.466 195.638 342.616 195.832L342.72 195.952C348.32 202.488 359.392 202.48 366.776 196.84C367.328 196.416 367.8 196.28 368.112 196.416H368.152C368.226 196.448 368.29 196.501 368.336 196.568C368.574 196.833 368.712 197.172 368.728 197.528Z" fill="#7CB333"/>
<path d="M345.688 245.808L336.936 250.856L338.288 235.024C337.24 234.472 336.576 233.104 336.576 231.152C336.576 227.664 338.696 223.616 341.312 222.104C343.928 220.592 346.048 222.192 346.048 225.68C345.991 227.747 345.402 229.764 344.336 231.536L345.688 245.808Z" fill="#435364"/>
<path d="M345.688 245.808L337.76 241.224L336.936 250.856L345.688 245.808Z" fill="#2C3E50"/>
<path d="M341.312 222.104C339.405 223.39 337.983 225.277 337.272 227.464L344.336 231.536C345.402 229.764 345.991 227.747 346.048 225.68C346.048 222.192 343.928 220.592 341.312 222.104Z" fill="#2C3E50"/>
<path d="M352.32 158.952C349.92 157.544 346.832 157.704 343.928 159.376L320.928 172.664C318.53 174.183 316.538 176.262 315.122 178.721C313.706 181.181 312.909 183.948 312.8 186.784V214.96C312.833 215.317 312.961 215.659 313.171 215.95C313.38 216.241 313.664 216.471 313.992 216.616C314.883 217.064 315.867 217.297 316.864 217.297C317.861 217.297 318.845 217.064 319.736 216.616C320.064 216.471 320.347 216.241 320.557 215.95C320.766 215.659 320.895 215.317 320.928 214.96V186.784C321.038 185.374 321.462 184.006 322.17 182.781C322.877 181.556 323.849 180.504 325.016 179.704L348 166.4V194.6C348.034 194.958 348.163 195.3 348.374 195.592C348.585 195.883 348.87 196.112 349.2 196.256C350.089 196.706 351.071 196.94 352.068 196.94C353.064 196.94 354.047 196.706 354.936 196.256C355.264 196.111 355.547 195.881 355.757 195.59C355.966 195.299 356.095 194.957 356.128 194.6V166.4C356.144 163.08 354.752 160.352 352.32 158.952Z" fill="#2C3E50"/>
<path d="M348 166.4V194.576C348.034 194.934 348.163 195.276 348.374 195.568C348.585 195.859 348.87 196.088 349.2 196.232C349.574 196.444 349.975 196.603 350.392 196.704V165.024L348 166.4Z" fill="#6A9626"/>
</svg>
