<svg width="64" height="64" viewBox="0 0 64 64" fill="none" xmlns="http://www.w3.org/2000/svg">
<path d="M54.6275 9.3725C48.5834 3.32863 40.5475 0 32 0C23.4525 0 15.4166 3.32863 9.3725 9.3725C3.32863 15.4166 0 23.4525 0 32C0 40.5475 3.32863 48.5834 9.3725 54.6275C15.4166 60.6714 23.4525 64 32 64C40.5475 64 48.5834 60.6714 54.6275 54.6275C60.6714 48.5834 64 40.5475 64 32C64 23.4525 60.6714 15.4166 54.6275 9.3725ZM57.8629 20.598H52.3532C51.5519 17.842 49.0321 15.8117 46.0356 15.7491C44.3118 11.2716 41.9256 7.51975 38.9782 4.61438C43.8545 5.84788 48.3265 8.37488 51.9757 12.0243C54.489 14.5375 56.4699 17.4411 57.8629 20.598ZM60.25 32C60.25 34.6237 59.8939 37.1925 59.2061 39.652H48.3271C48.9095 36.036 49.0791 32.2709 48.8134 28.5333C50.5147 27.7103 51.8175 26.1908 52.3532 24.348H59.2061C59.8939 26.8075 60.25 29.3762 60.25 32ZM9.814 39.652H4.79388C4.10613 37.1925 3.75 34.6237 3.75 32C3.75 29.3762 4.10613 26.8075 4.79388 24.348H15.6768C15.1827 27.413 14.9832 30.5883 15.096 33.7594C12.4864 34.7085 10.4794 36.9202 9.814 39.652ZM45.8935 25.4505C44.2518 25.4505 42.916 24.1147 42.916 22.473C42.916 20.8312 44.2518 19.4956 45.8935 19.4956C47.5354 19.4956 48.871 20.8314 48.871 22.473C48.8711 24.1149 47.5354 25.4505 45.8935 25.4505ZM39.434 20.598H33.875V5.19487C38.2207 8.322 40.84 12.8409 42.3918 16.7313C40.9769 17.5972 39.9069 18.9718 39.434 20.598ZM30.125 5.2005V20.598H20.3158C20.7332 19.0775 21.2352 17.6096 21.8191 16.2144C23.8037 11.4707 26.6434 7.71937 30.125 5.2005ZM30.125 24.348V39.652H26.0879C25.2628 36.2644 22.3735 33.6766 18.8325 33.3044C18.746 30.2746 18.9673 27.25 19.4771 24.348H30.125ZM17.9509 37.0078C20.5016 37.0078 22.5767 39.083 22.5767 41.6336C22.5767 44.1842 20.5016 46.2595 17.9509 46.2595C15.4002 46.2595 13.3251 44.1842 13.3251 41.6336C13.3251 39.083 15.4002 37.0078 17.9509 37.0078ZM26.1373 43.402H30.125V58.8228C26.8131 56.4741 24.1761 53.1229 22.2526 48.8171C24.2056 47.6431 25.6421 45.6959 26.1373 43.402ZM33.875 58.8021V43.402H43.6856C43.337 44.6695 42.9299 45.9026 42.4635 47.0899C40.4684 52.169 37.5309 56.1606 33.875 58.8021ZM33.875 39.652V24.348H39.4339C40.1761 26.901 42.3926 28.8311 45.097 29.1518C45.3214 32.6958 45.1236 36.2547 44.5265 39.6519H33.875V39.652ZM12.0243 12.0243C15.6779 8.3705 20.1564 5.8415 25.0394 4.60975C22.311 7.30237 20.0503 10.7264 18.3598 14.767C17.5884 16.6106 16.9479 18.5671 16.4422 20.598H6.13713C7.53013 17.4411 9.511 14.5375 12.0243 12.0243ZM6.13713 43.402H9.76462C10.5787 47.1738 13.9391 50.0094 17.9509 50.0094C18.192 50.0094 18.43 49.9967 18.666 49.9767C20.2851 53.7166 22.3848 56.8532 24.9445 59.3652C20.0984 58.1247 15.6541 55.6056 12.0241 51.9756C9.511 49.4625 7.53013 46.5589 6.13713 43.402ZM51.9757 51.9757C48.3231 55.6284 43.8462 58.157 38.9647 59.3891C41.865 56.5278 44.2329 52.8423 45.9539 48.4609C46.5896 46.8425 47.1264 45.1488 47.5619 43.4019H57.8629C56.4699 46.5589 54.489 49.4625 51.9757 51.9757Z" fill="#2C3E50"/>
</svg>
