<svg width="58" height="61" viewBox="0 0 58 61" fill="none" xmlns="http://www.w3.org/2000/svg">
<path d="M23.8125 21.1094C23.0938 20.2969 22.3281 19.6875 21.5156 19.2812C20.7031 18.875 19.8281 18.6406 18.8906 18.5781V13.9375C22.3906 14.0938 25.3281 15.3281 27.7031 17.6406L23.8125 21.1094ZM18.8906 44.5938C19.8281 44.5 20.7031 44.25 21.5156 43.8438C22.3594 43.4375 23.125 42.8438 23.8125 42.0625L27.7031 45.4844C26.5156 46.6406 25.1875 47.5312 23.7188 48.1562C22.25 48.7812 20.6406 49.1406 18.8906 49.2344V44.5938ZM3.70312 31.5625C3.70312 28.7812 4.03125 26.3281 4.6875 24.2031C5.375 22.0781 6.3125 20.2812 7.5 18.8125C8.6875 17.3438 10.0781 16.2031 11.6719 15.3906C13.2969 14.5781 15.0625 14.0938 16.9688 13.9375V18.625C15.9375 18.7812 14.9688 19.1406 14.0625 19.7031C13.1562 20.2344 12.3594 21.0156 11.6719 22.0469C10.9844 23.0781 10.4375 24.3906 10.0312 25.9844C9.65625 27.5469 9.45312 29.4062 9.42188 31.5625C9.45312 33.75 9.65625 35.625 10.0312 37.1875C10.4375 38.75 10.9844 40.0625 11.6719 41.125C12.3594 42.1875 13.1562 43 14.0625 43.5625C15 44.125 15.9688 44.4688 16.9688 44.5938V49.1875C15.0625 49.0625 13.2969 48.5938 11.6719 47.7812C10.0781 46.9688 8.6875 45.8281 7.5 44.3594C6.3125 42.8906 5.375 41.0938 4.6875 38.9688C4.03125 36.8125 3.70312 34.3438 3.70312 31.5625Z" fill="black"/>
<path d="M26.3531 14.4531H31.9781V49H26.3531V14.4531ZM36.7594 14.4531C39.6656 14.4531 42.2125 14.9219 44.4 15.8594C46.6187 16.7656 48.4469 17.9844 49.8844 19.5156C51.3531 21.0469 52.4469 22.7969 53.1656 24.7656C53.8844 26.7031 54.2437 28.7031 54.2437 30.7656C54.2437 33.6094 53.9312 36.0469 53.3062 38.0781C52.7125 40.0781 51.9469 41.7656 51.0094 43.1406C50.0719 44.4844 49.0094 45.5469 47.8219 46.3281C46.6656 47.1094 45.5406 47.7031 44.4469 48.1094C43.3531 48.4844 42.3531 48.7344 41.4469 48.8594C40.5406 48.9531 39.8687 49 39.4312 49H33.9V44.875H37.5562C41.3687 44.875 44.1187 43.6562 45.8062 41.2188C47.4937 38.7812 48.3375 35.25 48.3375 30.625C48.3375 29.1875 48.1656 27.7656 47.8219 26.3594C47.4781 24.9531 46.8062 23.6875 45.8062 22.5625C44.8375 21.4062 43.5094 20.4844 41.8219 19.7969C40.1344 19.0781 37.9469 18.7188 35.2594 18.7188H33.9V14.4531H36.7594Z" fill="#770449"/>
</svg>
